<svg width="325" height="162" fill="none" xmlns="http://www.w3.org/2000/svg"><g clip-path="url(#clip0_2346_38971)"><path d="M246.723 121.832a7.723 7.723 0 01-7.723 7.723H8a7.723 7.723 0 01-7.723-7.723V8A7.723 7.723 0 018 .277h231A7.723 7.723 0 01246.723 8v113.832z" fill="#fff" stroke="#B9C2C8" stroke-width=".555"/><path d="M18.067 16.944c0 .773-.279 1.383-.837 1.828-.555.445-1.329.668-2.32.668-.915 0-1.723-.172-2.427-.516v-1.687c.579.258 1.067.44 1.465.545.403.105.77.158 1.102.158.398 0 .703-.076.914-.229.215-.152.322-.378.322-.68a.737.737 0 00-.14-.445 1.533 1.533 0 00-.417-.38c-.18-.122-.548-.315-1.107-.58-.523-.247-.916-.483-1.178-.71a2.661 2.661 0 01-.627-.79 2.257 2.257 0 01-.234-1.055c0-.758.256-1.354.768-1.787.515-.434 1.226-.65 2.132-.65.446 0 .87.052 1.272.157.406.106.83.254 1.271.446l-.586 1.412a8.504 8.504 0 00-1.136-.393 3.615 3.615 0 00-.88-.111c-.343 0-.607.08-.79.24a.792.792 0 00-.276.627c0 .16.037.301.112.422.074.117.191.232.351.346.164.11.55.308 1.155.597.8.383 1.35.768 1.646 1.155.297.383.445.853.445 1.412zm1.336-5.865c0-.582.325-.873.973-.873.648 0 .973.29.973.873 0 .277-.082.494-.247.65-.16.152-.402.229-.726.229-.649 0-.973-.293-.973-.88zm1.864 8.244H19.48v-6.551h1.787v6.55zm7.582-6.551v.908l-1.026.264c.188.293.282.62.282.984 0 .703-.247 1.252-.739 1.647-.488.39-1.168.586-2.039.586l-.322-.018-.264-.03c-.183.141-.275.298-.275.47 0 .257.328.386.984.386h1.114c.718 0 1.265.154 1.64.463.379.309.569.762.569 1.36 0 .765-.32 1.359-.962 1.78-.636.423-1.552.634-2.747.634-.915 0-1.614-.16-2.098-.48-.48-.317-.72-.763-.72-1.337 0-.394.122-.724.368-.99s.608-.455 1.084-.568a1.205 1.205 0 01-.48-.381.924.924 0 01-.205-.569c0-.25.072-.457.216-.62.145-.169.354-.333.627-.493a1.776 1.776 0 01-.82-.715c-.2-.328-.299-.715-.299-1.16 0-.715.233-1.268.698-1.658.464-.39 1.129-.586 1.992-.586.183 0 .4.018.65.053.254.03.416.054.486.07h2.286zm-5.057 7.476c0 .247.117.44.352.58.238.141.57.212.996.212.64 0 1.142-.088 1.505-.264.364-.176.545-.416.545-.72 0-.247-.107-.417-.322-.51-.215-.094-.547-.141-.996-.141h-.926c-.328 0-.603.076-.826.228a.723.723 0 00-.328.616zm.65-5.332c0 .356.08.637.24.844.165.207.413.31.745.31.336 0 .582-.103.738-.31.156-.207.234-.488.234-.844 0-.789-.324-1.183-.972-1.183-.657 0-.985.394-.985 1.183zm11.538 4.407h-1.788v-3.826c0-.473-.084-.827-.252-1.061-.167-.238-.435-.357-.802-.357-.5 0-.862.168-1.084.503-.223.333-.334.885-.334 1.659v3.082h-1.787v-6.551h1.365l.24.838h.1c.199-.316.472-.555.82-.715.352-.164.75-.246 1.195-.246.762 0 1.34.207 1.735.621.394.41.592 1.004.592 1.781v4.272zm6 0l-.346-.89h-.047c-.3.378-.611.642-.932.79-.316.145-.73.217-1.242.217-.629 0-1.125-.18-1.488-.54-.36-.358-.54-.87-.54-1.534 0-.696.243-1.207.727-1.535.489-.332 1.223-.516 2.203-.551l1.137-.035v-.287c0-.665-.34-.997-1.02-.997-.523 0-1.138.159-1.845.475l-.592-1.207c.754-.394 1.59-.592 2.508-.592.879 0 1.553.192 2.021.574.47.383.703.965.703 1.746v4.366H41.98zm-.528-3.035l-.691.023c-.52.016-.907.11-1.16.281-.254.172-.381.434-.381.785 0 .504.289.756.867.756.414 0 .744-.119.99-.357.25-.238.375-.555.375-.95v-.538zm6.381 1.728c.313 0 .688-.068 1.125-.205v1.33c-.445.2-.992.299-1.64.299-.715 0-1.237-.18-1.565-.54-.324-.362-.486-.905-.486-1.628v-3.158h-.856v-.756l.984-.598.516-1.383h1.143v1.395h1.834v1.342h-1.834v3.158c0 .254.07.441.21.563.145.12.335.181.569.181zm7.096 1.307l-.24-.838h-.094a1.904 1.904 0 01-.815.709 2.809 2.809 0 01-1.2.246c-.77 0-1.35-.205-1.741-.615-.39-.414-.586-1.008-.586-1.781v-4.272h1.787v3.826c0 .473.084.828.252 1.067.168.234.435.351.803.351.5 0 .861-.166 1.084-.498.222-.336.334-.89.334-1.664v-3.082H56.3v6.55h-1.371zm6.902-6.674c.242 0 .443.018.604.053l-.135 1.675a2.05 2.05 0 00-.527-.058c-.57 0-1.016.146-1.337.44-.316.292-.474.702-.474 1.23v3.334h-1.787v-6.551h1.353l.264 1.101h.088c.203-.367.476-.662.82-.884a2.03 2.03 0 011.131-.34zm4.506 1.271c-.379 0-.676.121-.89.364-.216.238-.339.578-.37 1.02h2.508c-.008-.442-.123-.782-.346-1.02-.222-.243-.523-.364-.902-.364zm.252 5.52c-1.055 0-1.879-.291-2.473-.873-.593-.582-.89-1.406-.89-2.473 0-1.097.273-1.945.82-2.543.55-.601 1.31-.902 2.28-.902.925 0 1.646.264 2.161.79.516.528.774 1.257.774 2.187v.867h-4.225c.02.508.17.904.451 1.19.282.284.676.427 1.184.427a4.92 4.92 0 001.119-.123 5.596 5.596 0 001.102-.393v1.383a4.112 4.112 0 01-1.002.346 6.165 6.165 0 01-1.301.117z" fill="#414141"/><path d="M187.594 13.995c-.536 0-.958.19-1.266.57-.307.38-.46.905-.46 1.575 0 .7.147 1.23.441 1.59.297.359.725.539 1.285.539.242 0 .477-.024.703-.07a8.61 8.61 0 00.707-.188v.8c-.448.17-.955.254-1.523.254-.836 0-1.478-.252-1.926-.757-.448-.508-.672-1.233-.672-2.176 0-.594.108-1.113.324-1.559a2.34 2.34 0 01.946-1.023c.411-.237.894-.356 1.449-.356.583 0 1.122.123 1.617.367l-.336.778a4.773 4.773 0 00-.613-.238 2.15 2.15 0 00-.676-.106zm6.344 4.992h-.922v-2.656c0-.333-.068-.582-.203-.746-.133-.164-.345-.246-.637-.246-.385 0-.669.116-.851.348-.18.229-.27.614-.27 1.156v2.144h-.918V12.91h.918v1.543c0 .248-.016.512-.047.793h.059c.125-.208.298-.37.519-.484a1.69 1.69 0 01.782-.172c1.046 0 1.57.527 1.57 1.582v2.816zm3.98 0l-.183-.601h-.032c-.208.263-.418.442-.628.539-.211.094-.482.14-.813.14-.424 0-.756-.114-.996-.343-.237-.23-.356-.554-.356-.973 0-.445.166-.781.497-1.008.33-.226.834-.35 1.511-.37l.746-.024v-.23c0-.277-.065-.483-.195-.618-.128-.138-.327-.207-.598-.207a2.07 2.07 0 00-.636.098 4.804 4.804 0 00-.586.23l-.297-.656c.234-.123.491-.215.769-.277a3.43 3.43 0 01.789-.098c.55 0 .964.12 1.243.36.281.239.422.615.422 1.128v2.91h-.657zm-1.367-.625c.333 0 .6-.092.801-.277.203-.188.305-.45.305-.785v-.375l-.555.023c-.432.016-.748.089-.945.219-.196.128-.293.324-.293.59 0 .192.057.342.171.45.115.103.287.155.516.155zm7.106.625h-.922v-2.656c0-.333-.068-.582-.203-.746-.133-.164-.345-.246-.637-.246-.388 0-.672.114-.852.344-.179.229-.269.613-.269 1.152v2.152h-.918v-4.32h.719l.128.566h.047c.131-.205.315-.364.555-.476a1.86 1.86 0 01.797-.168c1.036 0 1.555.527 1.555 1.582v2.816zm4.925-4.32v.504l-.738.137a1.332 1.332 0 01.234.758c0 .445-.153.795-.46 1.05-.308.255-.731.383-1.27.383-.138 0-.263-.01-.375-.031-.198.122-.297.265-.297.43a.24.24 0 00.137.222c.094.05.264.074.512.074h.753c.477 0 .839.102 1.086.305.248.203.371.496.371.879 0 .49-.201.867-.605 1.133-.404.265-.987.398-1.75.398-.589 0-1.038-.104-1.348-.312-.31-.209-.464-.506-.464-.89a.96.96 0 01.25-.673c.169-.18.404-.304.707-.375a.706.706 0 01-.305-.25.653.653 0 01-.117-.367.63.63 0 01.136-.41c.092-.112.227-.223.407-.332a1.215 1.215 0 01-.547-.469 1.405 1.405 0 01-.207-.766c0-.468.147-.832.441-1.09.297-.257.719-.386 1.266-.386.122 0 .25.009.383.027.135.016.237.033.304.051h1.496zm-3.394 4.992c0 .198.088.35.265.457.18.107.431.16.754.16.5 0 .873-.071 1.118-.215.244-.143.367-.333.367-.57 0-.187-.068-.321-.203-.402-.133-.078-.382-.117-.746-.117h-.696c-.263 0-.472.06-.629.183a.617.617 0 00-.23.504zm.394-3.594c0 .271.069.48.207.625.141.146.342.22.602.22.531 0 .797-.285.797-.852 0-.282-.067-.498-.199-.649-.131-.154-.33-.23-.598-.23-.266 0-.467.075-.606.226-.135.151-.203.371-.203.66zm5.692 3c-.672 0-1.198-.195-1.578-.585-.378-.394-.567-.934-.567-1.622 0-.705.176-1.26.528-1.664.351-.403.834-.605 1.449-.605.57 0 1.021.173 1.351.52.331.346.496.822.496 1.43v.495h-2.878c.013.42.126.742.339.969.214.224.515.336.903.336.255 0 .492-.024.711-.07.221-.05.458-.13.711-.243v.747a2.824 2.824 0 01-.68.226 4.164 4.164 0 01-.785.066zm-.168-3.78c-.292 0-.526.092-.703.277-.175.184-.279.454-.313.808h1.961c-.005-.357-.091-.626-.258-.809-.166-.184-.396-.277-.687-.277zm8.359 2.151c0 .508-.183.907-.551 1.196-.367.289-.873.433-1.519.433-.646 0-1.175-.1-1.586-.3v-.883c.26.122.536.219.828.289.294.07.568.105.82.105.37 0 .642-.07.817-.21a.686.686 0 00.265-.567.708.708 0 00-.242-.543c-.161-.148-.495-.324-1-.527-.521-.211-.888-.452-1.101-.723a1.527 1.527 0 01-.321-.976c0-.477.17-.852.508-1.126.339-.273.793-.41 1.363-.41.547 0 1.092.12 1.633.36l-.297.761c-.507-.213-.961-.32-1.359-.32-.302 0-.531.067-.688.2a.643.643 0 00-.234.519.74.74 0 00.094.383.963.963 0 00.308.297c.144.093.401.217.774.37.419.175.726.338.922.489.195.151.338.322.429.512.092.19.137.414.137.671zm2.617.887c.224 0 .448-.035.672-.105v.691a1.87 1.87 0 01-.394.11 2.576 2.576 0 01-.496.046c-.87 0-1.305-.458-1.305-1.375v-2.328h-.59v-.406l.633-.336.312-.914h.567v.961h1.23v.695h-1.23v2.313c0 .221.054.385.164.492a.616.616 0 00.437.156zm.883-3.656h1l.879 2.45c.133.348.221.676.266.984h.031c.023-.144.066-.317.129-.52.062-.206.393-1.177.992-2.914h.992l-1.847 4.894c-.336.899-.896 1.348-1.68 1.348-.203 0-.401-.022-.594-.066v-.727c.138.032.296.047.473.047.443 0 .754-.256.933-.77l.161-.406-1.735-4.32zm5.863 4.32h-.918V12.91h.918v6.078zm3.204.078c-.672 0-1.198-.195-1.579-.585-.377-.394-.566-.934-.566-1.622 0-.705.176-1.26.527-1.664.352-.403.835-.605 1.45-.605.57 0 1.02.173 1.351.52.331.346.496.822.496 1.43v.495h-2.879c.013.42.127.742.34.969.214.224.515.336.903.336.255 0 .492-.024.71-.07.222-.05.459-.13.711-.243v.747c-.224.106-.45.182-.679.226a4.164 4.164 0 01-.785.066zm-.168-3.78c-.292 0-.526.092-.704.277-.174.184-.278.454-.312.808h1.961c-.005-.357-.091-.626-.258-.809-.167-.184-.396-.277-.687-.277z" fill="#0777CF"/><rect x="12.183" y="28.547" width="222.635" height="88.274" rx="3.75" stroke="#ABB5BE" stroke-width=".5" stroke-dasharray="2.22 2.22"/><path d="M45.957 68.82c0 .446-.059.856-.176 1.23-.117.376-.27.735-.457 1.079-.18.344-.375.683-.586 1.02-.21.335-.41.69-.597 1.066-.047 0-.082.012-.106.035a.512.512 0 00-.047.094.265.265 0 01-.047.094c-.015.023-.047.035-.093.035a2.49 2.49 0 01-.27.492c-.11.148-.226.297-.351.445-.118.14-.235.285-.352.434-.11.148-.207.308-.293.48h-.117a9.616 9.616 0 01-1.43 1.64 10.9 10.9 0 01-1.722 1.302.294.294 0 01-.07.117c-.032.031-.04.074-.024.129a.821.821 0 00-.223.175l-.164.235a2.433 2.433 0 01-.176.222.499.499 0 01-.222.176 6.246 6.246 0 00-.657-.093h-.14a.357.357 0 01-.13 0 .455.455 0 01-.222-.106c-.054-.047-.137-.07-.246-.07a.557.557 0 00-.129.011 3.583 3.583 0 00-.222-.34.611.611 0 01-.118-.363c0-.101.012-.195.035-.28a.784.784 0 00.047-.27 1.5 1.5 0 00-.105-.551 1.666 1.666 0 01-.094-.551c0-.063.008-.121.024-.176a.77.77 0 00.023-.187.244.244 0 00-.094-.188.37.37 0 01.047-.117.246.246 0 00.035-.129.562.562 0 00.012-.2 2.142 2.142 0 01-.012-.21c0-.164.008-.328.024-.492a1.98 1.98 0 01.105-.48.618.618 0 00-.035-.13l-.047-.117a2.3 2.3 0 00.106-.55 8.31 8.31 0 00.023-.61V72.5c0-.203.012-.394.035-.574l.047-.223a.776.776 0 00.035-.222.363.363 0 00-.035-.165.612.612 0 00-.094-.152c.055-.016.086-.047.094-.094a.978.978 0 00.012-.14c0-.11-.02-.23-.059-.364a2.33 2.33 0 00.059-.398 10.11 10.11 0 00-.082-1.793c-.055-.453-.09-.91-.106-1.371h-.035a.21.21 0 00-.129.035.88.88 0 00-.093.082 1.238 1.238 0 01-.106.07.273.273 0 01-.14.012c-.094.11-.204.203-.329.281a2.908 2.908 0 01-.375.211c-.133.063-.27.121-.41.176a14.7 14.7 0 00-.398.14.686.686 0 01-.282-.187 7.011 7.011 0 01-.222-.281.386.386 0 01-.012-.094v-.093c0-.22.05-.383.152-.493.102-.117.211-.254.328-.41h.06c.038 0 .073.008.105.024a.167.167 0 00.093.023h.035a3.02 3.02 0 01.715-.445c.258-.118.524-.207.797-.27a1.51 1.51 0 01.352-.27.957.957 0 01.562-.081c.055 0 .102.004.14.011.321-.148.622-.273.903-.375.29-.11.621-.164.996-.164.047 0 .078-.012.094-.035a.466.466 0 00.059-.07.74.74 0 01.047-.082c.015-.024.043-.035.082-.035 0 .015.004.039.011.07.008.031.028.047.059.047a.144.144 0 00.082-.024.172.172 0 01.105-.035c.04 0 .067.027.082.082.086-.055.168-.105.246-.152a.941.941 0 01.258-.106c.117.024.235.043.352.059a3.025 3.025 0 00.656.012.482.482 0 00.246-.118c.032-.007.047.008.047.047.07.063.145.106.223.13.078.015.16.027.246.035.086 0 .172.003.258.011a.497.497 0 01.234.082.32.32 0 01.152.082c.04.031.09.059.153.082.047.016.11.028.187.035a.463.463 0 01.188.047c.039.016.058.043.058.082.008.032.032.059.07.082.071.055.165.09.282.106a.572.572 0 01.305.105c.03.172.117.286.257.34.141.055.278.11.41.164a.163.163 0 01.047.164c.094.07.176.149.246.235.079.086.149.18.212.28.07.095.136.188.199.282.062.094.136.18.222.258-.008.07 0 .125.024.164.031.04.039.098.023.176.094.086.18.199.258.34a.414.414 0 00-.07.234.81.81 0 00.035.234.813.813 0 01.035.235v.27zm-1.09-.257c0-.227-.043-.446-.129-.657a7.87 7.87 0 01-.222-.644c-.102 0-.168-.035-.2-.106a.392.392 0 00-.14-.199c-.149-.031-.242-.144-.282-.34a8.165 8.165 0 01-.48-.21 1.123 1.123 0 01-.41-.329 102.58 102.58 0 00-.856-.258 2.726 2.726 0 00-.867-.14.93.93 0 00-.152.011h-.117a.629.629 0 00-.2.036.632.632 0 01-.199.035.378.378 0 01-.21-.07 2.14 2.14 0 01-.516.199c-.18.046-.364.09-.551.128a4.359 4.359 0 00-.55.13c-.18.046-.34.12-.481.222a.942.942 0 00-.258-.047.256.256 0 00-.164.047.113.113 0 00-.047.059c0 .023-.004.05-.012.082a.08.08 0 01-.023.058c-.016.016-.047.02-.094.012a.43.43 0 01-.012.106v.105c0 .203.02.406.059.61a2.552 2.552 0 01.059.82c-.008.07-.024.14-.047.21a.789.789 0 01.058.305c.008.11.012.219.012.328 0 .11.004.22.012.328a.78.78 0 00.082.293c-.024.118-.04.235-.047.352a5.288 5.288 0 00-.012.352c0 .273.012.543.035.808.032.266.047.535.047.809 0 .07-.004.144-.012.223 0 .078-.004.156-.011.234-.016.101-.043.2-.082.293a.784.784 0 00-.059.305c0 .07.004.144.012.222.008.07.011.145.011.223a.386.386 0 01-.011.094v.082c-.04.273-.07.55-.094.832-.023.28-.035.558-.035.832a12.801 12.801 0 00.094 1.535.372.372 0 00-.047.187c0 .11.027.22.082.328a.425.425 0 00.246.235c.25-.094.48-.219.691-.375.219-.149.438-.301.657-.457.054-.04.136-.09.246-.153.109-.07.183-.12.222-.152a.53.53 0 00.094-.094 1.43 1.43 0 01.105-.117l.516-.55c.297-.305.59-.614.879-.926.297-.313.57-.645.82-.996.07-.11.141-.215.211-.317.07-.11.137-.223.2-.34a.412.412 0 00.07-.129.32.32 0 01.082-.14.882.882 0 01.082-.094.53.53 0 00.094-.094 6.75 6.75 0 00.363-.457c.172-.25.332-.5.48-.75a9.03 9.03 0 01.493-.761c.015-.157.046-.301.093-.434.047-.14.094-.274.14-.399a3.52 3.52 0 00.118-.41c.031-.14.04-.297.024-.469a1 1 0 01.093-.117c.032-.023.047-.07.047-.14v-.2zm11.04.949h-.048a.05.05 0 00-.047 0 .038.038 0 00-.023.035.646.646 0 01.023.129.36.36 0 01-.093.246c-.055.062-.082.117-.082.164 0 .023.011.043.035.058l.07.036a1.024 1.024 0 00-.105.152.66.66 0 01-.106.14c.016.274.047.544.094.81.055.257.082.519.082.784 0 .133-.016.266-.047.399a8.67 8.67 0 01-.082.387l-.094.386a2.089 2.089 0 00-.035.387c-.101.203-.21.398-.328.586-.117.18-.203.379-.258.598-.18.109-.336.246-.468.41l-.376.469a3.06 3.06 0 00-.75.374.543.543 0 01-.105.012h-.094c-.297 0-.55-.055-.761-.164a1.958 1.958 0 01-.551-.422 3 3 0 01-.387-.61c-.11-.226-.21-.46-.305-.702-.18.133-.343.285-.492.457-.14.164-.285.328-.433.492a6.72 6.72 0 01-.176.223.772.772 0 01-.188.175 1.358 1.358 0 01-.105.047.818.818 0 00-.106.036 1.39 1.39 0 00-.515.503 4.836 4.836 0 00-.457.211c-.14.078-.278.16-.41.246a8.37 8.37 0 00-.446.036c-.14.007-.281.011-.422.011a2.13 2.13 0 01-.468-.035.883.883 0 01-.211-.105 3.404 3.404 0 01-.153-.164.801.801 0 00-.28-.2l-.118-.304a.95.95 0 00-.14-.282v-.164c0-.07-.005-.136-.012-.199a.362.362 0 00-.036-.164.175.175 0 00-.117-.105c0-.29.035-.575.106-.856.07-.281.129-.566.175-.855a2.56 2.56 0 00.07-.504.66.66 0 00.013-.13.44.44 0 01.023-.14.247.247 0 01.082-.117.251.251 0 00.082-.14c.04-.11.063-.231.07-.364a5.17 5.17 0 01.035-.375c.04-.234.083-.469.13-.703.054-.234.117-.465.187-.691a.543.543 0 01-.012-.106v-.117c0-.297.02-.586.059-.867.047-.282.07-.57.07-.867 0-.141-.012-.29-.035-.446.039-.078.082-.148.129-.21a.55.55 0 01.21-.165c.165.086.325.18.481.281.164.094.32.2.469.317v.281c0 .227-.008.469-.023.727a6.41 6.41 0 01-.07.762 7.485 7.485 0 01-.13.75 3.348 3.348 0 01-.222.667v.375a2.43 2.43 0 00-.282.786c-.046.273-.101.547-.164.82a1.626 1.626 0 01-.093.305.844.844 0 00-.07.304c0 .04.003.078.011.118a.659.659 0 01.035.117c-.062.14-.097.293-.105.457 0 .156-.02.312-.059.468.063.102.117.211.164.329.055.109.114.222.176.34l.117-.012c.07 0 .145.007.223.023.078.008.152.012.222.012h.118l.117-.024a.514.514 0 01.187-.199c.078-.055.157-.101.235-.14a1.72 1.72 0 00.234-.13.513.513 0 00.188-.199h.164a.686.686 0 01.082-.093c.047-.04.09-.078.129-.118a.595.595 0 00.093-.117c.032-.039.043-.07.035-.093a.717.717 0 00.235-.153c.07-.07.137-.14.2-.21.062-.079.124-.153.187-.223a.822.822 0 01.222-.176.13.13 0 01-.011-.059c0-.07.02-.125.058-.164.047-.039.059-.11.035-.21l.035.011c.04 0 .067-.012.082-.035a.26.26 0 00.036-.082.757.757 0 01.047-.082.15.15 0 01.093-.059v-.023a1 1 0 01.082-.399.879.879 0 00.094-.398.666.666 0 00-.047-.223.512.512 0 00.13-.27c.023-.1.034-.206.034-.316l.024-.328a.778.778 0 01.093-.316c0-.078-.027-.133-.082-.164l.141-.188a.607.607 0 01.164-.152h.023a.36.36 0 01.223.07.91.91 0 01.188.14c.062.048.125.098.187.153a.67.67 0 00.211.106v.257a.328.328 0 01.176.164l-.024.633v.621c0 .313.008.625.024.938.016.304.055.61.117.914l.258.258a.85.85 0 01.21.293h.141c.274 0 .485-.086.633-.258a1.62 1.62 0 00.317-.621.562.562 0 00.258-.223c.062-.101.109-.21.14-.328.04-.117.07-.234.094-.352.031-.125.078-.234.14-.328a3.39 3.39 0 00.012-.28v-.294c0-.453-.023-.902-.07-1.348a19.68 19.68 0 01-.07-1.347.83.83 0 01-.07-.223l-.036-.258a.736.736 0 00-.059-.234.265.265 0 00-.117-.164.984.984 0 00.035-.281c0-.102-.011-.204-.035-.305a4.148 4.148 0 00-.058-.305.971.971 0 00.152-.164c.04-.055.105-.082.2-.082.054 0 .1.016.14.047a.84.84 0 01.129.106c.039.039.078.074.117.105a.29.29 0 00.164.047h.047a.222.222 0 01.07-.012.88.88 0 01.188.293c.054.117.101.242.14.375l.141.375c.055.125.121.238.2.34a.221.221 0 01-.013.07v.059c0 .07.012.14.036.21.023.071.043.141.058.212zm3.28 5.882a.993.993 0 01-.14.176 1.406 1.406 0 00-.152.153.473.473 0 01-.188.035h-.188a.578.578 0 00-.163 0 .159.159 0 00-.118.047.251.251 0 01-.14-.082c-.032-.047-.086-.075-.164-.082a.19.19 0 00-.094 0 4.368 4.368 0 01-.328-.422c-.094-.149-.184-.29-.27-.422a8.505 8.505 0 00-.07-.879c-.008-.07-.02-.14-.035-.211a2.154 2.154 0 01-.035-.2c0-.077.004-.151.011-.222a2.97 2.97 0 00.035-.21c.032-.227.067-.45.106-.669.039-.219.074-.441.105-.668a4.06 4.06 0 00.047-.632 1.86 1.86 0 00-.105-.633l-.012-.059a1.23 1.23 0 01.047-.152.492.492 0 00.047-.153c.015-.086-.004-.148-.059-.187.024-.063.063-.102.117-.117.055-.024.086-.07.094-.14a.19.19 0 000-.095 1.73 1.73 0 01.188-.058.352.352 0 01.199-.012.63.63 0 01.27.106c.078.046.152.101.222.163.125.375.176.774.152 1.196-.023.414-.062.832-.117 1.254-.054.422-.09.836-.105 1.242-.016.398.047.77.187 1.113l.024.012a.086.086 0 00.093-.035c.024-.04.055-.055.094-.047a.215.215 0 00.059.023c.031.157.082.305.152.446.07.14.149.28.234.421zm13.325-4.875a.247.247 0 01-.14.153 1.5 1.5 0 01-.2.059.63.63 0 00-.2.082c-.054.03-.09.085-.105.164l-.023.011c-.031 0-.055-.007-.07-.023a.462.462 0 00-.06-.117c-.007-.024-.023-.035-.046-.035a1.44 1.44 0 00-.258.023 1.188 1.188 0 01-.234.023.996.996 0 01-.317-.046.12.12 0 00-.093.105c0 .055-.024.09-.07.105a.377.377 0 01-.141.024.39.39 0 00-.164.012l-.375.093c-.125.032-.25.047-.375.047a.699.699 0 01-.153-.011c-.117.093-.25.164-.398.21-.149.04-.305.079-.469.118a3.496 3.496 0 00-.469.128 1.11 1.11 0 00-.398.258.69.69 0 00-.164-.023.513.513 0 00-.27.07 7.29 7.29 0 01-.246.117.314.314 0 01-.117.024.412.412 0 00-.129.023.142.142 0 00-.094.082.186.186 0 01-.07.094c0 .281.027.563.082.844a4.2 4.2 0 01.082.832v.047a.935.935 0 00.129.375.62.62 0 01.106.34.412.412 0 01-.024.129c.203.046.336.152.398.316.07.156.126.328.165.516.046.18.105.347.175.503.079.157.227.254.446.293a2.576 2.576 0 01.046.481c0 .11-.011.215-.035.316a.682.682 0 01-.14.293 4.332 4.332 0 01-.258.012.708.708 0 00-.246.07 2.178 2.178 0 01-.422-.328 5.255 5.255 0 01-.34-.375l-.305-.422a4.337 4.337 0 00-.328-.422 8.248 8.248 0 01-1.254.211 16.71 16.71 0 01-1.265.047c-.016.016-.04.024-.07.024a.386.386 0 00-.094.011.126.126 0 00-.07.024c-.016.008-.02.027-.012.058a.48.48 0 00-.188-.058.728.728 0 00-.176-.024.59.59 0 00-.117.012.227.227 0 00-.117.035 6.426 6.426 0 01-.867-.222 6.148 6.148 0 00-.844-.246c0-.063-.016-.106-.047-.13a.409.409 0 01-.082-.128 3.158 3.158 0 01-.832-.739c-.219-.289-.308-.64-.27-1.054l-.081-.164c0-.125.027-.215.082-.27a.541.541 0 00-.164-.164c.07-.11.132-.223.187-.34.055-.117.094-.242.117-.375a.537.537 0 00.012-.105c0-.031.008-.067.023-.106a.863.863 0 01.07-.152 1.75 1.75 0 01.071-.164c.125-.266.262-.52.41-.762.156-.25.352-.465.586-.644a.685.685 0 01.117-.328c.063-.094.13-.176.2-.247.078-.078.152-.156.222-.234a.748.748 0 00.176-.281c.156-.133.313-.262.469-.387.164-.125.3-.273.41-.445.14-.047.273-.106.398-.176.125-.078.23-.176.317-.293.187-.016.37-.05.55-.106a2.11 2.11 0 01.586-.081c.086 0 .188.019.305.058.125.031.219.09.281.176a.131.131 0 01.012.058l.012.059.023.047c.016.008.04.008.07 0 0 .172-.019.348-.058.527a.6.6 0 01-.305.399 1.11 1.11 0 00-.761.047c-.125.054-.25.12-.375.199-.118.07-.239.144-.364.222-.125.07-.258.121-.398.153a5.493 5.493 0 01-.047.176.407.407 0 00.012.164.306.306 0 01-.094-.012c-.016-.016-.043-.023-.082-.023-.055 0-.094.03-.117.093a1.202 1.202 0 01-.047.153 1.004 1.004 0 00-.375.27c-.094.109-.184.23-.27.362a3.84 3.84 0 01-.258.364.923.923 0 01-.351.27c-.063.25-.125.495-.188.738a8.35 8.35 0 01-.199.726 1.2 1.2 0 01.035.293c0 .125-.011.238-.035.34.04.062.078.137.117.222l.141.27c.047.094.094.18.14.258a.901.901 0 00.153.176c.086.062.219.12.398.175.18.047.34.13.48.246h.06a.193.193 0 01.058-.011c.094 0 .195.023.305.07.11.047.18.07.21.07.438 0 .915-.027 1.43-.082.516-.062.993-.136 1.43-.222a.922.922 0 00-.023-.492.614.614 0 00-.153-.258v-.352c.008-.117.012-.234.012-.351a8.75 8.75 0 00-.023-.621 2.48 2.48 0 00-.118-.61h-.023a.514.514 0 00-.281.082.472.472 0 01-.246.07.19.19 0 01-.118-.035.885.885 0 01-.34.246 5.294 5.294 0 01-.421.153 9.441 9.441 0 00-.446.129 1.36 1.36 0 00-.386.199.5.5 0 00-.176-.035c-.055 0-.11.004-.164.011a4.089 4.089 0 01-.164.024.666.666 0 01-.246-.528c0-.109.015-.214.047-.316.039-.11.09-.21.152-.305a.269.269 0 01.14-.035l.165-.023a.396.396 0 00.129-.059c.039-.023.062-.066.07-.129.023.024.043.035.058.035a.104.104 0 00.047-.011.104.104 0 01.047-.012c.016 0 .028.008.035.023.016.016.024.032.024.047.336-.18.68-.332 1.031-.457.352-.125.707-.238 1.066-.34a28.51 28.51 0 011.102-.28c.367-.094.73-.196 1.09-.305a.584.584 0 01.176-.106.455.455 0 00.164-.105.395.395 0 00.199.046c.11 0 .226-.019.351-.058a1.31 1.31 0 00.329-.164.34.34 0 00.082.012h.082c.156 0 .3-.024.433-.07.14-.048.278-.11.41-.188h.059c.242 0 .48-.028.715-.082a3.34 3.34 0 01.738-.082c.32 0 .602.082.844.246v.316a.676.676 0 00.047.152zm3.925 1.008a6.545 6.545 0 01-.093.223c-.031.07-.055.148-.07.234a.702.702 0 01-.188.094 2.769 2.769 0 00-.2.059.863.863 0 00-.198.07.267.267 0 00-.13.117 1.682 1.682 0 00-.035.328c0 .133.024.246.07.34a1.02 1.02 0 00-.046.223 2.247 2.247 0 00-.012.222c0 .258.031.516.094.774.062.25.098.504.105.762a.791.791 0 01-.011.129.779.779 0 00-.012.129c0 .163.062.273.187.328a.21.21 0 00-.035.105.52.52 0 00.024.164.33.33 0 01.011.153c.04.078.079.148.118.21a.52.52 0 01.082.211c-.055.11-.121.211-.2.305a.724.724 0 00-.164.328.432.432 0 00-.105-.012.21.21 0 00-.129.036.408.408 0 00-.082.082.463.463 0 01-.059.105.19.19 0 01-.093.082h-.035a.16.16 0 01-.106-.012.221.221 0 00-.07-.011.385.385 0 00-.094.023.667.667 0 01-.129-.281 1.353 1.353 0 01-.035-.305c0-.11.016-.207.047-.293a.496.496 0 01-.164-.316 2.73 2.73 0 00-.059-.352 9.51 9.51 0 00-.223-.844 3.81 3.81 0 01-.14-.843 4.454 4.454 0 01-.012-.317v-.609c0-.102.004-.2.012-.293 0-.07.004-.137.011-.2a.965.965 0 00.024-.21.452.452 0 00-.094-.27 5.314 5.314 0 00-1.582.305 13.21 13.21 0 00-1.476.621c-.032.18-.051.356-.059.527-.008.172-.012.348-.012.528v.515c0 .196.008.36.024.493a.763.763 0 00.34.527c.195.117.39.207.585.27a.873.873 0 01-.07.304c-.039.078-.09.153-.152.223a2.125 2.125 0 01-.188.187c-.07.063-.14.133-.21.211a.654.654 0 00-.188-.082.82.82 0 00-.2-.023l-.21-.024a1.027 1.027 0 01-.211-.046l-.258-.352a5.547 5.547 0 00-.281-.352v-.105c0-.211-.04-.414-.117-.61a3.271 3.271 0 01-.176-.597c.023-.07.039-.14.047-.211a2.25 2.25 0 00.011-.223c0-.156-.007-.308-.023-.457a2.832 2.832 0 01.012-.445h-.059c-.07 0-.144.02-.223.058-.078.032-.156.07-.234.118l-.21.117a.378.378 0 01-.165.047.221.221 0 01-.07-.012.26.26 0 00-.082-.012.296.296 0 00-.14.047 5.069 5.069 0 00-.177.106l-.21.093a.515.515 0 01-.212.047.507.507 0 01-.328-.14.457.457 0 01-.011-.176v-.176a.629.629 0 00-.036-.2.586.586 0 01.223-.234 1.66 1.66 0 01.281-.164 3.85 3.85 0 01.293-.152.85.85 0 00.258-.21h.07c.11 0 .208-.024.293-.071a.606.606 0 01.317-.059c.039-.015.066-.074.082-.175l.047.011a.671.671 0 00.457-.176c.086-.484.156-.972.21-1.464.055-.493.083-.985.083-1.477a.251.251 0 00-.047-.14.728.728 0 01-.024-.176v-.176c0-.086.004-.176.012-.27.008-.094.028-.187.059-.281a.472.472 0 01.246-.07c.101 0 .199.015.293.047.101.023.199.043.293.058.07.07.12.149.152.235a.76.76 0 01.07.27 1.51 1.51 0 010 .269v.257c0 .172.02.34.059.504.04.164.059.325.059.48 0 .04-.016.071-.047.095-.024.015-.035.066-.035.152s.007.176.023.27c.016.093.023.187.023.28 0 .11-.015.223-.046.34a7.24 7.24 0 00-.083.34c.47-.039.95-.097 1.442-.175a6.893 6.893 0 001.406-.375.163.163 0 00.012-.07.854.854 0 00-.012-.141.93.93 0 01-.011-.153.28.28 0 01.093-.222 6.284 6.284 0 01-.082-.657 9.221 9.221 0 01-.023-.656v-.668c0-.219-.004-.437-.012-.656a.37.37 0 01.2-.059c.085 0 .163.024.234.07a.596.596 0 00.27.06c.07 0 .128-.013.175-.036.086.078.145.18.176.305s.058.254.082.386l.07.399c.031.125.09.227.176.305l.012.035c0 .031-.016.055-.047.07-.032.016-.047.047-.047.094v.047c.031.125.055.254.07.386.016.133.028.27.035.41.016.133.035.266.059.399.023.125.066.242.129.352a.804.804 0 01.152-.012c.156 0 .278.055.363.164.094.102.176.207.246.316zm10.84-2.062a.823.823 0 01-.152.281l-.2.246a1.446 1.446 0 00-.163.258.55.55 0 00-.035.305h-.059a.194.194 0 00-.059-.012.426.426 0 00-.293.094.794.794 0 01-.257.14.651.651 0 00-.059-.129.178.178 0 00-.106-.093c-.187.039-.375.07-.562.093-.188.016-.375.04-.563.07a1.577 1.577 0 00-.257.071c-.086.023-.176.047-.27.07a.48.48 0 01-.152.024.578.578 0 00-.164 0c-.188.008-.39.023-.61.047a1.318 1.318 0 00-.585.175 2.852 2.852 0 00-.504-.047c-.188 0-.395.02-.621.06a1.576 1.576 0 00-.587.198.728.728 0 00-.27-.047c-.015 0-.026.004-.034.012h-.035a.49.49 0 00.023.211.358.358 0 00.153.152.816.816 0 00-.047.282c0 .133.007.265.023.398.024.133.035.266.035.399 0 .148-.02.265-.058.351.078.235.117.485.117.75a1.7 1.7 0 01-.024.282c-.008.085-.011.18-.011.28 0 .087.03.157.093.212a.234.234 0 01.094.199.208.208 0 01-.023.094c.11-.024.214-.055.316-.094a.746.746 0 01.317-.07.43.43 0 01.175.035.561.561 0 01.164.094 4.047 4.047 0 00-.023.128v.387c.008.07.015.148.023.235a1.34 1.34 0 01-.222.292.725.725 0 00-.164.329.616.616 0 00-.317.082 1.688 1.688 0 00-.246.164l-.234.164a.492.492 0 01-.258.07c-.117 0-.2-.016-.246-.047a.478.478 0 01-.106-.117 1.262 1.262 0 00-.07-.106c-.016-.03-.055-.043-.117-.035a.855.855 0 00-.094-.28 2.993 2.993 0 00-.152-.27 4.42 4.42 0 00-.153-.258 1.378 1.378 0 01-.105-.281 2.418 2.418 0 01-.059-.633 1.588 1.588 0 00-.105-.633 4.749 4.749 0 00.047-.668c0-.219-.008-.434-.024-.645l-.023-.668a.532.532 0 01-.106-.234 36.136 36.136 0 00-.023-.27.766.766 0 00-.082-.07.178.178 0 01-.047-.094.478.478 0 00-.422.059.363.363 0 01-.199.07.638.638 0 01-.176-.023.596.596 0 00-.164-.023c-.047 0-.074.011-.082.035 0 .015-.016.03-.047.046a.529.529 0 01-.164.047 7.925 7.925 0 01-.293.047l-.305.024a2.829 2.829 0 01-.187.011c-.125 0-.219-.023-.281-.07a4.19 4.19 0 00-.246-.176.384.384 0 00.023-.093.253.253 0 00-.07-.188c-.047-.055-.07-.102-.07-.14 0-.087.035-.153.105-.2.063-.047.098-.12.105-.222a2.78 2.78 0 01.551-.176c.188-.04.38-.07.574-.094.196-.023.387-.05.575-.082.195-.031.386-.082.574-.152l.152.023h.164c.235 0 .465-.023.692-.07a3.11 3.11 0 01.714-.082 1.513 1.513 0 01.375.047c.313-.047.622-.098.926-.153.313-.054.633-.101.961-.14.156-.016.309-.028.457-.035a9.61 9.61 0 00.469-.06.298.298 0 00.117-.034c.032-.024.047-.067.047-.13a.57.57 0 00.235.048c.132 0 .261-.024.386-.07a1.09 1.09 0 01.387-.07.26.26 0 01.082.01h.07c.055 0 .082-.023.082-.07.008-.054.047-.09.118-.105a1.22 1.22 0 01.234-.035l.316-.024a9.94 9.94 0 00.317-.046.543.543 0 00.222-.094l.082-.13a.347.347 0 01.305.188c.07.11.11.23.117.364a.174.174 0 00.13.047 1.29 1.29 0 01.163-.012h.035zm19.559 10.16c0 .086-.02.168-.059.246-.156.086-.32.145-.492.176a2.12 2.12 0 01-.492.059 3.14 3.14 0 01-.258-.012c-.086 0-.164-.008-.234-.024a.291.291 0 01-.082-.047.157.157 0 00-.094-.035.706.706 0 00-.223.035.538.538 0 01-.222.047.232.232 0 01-.118-.035.254.254 0 00-.105-.047.39.39 0 00-.164-.011 1.248 1.248 0 01-.176.011.732.732 0 01-.234-.035.443.443 0 01-.176-.129 3.551 3.551 0 01-.574-.117 7.607 7.607 0 01-.563-.164l-.562-.164a3.527 3.527 0 00-.574-.094.53.53 0 00-.164-.129.25.25 0 01-.141-.129.197.197 0 00-.082.012c-.016.016-.043.023-.082.023a2.28 2.28 0 00-.434-.28 6.267 6.267 0 00-.469-.223 12.87 12.87 0 01-.468-.223 1.803 1.803 0 01-.422-.281h-.059a.206.206 0 01-.164-.047.236.236 0 00-.152-.047c-.04 0-.07.004-.094.012a.357.357 0 00-.105-.153 2.59 2.59 0 00-.153-.117 1.65 1.65 0 01-.14-.105.288.288 0 01-.106-.13 4.178 4.178 0 01-.574-.257 1.702 1.702 0 01-.48-.375.742.742 0 01-.387-.14 1.59 1.59 0 01-.281-.317 2.242 2.242 0 01-.516-.246 16.49 16.49 0 01-.469-.317 3.283 3.283 0 00-.48-.293 1.778 1.778 0 00-.563-.199c-.008-.055-.031-.093-.07-.117a.397.397 0 00-.14-.07 1.095 1.095 0 00-.141-.059.178.178 0 01-.106-.094h-.07a.222.222 0 00-.07-.011.345.345 0 00-.083.011h-.07l.012-.035c0-.031-.012-.05-.035-.058a.364.364 0 00-.07-.024.259.259 0 01-.083-.035c-.023-.016-.035-.05-.035-.105h-.035a.571.571 0 01-.234-.047 1.027 1.027 0 00-.235-.07 1.378 1.378 0 00-.023.246v.21c0 .352.039.723.117 1.114.078.382.2.726.363 1.03.165.063.305.146.422.247.118.102.23.219.34.352a.633.633 0 01-.234.527.774.774 0 01-.551.223.648.648 0 01-.563-.34.344.344 0 00-.128.023.27.27 0 01-.211.024 3.406 3.406 0 00-.235-.352.94.94 0 01-.14-.41.288.288 0 01-.164-.211.4.4 0 00-.13-.246 16.276 16.276 0 00-.128-1.055 7.968 7.968 0 01-.07-1.055c0-.078.003-.156.011-.234l.024-.258a.313.313 0 00-.07-.105.81.81 0 01-.06-.117c-.156.039-.32.078-.492.117a2.683 2.683 0 01-.503.047 2.08 2.08 0 01-.399-.047 1.055 1.055 0 01-.363-.153c-.063-.039-.106-.109-.129-.21a1.05 1.05 0 01-.047-.282c0-.132.023-.265.07-.398.047-.14.11-.262.188-.363a5.589 5.589 0 001.066-.575c.336-.226.664-.472.985-.738a2.36 2.36 0 01.035-.234.85.85 0 00.035-.247.555.555 0 00-.07-.27.238.238 0 00.07-.176.39.39 0 01.059-.21v-.07a.386.386 0 00-.012-.095.155.155 0 00-.035-.093c.054-.305.097-.606.129-.903a9.56 9.56 0 00.046-.937c0-.024.012-.086.036-.188.03-.11.05-.183.058-.222.031-.18.051-.356.059-.528.016-.18.035-.36.058-.539a2.57 2.57 0 01.047-.246c.024-.102.036-.172.036-.21 0-.056-.012-.09-.036-.106a.465.465 0 01-.047-.106c.047-.18.07-.36.07-.539a6.5 6.5 0 01.048-.55c.132-.055.238-.11.316-.165a.59.59 0 01.34-.082h.023a.722.722 0 00.106.27c.055.078.11.16.164.246.062.078.117.156.164.234.047.07.07.14.07.211 0 .133-.011.277-.035.434-.023.156-.043.3-.058.433-.04.352-.075.7-.106 1.043-.031.336-.078.68-.14 1.032.023.109.034.21.034.304 0 .14-.011.281-.035.422a2.626 2.626 0 00-.023.656.857.857 0 00.07.211 1.53 1.53 0 00.715-.433.774.774 0 00.094-.117.642.642 0 01.117-.13c.078-.062.16-.116.246-.163a8.186 8.186 0 00.856-.575c.195-.148.39-.293.585-.433a31.04 31.04 0 001.676-1.313 27.896 27.896 0 001.594-1.453.623.623 0 01.14-.316c.071-.078.133-.172.188-.281.149-.055.277-.137.387-.247a.932.932 0 00.141.036h.152c.055 0 .105.004.152.011a.27.27 0 01.141.035 3.2 3.2 0 00.035.317.536.536 0 00.141.27v.046a.115.115 0 01.011.047.312.312 0 01-.07.211.352.352 0 00-.082.2l-.609.609a5.624 5.624 0 00-.563.656.374.374 0 00-.164.058 1.652 1.652 0 00-.14.106 1.822 1.822 0 01-.13.094.537.537 0 01-.152.07c-.14.188-.3.36-.48.516-.18.148-.364.293-.551.433-.188.14-.375.285-.563.434-.18.14-.347.297-.504.469a3.351 3.351 0 00-.48.28c-.148.102-.27.231-.363.388h-.059a.126.126 0 00-.094.035.166.166 0 01-.093.023c-.422.367-.86.715-1.313 1.043a12.8 12.8 0 00-1.3 1.055v.293c.132.078.277.152.433.222a4.98 4.98 0 01.891.469c.14.086.261.192.363.317a.13.13 0 01.058-.012c.07 0 .126.023.165.07.039.04.105.051.199.035a.392.392 0 00.21.27c.11.055.22.101.329.14.094.094.18.184.258.27a.598.598 0 00.34.152.422.422 0 01.035.106.262.262 0 00.046.105c.149.047.29.114.422.2.141.086.278.175.41.27.133.085.266.17.399.257.14.078.29.14.445.187a.254.254 0 00.13.164c.07.032.124.079.163.141h.211a.617.617 0 00.094.117.252.252 0 01.082.14c.063.016.133.04.21.071a.865.865 0 01.212.094c.023.023.039.05.047.082a.232.232 0 00.07.082c.047.04.117.07.211.094a.768.768 0 01.258.082c.14.078.277.164.41.258.133.101.273.195.422.28l.457.247c.078.039.148.082.211.129.07.047.14.09.211.129.14.062.289.101.445.117.164.023.313.066.445.129.039.023.067.05.082.082.016.039.043.07.082.094a.749.749 0 00.293.082c.133.015.243.043.329.082.109.047.214.09.316.129.109.047.219.101.328.164.234.015.465.043.691.082l.692.117c.226.039.453.074.68.105.234.032.468.043.703.035 0 .016.007.024.023.024a.194.194 0 00.059.012c.054.086.101.171.14.258a.645.645 0 01.059.269zm.187-4.523a.699.699 0 01-.152.292 1.27 1.27 0 01-.246.212 2.5 2.5 0 01-.281.175 2.149 2.149 0 00-.293.164h-.153c-.328 0-.582-.078-.761-.234a1.675 1.675 0 01-.399-.598 4.081 4.081 0 01-.211-.773 5.945 5.945 0 00-.152-.75 1.01 1.01 0 00-.234.281 6.622 6.622 0 01-.2.305 1.506 1.506 0 01-.222.281.6.6 0 01-.317.176 1.32 1.32 0 01-.082.164.672.672 0 00-.047.176 2.515 2.515 0 00-.468.328 18.67 18.67 0 00-.422.386 9.98 9.98 0 01-.434.387c-.14.117-.301.215-.48.293-.008-.008-.024-.011-.047-.011a.491.491 0 00-.258.07.569.569 0 01-.258.058.444.444 0 01-.176-.035 3.827 3.827 0 01-.152-.082.547.547 0 00-.152-.07.436.436 0 00-.176-.012 1.47 1.47 0 00-.316-.387.817.817 0 01-.235-.421 1.988 1.988 0 01-.035-.211 1.24 1.24 0 00-.023-.235 2.934 2.934 0 00-.094-.351c-.04-.125-.07-.25-.094-.375.04-.211.078-.442.117-.692.032-.257.07-.511.118-.761.054-.258.124-.5.21-.727.094-.234.211-.434.352-.598l-.012-.082a.88.88 0 01.071-.351c.046-.11.097-.215.152-.317a2.76 2.76 0 00.141-.304.62.62 0 00.023-.34c.094-.047.191-.086.293-.117.102-.032.207-.047.316-.047.102 0 .196.015.282.047-.016.062.011.101.082.117v.035c0 .164-.02.324-.059.48a5.216 5.216 0 01-.141.47c-.054.148-.109.3-.164.456a3.04 3.04 0 00-.105.457.113.113 0 00-.07.047l-.024.07a.144.144 0 01-.035.059c-.016.016-.039.024-.07.024-.047.273-.098.546-.153.82a4.63 4.63 0 00-.07.808c0 .164.016.332.047.504s.09.336.176.493l.047-.012a.31.31 0 01.199.058c.054.04.125.079.211.117.062-.015.121-.035.175-.058.055-.031.079-.082.071-.152a.632.632 0 00.258-.07c.07-.048.132-.098.187-.153l.176-.164a.551.551 0 01.223-.117c0-.047.011-.082.035-.106l.07-.07a.192.192 0 00.047-.07.224.224 0 00.012-.13.377.377 0 00.211-.07.765.765 0 00.14-.128c.047-.055.09-.11.129-.165a.531.531 0 01.152-.14c.055-.117.129-.274.223-.469.102-.195.199-.398.293-.61.102-.21.188-.41.258-.597.078-.195.117-.344.117-.445a.174.174 0 00-.035-.106.156.156 0 01-.012-.105v-.035a1.45 1.45 0 00.164-.258c.055-.094.11-.184.164-.27a1.92 1.92 0 01.2-.234c.07-.07.16-.125.269-.164.125.039.25.066.375.082.133.016.258.047.375.094.008.195.027.422.059.68.031.257.086.476.164.655 0 .102-.004.2-.012.293v.282c0 .156.004.316.012.48.015.164.043.317.082.457a.871.871 0 00-.082.375c0 .18.027.352.082.516.054.156.093.324.117.504a.47.47 0 00.492.199.455.455 0 00.094-.035c.062.07.117.14.164.21.055.063.117.122.187.177zm15.375-.141a.418.418 0 01-.128.27 1.317 1.317 0 01-.223.175.595.595 0 00-.117-.012.446.446 0 00-.106-.011 2.026 2.026 0 00-.691.094c-.211.07-.43.12-.656.152a1.151 1.151 0 01-.223.023.579.579 0 00-.199.012c-.25.04-.516.07-.797.094a15.12 15.12 0 00-.844.094 9.67 9.67 0 00-.832.129 3.769 3.769 0 00-.75.21c-.023-.015-.047-.03-.07-.047a.114.114 0 00-.082-.035.702.702 0 00-.223.035.489.489 0 01-.211.024.94.94 0 01-.258.105 19.1 19.1 0 01-.269.047 1.496 1.496 0 00-.258.047.677.677 0 00-.246.13.525.525 0 00-.235-.048c-.085-.008-.144-.039-.175-.093a1.8 1.8 0 01-.575.163 3.69 3.69 0 01-.597.024 4.157 4.157 0 01-.973-.188 3.816 3.816 0 01-.48-.21.993.993 0 01-.34-.305.757.757 0 01-.117-.258.32.32 0 00-.164-.21c.023-.18.05-.356.082-.528l.093-.528a5.613 5.613 0 00.844-.89c.149-.07.285-.157.41-.258.133-.102.262-.203.387-.305.133-.11.262-.215.387-.316.133-.102.273-.191.422-.27a.32.32 0 01.093-.129c.047-.039.094-.074.141-.105.047-.04.09-.078.129-.117a.412.412 0 00.082-.164c.273-.164.512-.371.715-.621a1.91 1.91 0 00.398-.844.984.984 0 00-.457-.211 3.563 3.563 0 00-.515-.082 5.194 5.194 0 00-.493 0 3.654 3.654 0 01-.504-.012c-.171.055-.351.09-.539.106l-.539.046a3.202 3.202 0 00-.539.07 1.62 1.62 0 00-.504.188.38.38 0 01-.093-.011.263.263 0 00-.082-.012 1.452 1.452 0 00-.704.152c-.218.102-.433.203-.644.305a.177.177 0 00-.024.07c0 .047.008.094.024.14a.25.25 0 01.035.13c-.008.008-.012.015-.012.023s-.004.016-.011.024a.411.411 0 01-.036.105.675.675 0 01-.035.106c-.086.25-.132.496-.14.738a7.442 7.442 0 000 .597c.008.196.008.395 0 .598-.016.25-.055.485-.118.703.04.188.075.387.106.598a8.169 8.169 0 00.281 1.207c.071.188.16.367.27.54-.008.015-.004.026.011.034a.108.108 0 00.047.012h.094c.039 0 .055.016.047.047a.288.288 0 01.035.07.138.138 0 00.047.047c.016.023.016.055 0 .094a1.03 1.03 0 01-.117.433 1.16 1.16 0 00-.129.434 1.07 1.07 0 01-.258.035.67.67 0 01-.351-.117 1.313 1.313 0 01-.282-.235 7.728 7.728 0 01-.246-.28 1.331 1.331 0 00-.258-.258 19.786 19.786 0 01-.164-.727 1.897 1.897 0 00-.246-.68.637.637 0 00.047-.258 1.488 1.488 0 00-.047-.457 1.573 1.573 0 01-.023-.468 1.5 1.5 0 01.023-.258 1.072 1.072 0 000-.645 1.278 1.278 0 01-.035-.386c.008-.063.02-.121.035-.176a.578.578 0 01.094-.164.47.47 0 01-.035-.27c.008-.133.023-.258.047-.375.023-.117.039-.234.047-.351a1.276 1.276 0 00-.047-.352l-.106-.035a.306.306 0 00-.14.035.54.54 0 00-.106.082l-.082.082a.125.125 0 01-.07.024h-.059a.102.102 0 00-.047-.012c-.015 0-.047.016-.093.047-.04.031-.09.066-.153.105a2.077 2.077 0 00-.164.106.554.554 0 01-.129.058.52.52 0 01-.211-.082 2.104 2.104 0 00-.14-.129.601.601 0 00-.129-.117.225.225 0 00-.176-.047.341.341 0 01-.035-.152.564.564 0 010-.164v-.188a.678.678 0 01.223-.246 1.27 1.27 0 01.281-.175l.304-.141a1.3 1.3 0 00.282-.176h.105a.61.61 0 00.363-.082c.11-.063.211-.133.305-.21l.281-.259a1.19 1.19 0 01.329-.199c.085.04.175.074.269.105.094.024.191.04.293.047.102 0 .207-.015.316-.047a.463.463 0 00.258-.175l.094.035h.105a.91.91 0 00.352-.047c.117-.047.23-.101.34-.164.156.008.308 0 .457-.024.156-.03.308-.062.457-.093a9.65 9.65 0 01.457-.082 1.9 1.9 0 01.469-.035c.257.007.511-.016.761-.07.25-.055.504-.075.762-.06.18.008.356.024.527.048.18.015.36.02.54.011.101.047.191.09.269.13a.68.68 0 00.316.023c.25.21.477.457.68.738v.2a2.02 2.02 0 01-.094.527 4.558 4.558 0 01-.199.515 6.85 6.85 0 01-.234.492c-.086.156-.168.313-.246.469-.508.461-1.016.918-1.524 1.371-.508.453-1.031.89-1.57 1.313a.861.861 0 01-.07.21.807.807 0 00-.047.2c0 .039.004.07.012.093a.283.283 0 01.14.094c.047.04.063.094.047.164h.105c.04 0 .059.016.059.047l.188.012c.296.016.593.008.89-.023.297-.032.594-.067.891-.106.304-.039.605-.074.902-.105a8.1 8.1 0 01.891-.07c.07-.024.144-.044.222-.06a.508.508 0 00.211-.093h.036c.054 0 .093.015.117.047a.22.22 0 00.129.058.311.311 0 00.117-.023.95.95 0 01.14-.035c.11-.032.223-.051.34-.059.125-.008.246-.02.364-.035.453-.039.902-.063 1.347-.07a7.104 7.104 0 001.336-.176.32.32 0 00.164.117c.071.016.145.035.223.059.078.015.148.035.211.058a.21.21 0 01.14.14zm6.528-5.496a.81.81 0 01-.153.281l-.199.246a1.48 1.48 0 00-.164.258.548.548 0 00-.035.305h-.059a.19.19 0 00-.058-.012.425.425 0 00-.293.094.805.805 0 01-.258.14.641.641 0 00-.059-.129.175.175 0 00-.105-.093c-.188.039-.375.07-.563.093-.187.016-.375.04-.562.07a1.576 1.576 0 00-.258.071c-.086.023-.176.047-.269.07a.483.483 0 01-.153.024.578.578 0 00-.164 0 9.41 9.41 0 00-.609.047 1.318 1.318 0 00-.586.175 2.855 2.855 0 00-.504-.047c-.187 0-.395.02-.621.06a1.576 1.576 0 00-.586.198.73.73 0 00-.27-.047c-.015 0-.027.004-.035.012h-.035a.48.48 0 00.024.211.357.357 0 00.152.152.824.824 0 00-.047.282c0 .133.008.265.023.398.024.133.036.266.036.399 0 .148-.02.265-.059.351.078.235.117.485.117.75 0 .094-.008.188-.023.282-.008.085-.012.18-.012.28 0 .087.031.157.094.212a.236.236 0 01.07.293c.109-.024.215-.055.317-.094a.744.744 0 01.316-.07.57.57 0 01.34.129 3.955 3.955 0 00-.024.128v.387l.024.235a1.376 1.376 0 01-.223.292.723.723 0 00-.164.329.613.613 0 00-.316.082 1.677 1.677 0 00-.246.164l-.235.164a.491.491 0 01-.258.07c-.117 0-.199-.016-.246-.047a.464.464 0 01-.105-.117 1.237 1.237 0 00-.071-.106c-.015-.03-.054-.043-.117-.035a.858.858 0 00-.093-.28 2.95 2.95 0 00-.153-.27 4.301 4.301 0 00-.152-.258 1.405 1.405 0 01-.106-.281 2.448 2.448 0 01-.058-.633 1.586 1.586 0 00-.106-.633 4.995 4.995 0 00.047-.668c0-.219-.008-.434-.023-.645l-.024-.668a.543.543 0 01-.105-.234 35.253 35.253 0 00-.024-.27.663.663 0 00-.082-.07.175.175 0 01-.046-.094.478.478 0 00-.422.059.366.366 0 01-.2.07.632.632 0 01-.175-.023.6.6 0 00-.164-.023c-.047 0-.075.011-.082.035 0 .015-.016.03-.047.046a.534.534 0 01-.164.047 8.063 8.063 0 01-.293.047l-.305.024a2.822 2.822 0 01-.188.011.466.466 0 01-.281-.07 3.993 3.993 0 00-.246-.176.376.376 0 00.024-.093.253.253 0 00-.071-.188c-.047-.055-.07-.102-.07-.14 0-.087.035-.153.105-.2.063-.047.098-.12.106-.222a2.81 2.81 0 01.551-.176c.187-.04.379-.07.574-.094.195-.023.387-.05.574-.082.195-.031.387-.082.574-.152l.153.023h.164c.234 0 .465-.023.691-.07.234-.055.473-.082.715-.082a1.505 1.505 0 01.375.047c.312-.047.621-.098.926-.153.312-.054.633-.101.961-.14.156-.016.308-.028.457-.035.156-.016.312-.036.468-.06a.304.304 0 00.118-.034c.031-.024.047-.067.047-.13.07.032.148.048.234.048.133 0 .262-.024.387-.07.125-.047.254-.07.386-.07.032 0 .059.003.082.01h.071c.054 0 .082-.023.082-.07.008-.054.047-.09.117-.105.055-.016.133-.027.234-.035l.317-.024c.117-.015.222-.03.316-.046a.543.543 0 00.223-.094l.082-.13c.14.009.242.071.304.188.071.11.11.23.118.364a.174.174 0 00.129.047c.062-.008.117-.012.164-.012h.035zm12.75 7.101a.95.95 0 01-.012.176.217.217 0 00-.094.07c-.023.024-.062.032-.117.024a.58.58 0 01-.117.293 1.777 1.777 0 01-.199.21l-.188.212a.59.59 0 00-.117.293 1.956 1.956 0 00-.352.246c-.109.11-.207.183-.292.222a.861.861 0 01-.2.07c-.07.024-.14.052-.211.083l-.703.316c-.234.11-.48.164-.738.164h-.082a.208.208 0 01-.117.059.944.944 0 01-.141.035.931.931 0 00-.141.035.21.21 0 00-.105.07.82.82 0 00-.281-.046h-.082a3.946 3.946 0 01-.375.07 2.841 2.841 0 01-.375.023c-.235 0-.469-.015-.703-.047a21.614 21.614 0 00-.704-.082 1.367 1.367 0 01-.363-.445 1.13 1.13 0 01-.14-.55c0-.149.031-.29.093-.422a1.3 1.3 0 01.246-.34h.036a.51.51 0 00.21-.047.607.607 0 01.223-.047c.078 0 .141.031.188.094a.57.57 0 01.117.222.999.999 0 01.058.258c.008.094.012.168.012.223a.81.81 0 00.27.07c.101.008.203.012.304.012.102 0 .215-.008.34-.024.125-.007.25-.027.375-.058.133-.024.258-.055.375-.094a1.1 1.1 0 00.317-.152 3.327 3.327 0 001.136-.293c.328-.156.676-.34 1.043-.551a.368.368 0 01.094-.2c.055-.054.082-.132.082-.234a.102.102 0 00-.012-.046v-.06a3.858 3.858 0 00-.492-.515 1.264 1.264 0 00-.644-.293.292.292 0 00-.153-.152 1.924 1.924 0 00-.222-.106 6.483 6.483 0 01-.223-.093.336.336 0 01-.152-.188c-.211-.039-.43-.086-.657-.14a1.278 1.278 0 01-.562-.329 1.423 1.423 0 01-.363-.07 5.926 5.926 0 00-.328-.129 2.52 2.52 0 00-.34-.117 1.148 1.148 0 00-.364-.058.336.336 0 00-.129-.13 1.018 1.018 0 00-.187-.081l-.188-.07a.34.34 0 01-.128-.13.115.115 0 00-.071.047c-.015.024-.043.035-.082.035h-.047a.14.14 0 00-.093-.093c-.047-.024-.075-.067-.082-.13a1.214 1.214 0 01-.387-.081 3.93 3.93 0 01-.317-.153 3.414 3.414 0 00-.293-.175 1.442 1.442 0 00-.339-.13 2.51 2.51 0 01-.223-.199.301.301 0 00-.246-.117.638.638 0 00-.129.024c-.016-.14-.074-.239-.176-.293a2.118 2.118 0 00-.328-.164 1.863 1.863 0 00-.316-.54 3.822 3.822 0 00-.434-.433.355.355 0 00.023-.106.334.334 0 00-.058-.199.626.626 0 00-.129-.152 3.473 3.473 0 01-.164-1.031c0-.469.105-.903.316-1.301.203-.406.528-.711.973-.914a.369.369 0 01.059-.164.313.313 0 00.07-.164c.07 0 .125-.016.164-.047a1.24 1.24 0 00.105-.094 1.62 1.62 0 01.118-.105.294.294 0 01.152-.059c.297-.258.613-.465.949-.621l1.031-.504a.38.38 0 00.176-.176h.071c.078 0 .136-.015.175-.047.047-.039.114-.05.2-.035a.224.224 0 01.117-.094c.054-.015.105-.027.152-.035a.843.843 0 00.152-.058.176.176 0 00.094-.106h.082c.133 0 .262-.02.387-.058a7.56 7.56 0 00.375-.153h.082c.156 0 .301-.027.434-.082.14-.062.289-.105.445-.129a.505.505 0 01.187-.011 1.126 1.126 0 00.328 0 .158.158 0 00.118-.07h.023c.047 0 .074.015.082.046.008.031.031.047.07.047a.59.59 0 00.164-.023.602.602 0 01.165-.024c.234 0 .464.024.691.07.234.047.465.09.691.13.016.093.055.16.118.199.07.039.144.074.222.105v.047c0 .063.016.113.047.152a.432.432 0 01-.164.247 1.351 1.351 0 01-.258.14.195.195 0 01.071.129c.007.055.011.106.011.152v.141l-.058-.012c-.125 0-.188.059-.188.176a.838.838 0 00-.34-.117 2.653 2.653 0 00-.351-.024c-.157 0-.321.008-.492.024-.172.008-.34.004-.504-.012a.586.586 0 01-.235.176.877.877 0 01-.281.047.755.755 0 01-.293-.059.41.41 0 01-.199-.199.286.286 0 00-.106-.024h-.105c-.125 0-.25.016-.375.047a3.55 3.55 0 00-.363.094c-.125.031-.25.067-.375.106-.118.03-.239.05-.364.058a.355.355 0 01-.187.13.358.358 0 00-.188.128 1.382 1.382 0 00-.445.164 3.66 3.66 0 00-.387.235l-.363.246c-.117.078-.25.144-.398.199-.11.117-.211.21-.305.281a1.44 1.44 0 01-.363.188c-.094.03-.149.078-.164.14a.355.355 0 01-.094.188.496.496 0 01-.176.129.37.37 0 00-.164.129.69.69 0 00-.094.199 2.069 2.069 0 01-.14.422.479.479 0 01-.141.164.377.377 0 01-.012.093v.082c0 .11.012.223.035.34.032.11.051.219.059.328.156.274.34.524.551.75.211.22.437.422.679.61.243.187.493.363.75.527.266.164.528.324.786.48a.559.559 0 01.257.036c.079.023.161.039.247.047.093.07.203.125.328.164l.375.117a2.9 2.9 0 01.363.14.781.781 0 01.293.2c.039.007.074.02.105.035a.44.44 0 00.106.012c.047 0 .074-.016.082-.047.351.132.695.28 1.031.445.336.156.692.277 1.067.363.148.125.312.235.492.328.179.094.359.192.539.293.179.094.351.2.515.317.164.11.309.242.434.398.016.149.047.293.094.434.054.133.082.277.082.433zm9.422-1.675a.295.295 0 01-.071.199.62.62 0 01-.152.129 1.3 1.3 0 01-.176.105.741.741 0 00-.152.117.29.29 0 00-.07.118.11.11 0 01-.059.082.304.304 0 01-.152.07 1.95 1.95 0 00-.176.035.634.634 0 00-.164.047.26.26 0 00-.141.105c-.367.04-.73.09-1.09.153a6.213 6.213 0 01-1.09.093c-.07 0-.148.008-.234.024l-.223.023a10.426 10.426 0 01-.972.047c-.227 0-.453-.007-.68-.023a6.302 6.302 0 01-.668-.106.71.71 0 00-.187-.093 9.066 9.066 0 00-.223-.07 1.507 1.507 0 01-.199-.083.304.304 0 01-.141-.14.985.985 0 01-.316-.07 2.402 2.402 0 01-.246-.13 6.28 6.28 0 00-.223-.164 1.238 1.238 0 00-.27-.14 4.826 4.826 0 00-.246-.317.957.957 0 00-.293-.27 2.288 2.288 0 00-.117-.445 6.948 6.948 0 00-.152-.433 4.569 4.569 0 01-.117-.445 1.791 1.791 0 01-.059-.457c0-.11.016-.243.047-.399.031-.156.07-.312.117-.469a3.46 3.46 0 01.188-.457c.07-.14.14-.254.211-.34a.294.294 0 01.082-.058.24.24 0 00.082-.07.975.975 0 01.222-.188c.078-.055.16-.117.246-.187a.309.309 0 00.071-.106.387.387 0 01.093-.105c.024-.016.055-.02.094-.012.047.008.086 0 .117-.023.032-.024.047-.051.047-.082 0-.032.012-.06.035-.083.008-.007.032-.007.071 0h.07c.055 0 .117-.035.188-.105a.671.671 0 01.175-.152.47.47 0 01.164-.059.999.999 0 00.176-.07c.086-.047.168-.082.246-.106.086-.031.172-.066.258-.105a.328.328 0 00.129-.082.356.356 0 01.117-.082.95.95 0 01.223-.047c.086-.016.164-.028.234-.035l.223-.047a.567.567 0 00.211-.117h.094c.14 0 .277-.02.41-.059.132-.039.269-.059.41-.059.039 0 .098.008.176.024a.386.386 0 01.211-.059.84.84 0 01.398.106c.133.062.27.094.41.094h.07a.382.382 0 00.094-.012.464.464 0 00.305.14c.125.008.23.043.316.106a.514.514 0 01.129.164.91.91 0 01.094.2l.07.21c.024.07.055.133.094.188a1.065 1.065 0 01-.352.68c-.187.163-.425.245-.714.245a.991.991 0 01-.282-.035 5.406 5.406 0 01-.199-.093 3.522 3.522 0 00-.176-.094.82.82 0 00-.211-.07c.086-.157.141-.325.165-.504a1.095 1.095 0 00-.258-.082.911.911 0 01-.246-.083 4.537 4.537 0 01-.622.118.95.95 0 00-.55.246 4.005 4.005 0 00-.129-.024.595.595 0 00-.117-.011c-.047 0-.141.035-.282.105a8.172 8.172 0 00-.914.48c-.14.086-.238.145-.293.176a.721.721 0 00-.164.14 3.464 3.464 0 00-.14.177l-.141.164a.439.439 0 01-.176.105.617.617 0 01-.082.223 7.577 7.577 0 01-.129.2 3.56 3.56 0 01-.047.421c-.015.14-.023.281-.023.422v.152c0 .047.008.09.023.13.079.1.141.214.188.339a.461.461 0 00.269.258c.008.031.004.05-.011.058a.148.148 0 00-.024.059.674.674 0 00.176.21c.078.048.156.098.234.153.079.047.153.098.223.153.07.054.125.125.164.21.117 0 .227.02.328.06.11.038.211.081.305.128l.281.129a.728.728 0 00.516.023c.203.063.406.11.609.141.211.023.422.035.633.035.258 0 .516-.016.773-.047.258-.031.516-.058.774-.082.094-.015.184-.023.269-.023.086 0 .172-.008.258-.024a.565.565 0 00.305-.152 1.15 1.15 0 01.293-.188.555.555 0 00.305.082c.132 0 .261-.019.386-.058a1.09 1.09 0 01.387-.07h.059zm7.218-3.364a6.375 6.375 0 01-.093.223 1.01 1.01 0 00-.071.234.694.694 0 01-.187.094 2.65 2.65 0 00-.199.059.866.866 0 00-.2.07.268.268 0 00-.128.117 1.641 1.641 0 00-.036.328c0 .133.024.246.071.34-.024.07-.039.145-.047.223a2.192 2.192 0 00-.012.222c0 .258.031.516.094.774.062.25.097.504.105.762a.884.884 0 01-.011.129.77.77 0 00-.012.129c0 .163.062.273.187.328a.214.214 0 00-.035.105c0 .063.008.117.024.164a.335.335 0 01.011.153c.039.078.078.148.118.21a.525.525 0 01.082.211c-.055.11-.122.211-.2.305a.733.733 0 00-.164.328.426.426 0 00-.105-.012.21.21 0 00-.129.036.403.403 0 00-.082.082.453.453 0 01-.059.105.187.187 0 01-.093.082h-.036a.158.158 0 01-.105-.012.224.224 0 00-.07-.011.382.382 0 00-.094.023.655.655 0 01-.129-.281 1.376 1.376 0 01-.035-.305c0-.11.015-.207.047-.293a.494.494 0 01-.164-.316 2.87 2.87 0 00-.059-.352 9.341 9.341 0 00-.223-.844 3.78 3.78 0 01-.14-.843 4.343 4.343 0 01-.012-.317v-.609c0-.102.004-.2.012-.293 0-.07.004-.137.011-.2a.948.948 0 00.024-.21.449.449 0 00-.094-.27 5.313 5.313 0 00-1.582.305c-.492.172-.984.379-1.476.621-.032.18-.051.356-.059.527-.008.172-.012.348-.012.528v.515c0 .196.008.36.024.493a.764.764 0 00.339.527c.196.117.391.207.586.27a.858.858 0 01-.07.304 1.04 1.04 0 01-.152.223 2.08 2.08 0 01-.188.187c-.07.063-.14.133-.211.211a.652.652 0 00-.187-.082.823.823 0 00-.199-.023 71.518 71.518 0 01-.211-.024 1.01 1.01 0 01-.211-.046l-.258-.352a5.764 5.764 0 00-.281-.352v-.105a1.61 1.61 0 00-.118-.61 3.268 3.268 0 01-.175-.597c.023-.07.039-.14.047-.211a2.25 2.25 0 00.011-.223c0-.156-.007-.308-.023-.457a2.762 2.762 0 01.012-.445h-.059a.5.5 0 00-.223.058c-.078.032-.156.07-.234.118l-.211.117a.376.376 0 01-.164.047.22.22 0 01-.07-.012.263.263 0 00-.082-.012.299.299 0 00-.141.047 5.263 5.263 0 00-.176.106l-.211.093a.512.512 0 01-.211.047.508.508 0 01-.328-.14.487.487 0 01-.012-.176v-.176a.615.615 0 00-.035-.2.587.587 0 01.223-.234c.086-.062.18-.117.281-.164a3.85 3.85 0 01.293-.152.842.842 0 00.258-.21h.07a.6.6 0 00.293-.071.609.609 0 01.317-.059c.039-.015.066-.074.082-.175l.047.011a.673.673 0 00.457-.176c.086-.484.156-.972.211-1.464.054-.493.082-.985.082-1.477a.254.254 0 00-.047-.14.71.71 0 01-.024-.176v-.176c0-.086.004-.176.012-.27.008-.094.027-.187.059-.281a.471.471 0 01.246-.07c.101 0 .199.015.293.047.101.023.199.043.293.058.07.07.121.149.152.235a.79.79 0 01.07.27 1.51 1.51 0 010 .269v.257c0 .172.02.34.059.504.039.164.058.325.058.48 0 .04-.015.071-.046.095-.024.015-.036.066-.036.152s.008.176.024.27c.016.093.023.187.023.28 0 .11-.015.223-.047.34a8.682 8.682 0 00-.082.34c.469-.039.95-.097 1.442-.175a6.888 6.888 0 001.406-.375.16.16 0 00.012-.07.833.833 0 00-.012-.141.908.908 0 01-.012-.153c0-.093.032-.168.094-.222a6.393 6.393 0 01-.082-.657 8.99 8.99 0 01-.023-.656v-.668c0-.219-.004-.437-.012-.656a.369.369 0 01.199-.059c.086 0 .164.024.235.07a.592.592 0 00.269.06.4.4 0 00.176-.036.6.6 0 01.176.305c.031.125.058.254.082.386l.07.399c.031.125.09.227.176.305l.011.035c0 .031-.015.055-.046.07-.032.016-.047.047-.047.094v.047c.031.125.054.254.07.386.016.133.027.27.035.41.016.133.035.266.059.399.023.125.066.242.129.352a.804.804 0 01.152-.012c.156 0 .277.055.363.164.094.102.176.207.246.316zm15.739 3.434a.424.424 0 01-.129.27 1.317 1.317 0 01-.223.175.595.595 0 00-.117-.012.434.434 0 00-.106-.011 2.026 2.026 0 00-.691.094c-.211.07-.43.12-.656.152a1.143 1.143 0 01-.223.023.58.58 0 00-.199.012c-.25.04-.516.07-.797.094-.281.023-.562.055-.844.094a9.73 9.73 0 00-.832.129 3.807 3.807 0 00-.75.21c-.023-.015-.047-.03-.07-.047a.112.112 0 00-.082-.035.706.706 0 00-.223.035.487.487 0 01-.211.024.946.946 0 01-.257.105c-.086.016-.176.032-.27.047a1.496 1.496 0 00-.258.047.677.677 0 00-.246.13.52.52 0 00-.234-.048c-.086-.008-.145-.039-.176-.093-.18.085-.371.14-.574.163a3.707 3.707 0 01-.598.024 4.157 4.157 0 01-.973-.188 3.881 3.881 0 01-.48-.21 1.003 1.003 0 01-.34-.305.757.757 0 01-.117-.258.32.32 0 00-.164-.21c.023-.18.051-.356.082-.528l.094-.528a5.777 5.777 0 00.843-.89 2.01 2.01 0 00.411-.258c.132-.102.261-.203.386-.305.133-.11.262-.215.387-.316.133-.102.273-.191.422-.27a.323.323 0 01.094-.129 1.46 1.46 0 01.14-.105c.047-.04.09-.078.129-.117a.4.4 0 00.082-.164c.274-.164.512-.371.715-.621a1.91 1.91 0 00.398-.844.98.98 0 00-.457-.211 3.563 3.563 0 00-.515-.082 5.173 5.173 0 00-.492 0 3.654 3.654 0 01-.504-.012 2.45 2.45 0 01-.539.106l-.539.046a3.2 3.2 0 00-.54.07 1.588 1.588 0 00-.503.188.382.382 0 01-.094-.011.263.263 0 00-.082-.012 1.445 1.445 0 00-.703.152c-.219.102-.434.203-.645.305a.189.189 0 00-.023.07.46.46 0 00.023.14.24.24 0 01.035.13.032.032 0 00-.011.023c0 .008-.004.016-.012.024a.453.453 0 01-.035.105.98.98 0 01-.035.106c-.086.25-.133.496-.141.738a7.442 7.442 0 000 .597c.008.196.008.395 0 .598a3.36 3.36 0 01-.117.703c.039.188.074.387.105.598a7.737 7.737 0 00.281 1.207c.071.188.161.367.27.54-.008.015-.004.026.012.034a.102.102 0 00.047.012h.093c.039 0 .055.016.047.047a.256.256 0 01.035.07.138.138 0 00.047.047c.016.023.016.055 0 .094-.008.156-.047.3-.117.433s-.113.278-.129.434a1.07 1.07 0 01-.258.035.673.673 0 01-.351-.117 1.284 1.284 0 01-.281-.235 8.879 8.879 0 01-.247-.28 1.355 1.355 0 00-.257-.258 16.99 16.99 0 01-.164-.727 1.88 1.88 0 00-.247-.68.62.62 0 00.047-.258 1.458 1.458 0 00-.047-.457 1.573 1.573 0 01-.023-.468 1.5 1.5 0 01.023-.258c.024-.086.04-.172.047-.258a1.05 1.05 0 00-.047-.387 1.278 1.278 0 01-.035-.386c.008-.063.02-.121.035-.176a.578.578 0 01.094-.164.47.47 0 01-.035-.27c.008-.133.024-.258.047-.375.023-.117.039-.234.047-.351 0-.063-.004-.122-.012-.176a1.143 1.143 0 00-.035-.176l-.106-.035a.312.312 0 00-.14.035.57.57 0 00-.106.082l-.082.082a.125.125 0 01-.07.024h-.059a.1.1 0 00-.046-.012c-.016 0-.047.016-.094.047-.039.031-.09.066-.153.105a2.077 2.077 0 00-.164.106.536.536 0 01-.129.058.515.515 0 01-.21-.082 2.113 2.113 0 00-.141-.129.601.601 0 00-.129-.117.224.224 0 00-.176-.047.341.341 0 01-.035-.152.564.564 0 010-.164v-.188a.678.678 0 01.223-.246c.086-.07.179-.129.281-.175l.305-.141a1.34 1.34 0 00.281-.176h.105a.615.615 0 00.364-.082c.109-.063.211-.133.304-.21l.282-.259c.101-.086.211-.152.328-.199.086.04.176.074.269.105.094.024.192.04.293.047.102 0 .207-.015.317-.047a.464.464 0 00.257-.175l.094.035h.106a.908.908 0 00.351-.047 2.7 2.7 0 00.34-.164c.156.008.309 0 .457-.024.156-.03.309-.062.457-.093a9.65 9.65 0 01.457-.082c.156-.031.313-.043.469-.035.258.007.512-.016.762-.07.25-.055.504-.075.761-.06.18.008.356.024.528.048.179.015.359.02.539.011.101.047.191.09.269.13a.684.684 0 00.317.023c.25.21.476.457.679.738v.2a2.019 2.019 0 01-.093.527 4.567 4.567 0 01-.2.515 6.85 6.85 0 01-.234.492c-.086.156-.168.313-.246.469-.508.461-1.016.918-1.523 1.371a32.58 32.58 0 01-1.571 1.313.821.821 0 01-.07.21.807.807 0 00-.047.2c0 .039.004.07.012.093a.283.283 0 01.14.094c.047.04.063.094.047.164h.106c.039 0 .058.016.058.047l.188.012c.297.016.594.008.89-.023.297-.032.594-.067.891-.106.305-.039.606-.074.902-.105a8.1 8.1 0 01.891-.07c.07-.024.145-.044.223-.06a.52.52 0 00.211-.093h.035c.054 0 .094.015.117.047a.22.22 0 00.129.058.311.311 0 00.117-.023.931.931 0 01.141-.035 1.58 1.58 0 01.34-.059c.125-.008.246-.02.363-.035.453-.039.902-.063 1.347-.07a7.104 7.104 0 001.336-.176.32.32 0 00.164.117c.071.016.145.035.223.059.078.015.149.035.211.058.07.024.117.07.141.14zm3.972.14a.699.699 0 01-.152.293 1.27 1.27 0 01-.246.212 2.5 2.5 0 01-.281.175 2.09 2.09 0 00-.293.164h-.153c-.328 0-.582-.078-.761-.234a1.675 1.675 0 01-.399-.598 4.008 4.008 0 01-.211-.773 6.127 6.127 0 00-.152-.75 1.01 1.01 0 00-.234.281 6.622 6.622 0 01-.2.305 1.506 1.506 0 01-.222.281.6.6 0 01-.317.176c-.023.055-.051.11-.082.164a.672.672 0 00-.047.176 2.483 2.483 0 00-.468.328 18.67 18.67 0 00-.422.386 9.98 9.98 0 01-.434.387 1.992 1.992 0 01-.48.293c-.008-.008-.024-.011-.047-.011a.491.491 0 00-.258.07.569.569 0 01-.258.058.444.444 0 01-.176-.035 3.827 3.827 0 01-.152-.082.547.547 0 00-.152-.07.436.436 0 00-.176-.012 1.477 1.477 0 00-.316-.387.81.81 0 01-.235-.421 2.215 2.215 0 01-.035-.211 1.24 1.24 0 00-.023-.235 3.053 3.053 0 00-.094-.351 3.213 3.213 0 01-.094-.375c.039-.211.078-.442.117-.692.031-.257.071-.511.117-.761.055-.258.125-.5.211-.727.094-.234.211-.434.352-.598l-.012-.082c0-.125.024-.242.07-.351.047-.11.098-.215.153-.317.055-.101.101-.203.14-.304a.611.611 0 00.024-.34c.094-.047.191-.086.293-.117.101-.032.207-.047.316-.047.102 0 .196.015.282.047-.016.062.011.101.082.117v.035c0 .164-.02.324-.059.48a5.216 5.216 0 01-.141.47c-.054.148-.109.3-.164.456a2.941 2.941 0 00-.105.457.118.118 0 00-.071.047l-.023.07a.144.144 0 01-.035.059c-.016.016-.039.024-.07.024-.047.273-.098.546-.153.82a4.63 4.63 0 00-.07.808c0 .164.016.332.047.504s.09.336.176.493l.046-.012c.086 0 .153.02.2.058.054.04.125.079.211.117.062-.015.121-.035.175-.058.055-.031.079-.082.071-.152a.632.632 0 00.258-.07c.07-.048.132-.098.187-.153l.176-.164a.554.554 0 01.222-.117c0-.047.012-.082.036-.106l.07-.07a.192.192 0 00.047-.07.233.233 0 00.012-.13.37.37 0 00.21-.07.74.74 0 00.141-.128c.047-.055.09-.11.129-.165a.531.531 0 01.152-.14c.055-.117.129-.274.223-.469.102-.195.199-.398.293-.61a7.37 7.37 0 00.258-.597c.078-.195.117-.344.117-.445a.174.174 0 00-.035-.106.156.156 0 01-.012-.105v-.035a1.45 1.45 0 00.164-.258c.055-.094.11-.184.164-.27.063-.086.129-.164.199-.234a.725.725 0 01.27-.164c.125.039.25.066.375.082.133.016.258.047.375.094.008.195.027.422.059.68.031.257.085.476.164.655 0 .102-.004.2-.012.293v.282c0 .156.004.316.012.48.015.164.043.317.082.457a.871.871 0 00-.082.375c0 .18.027.352.082.516.054.156.093.324.117.504a.469.469 0 00.492.199.455.455 0 00.094-.035c.062.07.117.14.164.21.055.063.117.122.187.177zm10.477-5.636a.823.823 0 01-.152.281l-.2.246a1.48 1.48 0 00-.164.258.557.557 0 00-.035.305h-.058a.196.196 0 00-.059-.012.425.425 0 00-.293.094.794.794 0 01-.258.14.639.639 0 00-.058-.129.18.18 0 00-.106-.093 6.99 6.99 0 01-.562.093c-.188.016-.375.04-.563.07a1.576 1.576 0 00-.258.071c-.086.023-.176.047-.269.07a.483.483 0 01-.153.024.578.578 0 00-.164 0 9.41 9.41 0 00-.609.047 1.318 1.318 0 00-.586.175 2.855 2.855 0 00-.504-.047c-.187 0-.394.02-.621.06a1.576 1.576 0 00-.586.198.727.727 0 00-.269-.047c-.016 0-.028.004-.036.012h-.035a.48.48 0 00.024.211.357.357 0 00.152.152.824.824 0 00-.047.282c0 .133.008.265.024.398.023.133.035.266.035.399 0 .148-.02.265-.059.351.078.235.117.485.117.75 0 .094-.007.188-.023.282-.008.085-.012.18-.012.28 0 .087.031.157.094.212a.236.236 0 01.07.293c.11-.024.215-.055.317-.094a.744.744 0 01.316-.07.57.57 0 01.34.129 3.955 3.955 0 00-.024.128v.387l.024.235a1.376 1.376 0 01-.223.292.723.723 0 00-.164.329.616.616 0 00-.316.082 1.677 1.677 0 00-.246.164l-.235.164a.491.491 0 01-.258.07c-.117 0-.199-.016-.246-.047a.484.484 0 01-.105-.117 1.238 1.238 0 00-.07-.106c-.016-.03-.055-.043-.118-.035a.835.835 0 00-.093-.28 2.95 2.95 0 00-.153-.27 4.301 4.301 0 00-.152-.258 1.342 1.342 0 01-.105-.281 2.405 2.405 0 01-.059-.633 1.569 1.569 0 00-.106-.633 4.574 4.574 0 00.047-.668c0-.219-.007-.434-.023-.645l-.024-.668a.543.543 0 01-.105-.234l-.023-.27a.853.853 0 00-.082-.07.169.169 0 01-.047-.094.478.478 0 00-.422.059.365.365 0 01-.199.07.634.634 0 01-.176-.023.6.6 0 00-.164-.023c-.047 0-.075.011-.082.035 0 .015-.016.03-.047.046a.534.534 0 01-.164.047 8.063 8.063 0 01-.293.047l-.305.024a2.844 2.844 0 01-.187.011.47.47 0 01-.282-.07 3.993 3.993 0 00-.246-.176.376.376 0 00.024-.093.253.253 0 00-.071-.188c-.046-.055-.07-.102-.07-.14 0-.087.035-.153.106-.2.062-.047.097-.12.105-.222a2.81 2.81 0 01.551-.176c.187-.04.379-.07.574-.094.195-.023.387-.05.574-.082a2.94 2.94 0 00.574-.152l.153.023h.164c.234 0 .465-.023.691-.07.235-.055.473-.082.715-.082a1.52 1.52 0 01.375.047c.313-.047.621-.098.926-.153.312-.054.633-.101.961-.14.156-.016.308-.028.457-.035.156-.016.312-.036.469-.06a.304.304 0 00.117-.034c.031-.024.047-.067.047-.13.07.032.148.048.234.048.133 0 .262-.024.387-.07.125-.047.254-.07.386-.07.032 0 .059.003.082.01h.071c.055 0 .082-.023.082-.07.008-.054.047-.09.117-.105.055-.016.133-.027.234-.035l.317-.024c.117-.015.222-.03.316-.046a.543.543 0 00.223-.094l.082-.13a.347.347 0 01.305.188c.07.11.109.23.117.364a.174.174 0 00.129.047c.062-.008.117-.012.164-.012h.035zm5.777.082v.047c-.054.015-.082.054-.082.117-.086.039-.176.07-.269.094a1.079 1.079 0 00-.27.082 2.985 2.985 0 00-.269-.012 2.855 2.855 0 00-.258-.012c-.235 0-.469.008-.703.024a5.286 5.286 0 01-.703 0c-.11.062-.231.113-.364.152a1.497 1.497 0 01-.363.047.777.777 0 01-.246-.035 3.452 3.452 0 01-.621.234c-.219.063-.442.125-.668.188a5.778 5.778 0 00-.656.199c-.204.07-.383.172-.539.305a4.562 4.562 0 00-.047.632c0 .11.004.211.011.305.016.094.043.188.082.281a.62.62 0 00.129.036c.055.007.102.011.141.011a.595.595 0 00.117-.011.14.14 0 00.082-.083c.117-.015.235-.02.352-.011h.351c.117 0 .231-.004.34-.012.117-.008.231-.027.34-.059.125-.03.246-.05.363-.058l.364-.024a6.34 6.34 0 00.363-.035 1.57 1.57 0 00.387-.129.84.84 0 00.304.059c.11 0 .215.008.317.023a.53.53 0 01.129.13.248.248 0 01.058.163c0 .11-.039.22-.117.328a2.35 2.35 0 00-.188.305h-.128a1.9 1.9 0 00-.551.082 5.222 5.222 0 00-.528.176 10.04 10.04 0 01-.527.176c-.172.047-.352.07-.539.07-.031 0-.051.02-.059.059 0 .03-.007.054-.023.07a.976.976 0 00-.176-.012c-.179 0-.351.02-.515.059a2.17 2.17 0 01-.504.058h-.141l-.141-.023a.3.3 0 01-.152.129.435.435 0 00-.176.094c-.023.07-.039.156-.047.257 0 .102-.003.208-.011.317 0 .101-.008.2-.024.293a.442.442 0 01-.094.223c.008.038.04.054.094.046.055-.015.082.008.082.07 0 .071-.008.145-.023.223a1.166 1.166 0 00-.024.235c0 .148.016.312.047.492.039.172.094.332.164.48.078.149.18.274.305.375a.758.758 0 00.469.141.88.88 0 00.351-.07c.11-.047.2-.125.27-.235l.058-.011c.032 0 .059.004.083.011a.38.38 0 00.093.012c.047 0 .106-.027.176-.082.078-.063.16-.133.246-.211.094-.078.188-.152.281-.223a.928.928 0 01.27-.164c.055-.11.105-.218.152-.328a.624.624 0 01.235-.258v-.34c.078-.085.16-.163.246-.234a.66.66 0 00.211-.27.84.84 0 00.105.036.595.595 0 00.235 0 .628.628 0 00.128-.035c.063.086.11.183.141.293.039.101.086.199.141.293-.071.14-.153.308-.246.504-.094.195-.196.39-.305.585a6.725 6.725 0 01-.352.563 1.815 1.815 0 01-.351.398.503.503 0 01-.153.082 8.446 8.446 0 00-.234.176c-.07.063-.137.133-.199.211-.227.07-.446.164-.656.281-.204.117-.407.23-.61.34a1.254 1.254 0 00-.304-.035c-.094 0-.188.004-.282.012a1.856 1.856 0 01-.304.023.256.256 0 00-.141-.082c-.055-.008-.074-.047-.059-.117-.265-.016-.48-.09-.644-.223a1.741 1.741 0 01-.422-.468 3.134 3.134 0 01-.27-.61c-.07-.219-.144-.43-.222-.633v-.035c0-.039.015-.062.047-.07.031-.008.047-.031.047-.07 0-.016-.004-.028-.012-.036-.024-.085-.043-.16-.059-.222a.962.962 0 01-.023-.223c0-.125.008-.246.023-.363a2.95 2.95 0 00.024-.375c0-.125-.016-.234-.047-.328a.576.576 0 00.082-.153 2.204 2.204 0 00.047-.421 1.05 1.05 0 01.035-.188l-.082-.223a.763.763 0 01-.035-.246v-.082a2.92 2.92 0 00.199-.41c.055-.14.113-.285.176-.433v-.036c0-.226-.008-.453-.024-.68a10.285 10.285 0 01-.023-.68v-.222c0-.078.004-.152.011-.222a.32.32 0 00.141-.13.32.32 0 01.141-.128h.386l.071-.117a.377.377 0 00.047-.13c.086-.023.168-.054.246-.093.086-.047.164-.094.234-.14.109-.063.207-.118.293-.165a1.68 1.68 0 01.27-.129c.093-.039.191-.07.293-.093a3.27 3.27 0 01.351-.059c.063 0 .102-.012.117-.035a1.34 1.34 0 01.094-.082l.281.047c.094.007.188.011.282.011.187 0 .363-.035.527-.105.234 0 .465-.004.691-.012.235-.008.469-.012.703-.012.204 0 .407.008.61.024s.402.043.597.082a.746.746 0 01.235-.035c.094 0 .187.012.281.035a.923.923 0 00.293 0 .61.61 0 00.059.223.334.334 0 01.058.199zm7.735 8.039a.513.513 0 01-.129.34c-.086.101-.16.199-.223.293a.856.856 0 01-.316.094 1.777 1.777 0 00-.305.081.272.272 0 00-.129.083.394.394 0 01-.187-.083.657.657 0 00-.188-.082 1.213 1.213 0 00-.34-.058c-.133-.008-.23-.047-.293-.117a1.392 1.392 0 01-.281-.434 4.171 4.171 0 01-.176-.574 8.96 8.96 0 01-.094-.598 6.09 6.09 0 01.024-1.277 5.34 5.34 0 01.141-.727v-.152a.482.482 0 00.011-.106.246.246 0 00-.011-.07c0-.023-.012-.043-.036-.058.102-.258.176-.524.223-.797.047-.274.082-.547.105-.82l.094-.833c.039-.28.094-.554.164-.82l-.023-.152v-.153c0-.14.015-.277.047-.41.031-.14.051-.285.058-.433a.415.415 0 000-.141 1.29 1.29 0 01-.011-.164c0-.344.015-.68.047-1.008.039-.328.058-.66.058-.996 0-.18-.016-.352-.047-.516a3.883 3.883 0 01-.035-.515c0-.078.004-.152.012-.223a.486.486 0 01.07-.21 1.05 1.05 0 01.609-.177c.172 0 .321.047.446.141a.16.16 0 00-.012.07c0 .04.004.075.012.106a.428.428 0 01.011.105v.047a.101.101 0 01-.011.047c.054.094.09.195.105.305.024.101.035.207.035.316 0 .102-.003.203-.011.305a3.449 3.449 0 00-.012.293v.422c.008.14.012.28.012.422 0 .375-.02.746-.059 1.113-.031.36-.055.726-.07 1.101a5.39 5.39 0 01-.129.938 7.165 7.165 0 00-.129.926 1.475 1.475 0 00-.012.187 1.476 1.476 0 01-.093.727 1.427 1.427 0 00-.106.55c0 .094.016.176.047.247-.047.125-.09.273-.129.445l-.094.539c-.023.18-.043.36-.058.54a4.992 4.992 0 00-.024.456c0 .188.024.379.071.574.046.188.125.36.234.516a.984.984 0 00.281.035c.11 0 .219.004.328.012.11.008.211.027.305.058a.356.356 0 01.211.188.102.102 0 01.012.047v.035zm4.488 0a.513.513 0 01-.129.34c-.086.101-.16.199-.223.293a.85.85 0 01-.316.094 1.802 1.802 0 00-.305.081.272.272 0 00-.129.083.394.394 0 01-.187-.083.657.657 0 00-.188-.082 1.212 1.212 0 00-.339-.058c-.133-.008-.231-.047-.293-.117a1.376 1.376 0 01-.282-.434 4.037 4.037 0 01-.175-.574 7.825 7.825 0 01-.094-.598 6.09 6.09 0 01.023-1.277 5.34 5.34 0 01.141-.727v-.152a.426.426 0 00.012-.106.217.217 0 00-.012-.07c0-.023-.012-.043-.035-.058.101-.258.175-.524.222-.797.047-.274.082-.547.106-.82.031-.282.062-.56.094-.833a6.78 6.78 0 01.164-.82 6.602 6.602 0 01-.024-.152v-.153c0-.14.016-.277.047-.41a2.68 2.68 0 00.059-.433.474.474 0 000-.141 1.131 1.131 0 01-.012-.164c0-.344.016-.68.047-1.008.039-.328.058-.66.058-.996 0-.18-.015-.352-.046-.516a3.723 3.723 0 01-.036-.515c0-.078.004-.152.012-.223a.486.486 0 01.07-.21c.172-.118.375-.177.61-.177a.72.72 0 01.445.141.16.16 0 00-.012.07c0 .04.004.075.012.106a.426.426 0 01.012.105v.047a.102.102 0 01-.012.047c.055.094.09.195.106.305.023.101.035.207.035.316 0 .102-.004.203-.012.305a3.449 3.449 0 00-.012.293v.422c.008.14.012.28.012.422 0 .375-.02.746-.059 1.113-.031.36-.054.726-.07 1.101a5.39 5.39 0 01-.129.938 7.53 7.53 0 00-.14 1.113 1.484 1.484 0 01-.094.727 1.427 1.427 0 00-.106.55c0 .094.016.176.047.247-.047.125-.09.273-.129.445a37.6 37.6 0 00-.093.539c-.024.18-.043.36-.059.54a4.992 4.992 0 00-.024.456c0 .188.024.379.071.574.047.188.125.36.234.516a.984.984 0 00.281.035c.11 0 .219.004.329.012.109.008.211.027.304.058a.356.356 0 01.211.188.102.102 0 01.012.047v.035zm4.488 0a.513.513 0 01-.129.34 3.02 3.02 0 00-.222.293.86.86 0 01-.317.094 1.768 1.768 0 00-.304.081.268.268 0 00-.129.083.397.397 0 01-.188-.083.652.652 0 00-.187-.082 1.22 1.22 0 00-.34-.058c-.133-.008-.231-.047-.293-.117a1.375 1.375 0 01-.281-.434 4.038 4.038 0 01-.176-.574 8.354 8.354 0 01-.094-.598 6.088 6.088 0 01.023-1.277c.032-.25.079-.492.141-.727v-.152a.426.426 0 00.012-.106.217.217 0 00-.012-.07c0-.023-.012-.043-.035-.058a4.07 4.07 0 00.223-.797 10 10 0 00.105-.82l.094-.833c.039-.28.094-.554.164-.82a6.602 6.602 0 01-.024-.152v-.153c0-.14.016-.277.047-.41.032-.14.051-.285.059-.433a.415.415 0 000-.141 1.131 1.131 0 01-.012-.164c0-.344.016-.68.047-1.008.039-.328.059-.66.059-.996 0-.18-.016-.352-.047-.516a3.721 3.721 0 01-.035-.515c0-.078.004-.152.011-.223a.487.487 0 01.071-.21 1.05 1.05 0 01.609-.177.72.72 0 01.445.141.178.178 0 00-.011.07c0 .04.004.075.011.106a.426.426 0 01.012.105v.047a.102.102 0 01-.012.047c.055.094.09.195.106.305.023.101.035.207.035.316 0 .102-.004.203-.012.305a3.458 3.458 0 00-.011.293v.422a10.53 10.53 0 01-.047 1.535c-.032.36-.055.726-.071 1.101-.015.32-.058.633-.129.938a7.341 7.341 0 00-.128.926 1.475 1.475 0 00-.012.187 1.477 1.477 0 01-.094.727c-.07.172-.105.355-.105.55 0 .094.015.176.046.247a3.626 3.626 0 00-.128.445c-.032.172-.063.352-.094.539-.024.18-.043.36-.059.54a5.34 5.34 0 00-.023.456c0 .188.023.379.07.574.047.188.125.36.234.516a.991.991 0 00.282.035c.109 0 .218.004.328.012.109.008.211.027.305.058a.354.354 0 01.21.188.102.102 0 01.012.047v.035z" fill="#000"/></g><g clip-path="url(#clip1_2346_38971)"><path d="M324.667 153.435a7.722 7.722 0 01-7.722 7.722h-144a7.723 7.723 0 01-7.723-7.722v-95a7.723 7.723 0 017.723-7.723h144a7.722 7.722 0 017.722 7.723v95z" fill="#fff" stroke="#B9C2C8" stroke-width=".555"/><path d="M174.601 69.45v-8.566h1.816v8.567h-1.816zm9.878 0h-1.787v-3.825c0-.473-.084-.826-.252-1.06-.168-.24-.435-.358-.802-.358-.5 0-.862.168-1.084.504-.223.332-.334.885-.334 1.658v3.082h-1.787V62.9h1.365l.24.837h.1c.199-.316.472-.555.82-.715.352-.164.75-.246 1.195-.246.762 0 1.34.207 1.735.621.394.41.591 1.004.591 1.781v4.272zm1.764-8.243c0-.582.324-.873.973-.873.648 0 .972.29.972.873 0 .277-.082.494-.246.65-.16.153-.402.229-.726.229-.649 0-.973-.293-.973-.88zm1.863 8.244h-1.787V62.9h1.787v6.55zm4.641-1.307c.313 0 .688-.068 1.125-.205v1.33c-.445.2-.992.3-1.641.3-.714 0-1.236-.18-1.564-.54-.324-.363-.486-.906-.486-1.629v-3.158h-.856v-.756l.985-.598.515-1.382h1.143V62.9h1.834v1.342h-1.834V67.4c0 .254.07.442.211.563.144.12.334.181.568.181zm2.379-6.937c0-.582.324-.873.973-.873.648 0 .972.29.972.873 0 .277-.082.494-.246.65-.16.153-.402.229-.726.229-.649 0-.973-.293-.973-.88zm1.863 8.244h-1.787V62.9h1.787v6.55zm6.041 0l-.345-.89h-.047c-.301.378-.612.642-.932.79-.316.145-.73.217-1.242.217-.629 0-1.125-.18-1.488-.539-.36-.36-.539-.871-.539-1.535 0-.695.242-1.207.726-1.535.488-.332 1.223-.516 2.203-.551l1.137-.035v-.287c0-.664-.34-.996-1.02-.996-.523 0-1.138.158-1.845.474l-.592-1.207c.754-.394 1.59-.592 2.508-.592.879 0 1.552.192 2.021.575.469.382.703.964.703 1.746v4.365h-1.248zm-.527-3.035l-.691.023c-.52.016-.907.11-1.161.282-.254.171-.38.433-.38.785 0 .504.289.755.867.755.414 0 .744-.119.99-.357.25-.238.375-.555.375-.95v-.538zm5.408 3.035h-1.787v-9.117h1.787v9.117zm6.451-1.945c0 .671-.234 1.183-.703 1.535-.465.351-1.162.527-2.092.527-.476 0-.882-.033-1.218-.1a4.493 4.493 0 01-.944-.28V67.71c.332.156.705.287 1.119.392.418.106.786.159 1.102.159.648 0 .973-.188.973-.563a.46.46 0 00-.129-.34c-.086-.09-.235-.19-.446-.299a10.466 10.466 0 00-.843-.392c-.504-.211-.875-.407-1.114-.586a1.693 1.693 0 01-.515-.615c-.106-.235-.158-.522-.158-.862 0-.582.224-1.031.673-1.347.454-.32 1.094-.48 1.922-.48.789 0 1.557.171 2.303.515l-.539 1.289a9.915 9.915 0 00-.92-.346 2.885 2.885 0 00-.873-.135c-.527 0-.791.143-.791.428 0 .16.084.299.252.416.172.117.545.291 1.119.522.512.207.887.4 1.125.58.238.18.414.386.527.62.114.235.17.514.17.839z" fill="#414141"/><path d="M268.295 64.123c-.537 0-.958.19-1.266.57-.307.38-.461.906-.461 1.575 0 .7.147 1.23.442 1.59.297.359.725.539 1.285.539.242 0 .476-.024.703-.07a8.69 8.69 0 00.707-.188v.8a4.27 4.27 0 01-1.523.255c-.836 0-1.478-.253-1.926-.758-.448-.508-.672-1.233-.672-2.176 0-.594.108-1.113.324-1.559a2.34 2.34 0 01.946-1.023c.411-.237.894-.355 1.449-.355.583 0 1.122.122 1.617.367l-.336.777a4.788 4.788 0 00-.613-.238 2.148 2.148 0 00-.676-.106zm6.344 4.992h-.922V66.46c0-.333-.068-.582-.203-.746-.133-.164-.345-.246-.637-.246-.385 0-.669.116-.852.348-.179.229-.269.614-.269 1.156v2.144h-.918v-6.078h.918v1.543c0 .248-.016.512-.047.793h.059c.125-.208.298-.37.519-.484.224-.115.484-.172.781-.172 1.047 0 1.571.527 1.571 1.582v2.816zm3.98 0l-.183-.601h-.032c-.208.263-.418.443-.629.539-.211.094-.481.14-.812.14-.425 0-.757-.114-.996-.343-.237-.23-.356-.553-.356-.973 0-.445.166-.781.496-1.008.331-.226.835-.35 1.512-.37l.746-.024v-.23c0-.277-.065-.482-.195-.618-.128-.138-.327-.207-.598-.207a2.07 2.07 0 00-.636.098 4.71 4.71 0 00-.586.23l-.297-.656c.234-.122.491-.215.769-.277.279-.065.542-.098.789-.098.55 0 .964.12 1.243.36.281.239.421.615.421 1.128v2.91h-.656zm-1.367-.624c.333 0 .6-.093.801-.278.203-.187.304-.45.304-.785v-.375l-.554.023c-.433.016-.748.089-.946.22-.195.127-.293.323-.293.589 0 .193.058.343.172.45.115.103.287.156.516.156zm7.105.624h-.921V66.46c0-.333-.068-.582-.204-.746-.132-.164-.345-.246-.636-.246-.388 0-.672.115-.852.344-.18.229-.269.613-.269 1.152v2.153h-.918v-4.32h.718l.129.566h.047c.13-.206.315-.365.555-.477.239-.112.505-.168.797-.168 1.036 0 1.554.527 1.554 1.582v2.816zm4.926-4.32v.504l-.738.137a1.333 1.333 0 01.234.758c0 .445-.153.795-.461 1.05-.307.256-.73.383-1.269.383-.138 0-.263-.01-.375-.031-.198.122-.297.266-.297.43a.24.24 0 00.137.222c.093.05.264.075.511.075h.754c.477 0 .839.101 1.086.304.248.203.371.496.371.88 0 .489-.201.866-.605 1.132-.404.266-.987.398-1.75.398-.589 0-1.038-.104-1.348-.312-.31-.209-.465-.505-.465-.89 0-.266.084-.49.25-.673.17-.18.405-.304.707-.375a.704.704 0 01-.304-.25.653.653 0 01-.117-.367.63.63 0 01.136-.41c.091-.112.227-.223.406-.332a1.218 1.218 0 01-.546-.469 1.404 1.404 0 01-.207-.765c0-.47.147-.832.441-1.09.297-.258.719-.387 1.266-.387.122 0 .25.01.382.027.136.016.237.033.305.051h1.496zm-3.394 4.992c0 .198.088.35.265.457.18.107.431.16.754.16.5 0 .873-.071 1.117-.214.245-.144.368-.334.368-.57 0-.188-.068-.322-.204-.403-.132-.078-.381-.117-.746-.117h-.695c-.263 0-.473.061-.629.183a.615.615 0 00-.23.504zm.394-3.593c0 .27.069.479.207.625.141.145.341.218.602.218.531 0 .797-.284.797-.851 0-.282-.067-.498-.2-.649-.13-.153-.329-.23-.597-.23-.266 0-.468.075-.606.226-.135.151-.203.371-.203.66zm5.692 3c-.672 0-1.198-.196-1.579-.586-.377-.394-.566-.934-.566-1.621 0-.706.176-1.26.527-1.664.352-.404.835-.606 1.45-.606.57 0 1.02.173 1.351.52.331.346.496.823.496 1.43v.495h-2.879c.013.42.127.742.34.97.214.223.515.335.903.335.255 0 .492-.023.711-.07.221-.05.458-.13.71-.243v.747c-.224.106-.45.182-.679.226a4.164 4.164 0 01-.785.067zm-.168-3.782c-.292 0-.526.093-.703.278-.175.185-.279.454-.313.808h1.961c-.005-.357-.091-.626-.258-.808-.167-.185-.396-.278-.687-.278zm8.359 2.153c0 .508-.184.906-.551 1.195-.367.29-.873.434-1.519.434-.646 0-1.175-.1-1.586-.301v-.883c.26.122.536.219.828.29.294.07.568.105.82.105.37 0 .642-.07.817-.211a.686.686 0 00.265-.567.708.708 0 00-.242-.543c-.161-.148-.495-.324-1-.527-.521-.211-.888-.452-1.102-.723a1.532 1.532 0 01-.32-.976c0-.477.169-.852.508-1.125.339-.274.793-.41 1.363-.41.547 0 1.091.12 1.633.359l-.297.762c-.508-.214-.961-.32-1.359-.32-.302 0-.531.066-.688.199a.643.643 0 00-.234.519.74.74 0 00.094.383.962.962 0 00.308.297c.144.093.401.217.774.37.419.175.726.338.922.49.195.15.338.32.429.51.091.19.137.415.137.673zm2.617.886c.224 0 .448-.035.672-.105v.691a1.757 1.757 0 01-.394.11 2.57 2.57 0 01-.497.047c-.869 0-1.304-.459-1.304-1.375V65.49h-.59v-.406l.633-.336.312-.914h.567v.961h1.23v.695h-1.23v2.313c0 .221.054.385.164.492a.617.617 0 00.437.156zm.883-3.656h1l.879 2.45c.133.348.221.676.266.984h.031c.023-.144.066-.317.129-.52.062-.206.393-1.177.992-2.914h.992l-1.848 4.895c-.336.898-.895 1.347-1.679 1.347-.203 0-.401-.022-.594-.066v-.727c.138.032.296.047.473.047.442 0 .754-.256.933-.77l.16-.406-1.734-4.32zm5.863 4.32h-.918v-6.078h.918v6.078zm3.203.079c-.671 0-1.197-.196-1.578-.586-.377-.394-.566-.934-.566-1.621 0-.706.176-1.26.527-1.664.352-.404.835-.606 1.449-.606.571 0 1.021.173 1.352.52.331.346.496.823.496 1.43v.495h-2.879c.013.42.127.742.34.97.214.223.514.335.902.335.256 0 .493-.023.711-.07a3.8 3.8 0 00.711-.243v.747c-.224.106-.45.182-.679.226-.23.044-.491.067-.786.067zm-.168-3.782c-.291 0-.526.093-.703.278-.174.185-.278.454-.312.808h1.961c-.005-.357-.091-.626-.258-.808-.167-.185-.396-.278-.688-.278z" fill="#0777CF"/><rect x="172.642" y="78.675" width="144.362" height="75.194" rx="3.75" stroke="#ABB5BE" stroke-width=".5" stroke-dasharray="2.22 2.22"/><path d="M243.258 112.565c0 .594-.078 1.141-.235 1.641-.156.5-.359.979-.609 1.437-.24.459-.5.912-.781 1.36a16.89 16.89 0 00-.797 1.422c-.063 0-.109.015-.141.046a.725.725 0 00-.062.125.343.343 0 01-.063.125c-.021.032-.062.047-.125.047a3.34 3.34 0 01-.359.657c-.146.197-.302.395-.469.593-.156.188-.312.381-.469.578a4.413 4.413 0 00-.39.641h-.156a12.816 12.816 0 01-1.907 2.188 14.59 14.59 0 01-2.297 1.734.387.387 0 01-.093.156c-.042.042-.052.099-.032.172a1.118 1.118 0 00-.296.234l-.219.313a3.226 3.226 0 01-.235.297.658.658 0 01-.296.234 8.847 8.847 0 00-.454-.078 5.415 5.415 0 00-.421-.047h-.188a.452.452 0 01-.172 0 .62.62 0 01-.297-.14c-.073-.063-.182-.094-.328-.094a.774.774 0 00-.172.015 4.843 4.843 0 00-.297-.453.815.815 0 01-.156-.484c0-.135.016-.26.047-.375.042-.115.063-.234.063-.359a2 2 0 00-.141-.735 2.224 2.224 0 01-.125-.734c0-.084.01-.162.031-.235.021-.083.031-.166.031-.25a.325.325 0 00-.125-.25.512.512 0 01.063-.156.33.33 0 00.047-.172.728.728 0 00.015-.265 2.972 2.972 0 01-.015-.282c0-.218.01-.437.031-.656.021-.219.068-.432.141-.64a.846.846 0 00-.047-.172l-.063-.157c.073-.218.12-.463.141-.734.021-.271.031-.542.031-.812v-.829c0-.27.016-.526.047-.765a14.8 14.8 0 01.063-.297c.031-.104.046-.203.046-.297a.49.49 0 00-.046-.219.855.855 0 00-.125-.203c.072-.021.114-.062.125-.125.01-.073.015-.135.015-.187 0-.146-.026-.308-.078-.485.042-.177.068-.354.078-.531.011-.187.016-.37.016-.547 0-.625-.042-1.239-.125-1.844a21.275 21.275 0 01-.141-1.828h-.047a.283.283 0 00-.172.047 1.216 1.216 0 00-.125.11 1.546 1.546 0 01-.14.093.368.368 0 01-.188.016 1.898 1.898 0 01-.437.375 3.84 3.84 0 01-.5.281c-.177.084-.36.162-.547.235-.188.062-.365.125-.531.187a.908.908 0 01-.375-.25 9.73 9.73 0 01-.297-.375.487.487 0 01-.016-.125v-.125c0-.292.068-.51.203-.656.136-.156.282-.339.438-.547h.078a.31.31 0 01.141.031.218.218 0 00.125.031h.046c.303-.25.62-.447.954-.593a5.515 5.515 0 011.062-.36 2.01 2.01 0 01.469-.359 1.278 1.278 0 01.75-.109c.073 0 .135.005.187.015a15.15 15.15 0 011.203-.5 3.74 3.74 0 011.329-.219c.062 0 .104-.015.125-.046a.705.705 0 00.078-.094 1.08 1.08 0 01.062-.11c.021-.031.057-.046.11-.046 0 .02.005.052.015.093.011.042.037.063.078.063a.202.202 0 00.11-.031.221.221 0 01.14-.047c.052 0 .089.036.11.109.114-.073.224-.141.328-.203.104-.063.219-.109.344-.141.156.032.312.058.468.078a4.009 4.009 0 00.875.016.644.644 0 00.328-.156c.042-.011.063.01.063.062a.78.78 0 00.297.172c.104.021.213.037.328.047a3.6 3.6 0 01.344.016c.114.01.218.047.312.109a.424.424 0 01.203.109c.052.042.12.079.203.11.063.021.146.036.25.047.115.01.198.031.25.062.053.021.079.057.079.11.01.041.041.078.093.109.094.073.219.12.375.141.157.01.292.057.407.14.041.229.156.38.343.453.188.073.37.146.547.219a.216.216 0 01.063.219c.125.094.234.198.328.312.104.115.198.24.281.375.094.125.182.25.266.375.083.125.182.24.297.344a.348.348 0 00.031.219c.041.052.052.13.031.234.125.115.24.266.344.453a.549.549 0 00-.094.313c0 .104.016.208.047.312.031.104.047.209.047.313v.359zm-1.453-.344c0-.302-.058-.593-.172-.875a10.21 10.21 0 01-.297-.859c-.135 0-.224-.047-.266-.141a.518.518 0 00-.187-.265c-.198-.042-.323-.193-.375-.453a10.757 10.757 0 01-.641-.282 1.5 1.5 0 01-.547-.437c-.375-.115-.755-.229-1.14-.344a3.636 3.636 0 00-1.157-.187 1.3 1.3 0 00-.203.015h-.156a.854.854 0 00-.266.047.843.843 0 01-.265.047.497.497 0 01-.281-.094 2.877 2.877 0 01-.688.266c-.24.062-.484.12-.734.172-.25.041-.495.099-.735.172a1.88 1.88 0 00-.64.297 1.175 1.175 0 00-.344-.063.34.34 0 00-.219.063.143.143 0 00-.062.078.486.486 0 01-.016.109c0 .031-.01.057-.031.078-.021.021-.063.026-.125.016a.544.544 0 01-.016.14v.141c0 .271.026.542.078.813a3.372 3.372 0 01.078 1.093c-.01.094-.031.188-.062.282.052.125.078.26.078.406.01.146.016.291.016.437 0 .146.005.292.015.438.011.135.047.265.11.39a3.613 3.613 0 00-.063.469c-.01.156-.015.313-.015.469 0 .365.015.724.046 1.078.042.354.063.714.063 1.078 0 .094-.005.193-.016.297 0 .104-.005.208-.015.313a1.688 1.688 0 01-.11.39 1.049 1.049 0 00-.078.406c0 .094.005.193.016.297.01.094.015.193.015.297a.528.528 0 01-.015.125v.11a18.79 18.79 0 00-.125 1.109c-.031.375-.047.745-.047 1.109a16.932 16.932 0 00.125 2.047.491.491 0 00-.063.25c0 .146.037.292.11.438.073.156.182.26.328.312.333-.125.641-.291.922-.5.291-.198.583-.401.875-.609a4.02 4.02 0 01.328-.203c.146-.094.245-.162.297-.203a.736.736 0 00.125-.125c.041-.053.088-.105.14-.157l.688-.734c.396-.406.786-.818 1.172-1.234.396-.417.76-.86 1.094-1.329.093-.145.187-.286.281-.421.094-.146.182-.297.265-.454a.551.551 0 00.094-.171.42.42 0 01.11-.188c.031-.042.067-.083.109-.125a.702.702 0 00.125-.125 8.268 8.268 0 00.484-.609c.229-.334.443-.667.641-1 .198-.344.417-.683.656-1.016.021-.208.063-.401.125-.578.063-.188.125-.365.188-.531.062-.177.114-.36.156-.547.042-.188.052-.396.031-.625a1.31 1.31 0 01.125-.156c.042-.032.063-.094.063-.188v-.266zm20.765 10.672c0 .104-.005.183-.015.235a.288.288 0 00-.125.093c-.032.032-.084.042-.157.032a.76.76 0 01-.156.39 2.382 2.382 0 01-.265.282l-.25.281a.77.77 0 00-.157.39 2.568 2.568 0 00-.468.329 1.435 1.435 0 01-.391.296 1.135 1.135 0 01-.266.094 3.074 3.074 0 00-.281.11l-.937.421a2.302 2.302 0 01-.985.219h-.109a.277.277 0 01-.156.078 1.175 1.175 0 01-.188.047 1.28 1.28 0 00-.187.047.277.277 0 00-.141.094 1.085 1.085 0 00-.375-.063h-.109a5.202 5.202 0 01-.5.094 3.77 3.77 0 01-.5.031c-.313 0-.625-.021-.938-.062a29.875 29.875 0 00-.937-.11 1.814 1.814 0 01-.485-.593 1.51 1.51 0 01-.187-.735c0-.198.041-.385.125-.562.083-.167.192-.318.328-.453h.047a.685.685 0 00.281-.063.811.811 0 01.297-.062c.104 0 .187.041.25.125a.73.73 0 01.156.297c.042.114.068.229.078.343.011.125.016.224.016.297.114.052.234.084.359.094.136.01.271.016.406.016.136 0 .287-.011.454-.032.166-.01.333-.036.5-.078.177-.031.343-.073.5-.125.166-.052.307-.12.421-.203a4.42 4.42 0 001.516-.391 20.44 20.44 0 001.391-.734.488.488 0 01.125-.266c.073-.072.109-.177.109-.312a.134.134 0 00-.016-.063v-.078a5.193 5.193 0 00-.656-.687c-.219-.198-.505-.328-.859-.391a.39.39 0 00-.203-.203 2.707 2.707 0 00-.297-.141 7.207 7.207 0 01-.297-.125.442.442 0 01-.203-.25 16.523 16.523 0 01-.875-.187 1.692 1.692 0 01-.75-.438 1.893 1.893 0 01-.485-.093 6.936 6.936 0 00-.437-.172 3.185 3.185 0 00-.453-.156 1.498 1.498 0 00-.485-.079.453.453 0 00-.171-.171 1.374 1.374 0 00-.25-.11 18.462 18.462 0 01-.25-.094.449.449 0 01-.172-.171.15.15 0 00-.094.062c-.021.031-.057.047-.109.047h-.063a.187.187 0 00-.125-.125c-.062-.031-.099-.089-.109-.172a1.622 1.622 0 01-.516-.109 5.875 5.875 0 01-.422-.203 4.742 4.742 0 00-.39-.235 1.972 1.972 0 00-.454-.172 3.56 3.56 0 01-.296-.265.403.403 0 00-.329-.157.862.862 0 00-.171.032c-.021-.188-.099-.318-.235-.391a2.923 2.923 0 00-.437-.219 2.455 2.455 0 00-.422-.718 5.097 5.097 0 00-.578-.579.483.483 0 00.031-.14.447.447 0 00-.078-.266.856.856 0 00-.172-.203 4.61 4.61 0 01-.219-1.375c0-.625.141-1.203.422-1.734.271-.542.703-.948 1.297-1.219a.495.495 0 01.078-.219.417.417 0 00.094-.219c.094 0 .166-.02.219-.062.052-.042.099-.083.14-.125.052-.052.104-.099.156-.141a.413.413 0 01.204-.078 5.36 5.36 0 011.265-.828l1.375-.672a.51.51 0 00.235-.234h.093c.104 0 .183-.021.235-.063.062-.052.151-.067.265-.047a.305.305 0 01.157-.125c.072-.02.14-.036.203-.046.073-.021.14-.047.203-.079a.239.239 0 00.125-.14h.109c.177 0 .349-.026.516-.078.166-.063.333-.131.5-.203h.109c.209 0 .401-.037.578-.11.188-.083.386-.14.594-.172a.66.66 0 01.25-.015c.083.01.167.015.25.015.052 0 .115-.005.188-.015.072-.011.125-.042.156-.094h.031c.063 0 .099.021.109.062.011.042.042.063.094.063.073 0 .146-.01.219-.031a.79.79 0 01.219-.032c.312 0 .619.032.922.094.312.063.619.12.921.172.021.125.073.214.157.266.093.052.192.099.297.14v.063c0 .083.02.151.062.203a.579.579 0 01-.219.328 1.85 1.85 0 01-.343.188.254.254 0 01.093.171c.011.073.016.141.016.204v.187l-.078-.016c-.167 0-.25.079-.25.235a1.102 1.102 0 00-.453-.156 3.531 3.531 0 00-.469-.032c-.208 0-.427.011-.656.032-.229.01-.453.005-.672-.016a.781.781 0 01-.313.234c-.125.042-.25.063-.375.063-.135 0-.265-.026-.39-.078a.55.55 0 01-.266-.266.38.38 0 00-.141-.031h-.14a2.08 2.08 0 00-.5.062 5.03 5.03 0 00-.485.125 9.62 9.62 0 00-.5.141 2.409 2.409 0 01-.484.078.473.473 0 01-.25.172.471.471 0 00-.25.172 1.805 1.805 0 00-.594.219 4.934 4.934 0 00-.515.312l-.485.328a2.533 2.533 0 01-.531.266 3.24 3.24 0 01-.406.375 1.903 1.903 0 01-.485.25c-.125.041-.197.104-.218.187a.474.474 0 01-.125.25.649.649 0 01-.235.172.487.487 0 00-.218.172.874.874 0 00-.125.266 2.954 2.954 0 01-.188.562.625.625 0 01-.187.219.536.536 0 01-.016.125v.109c0 .146.016.297.047.453.041.146.068.292.078.438.208.365.453.698.734 1 .282.292.584.562.907.812.322.25.656.485 1 .704.354.218.703.432 1.046.64.125-.01.24.005.344.047.104.031.214.052.328.063.125.093.271.166.438.218l.5.157c.166.052.328.114.484.187.156.063.287.151.391.266.052.01.099.026.14.047a.61.61 0 00.141.015c.063 0 .099-.021.109-.062.469.177.928.375 1.375.593.448.209.922.37 1.422.485.198.166.417.312.657.437.239.125.479.256.718.391.24.125.469.266.688.422.219.146.411.323.578.531.021.198.062.391.125.578.073.177.109.37.109.578z" fill="#000"/></g><defs><clipPath id="clip0_2346_38971"><path fill="#fff" d="M0 0h246.901v129.837H0z"/></clipPath><clipPath id="clip1_2346_38971"><path fill="#fff" transform="translate(164.646 50.128)" d="M0 0h160.355v111.872H0z"/></clipPath></defs></svg>