<svg width="279" height="231" fill="none" xmlns="http://www.w3.org/2000/svg"><rect width="247" height="243.3" rx="8" transform="scale(-1 1) rotate(8 -122.298 -1748.944)" stroke="#000" stroke-width="1.5" stroke-linecap="round" stroke-dasharray="6 6"/><g clip-path="url(#clip0_2582_55816)"><rect x="19" y="12.283" width="245.855" height="318" rx="8" fill="#fff"/><g clip-path="url(#clip1_2582_55816)"><path fill="#fff" d="M19 12.283h245.855V49.5H19z"/><path d="M35.905 33.891l-.57-1.586H33.15l-.559 1.586h-.984l2.137-5.734h1.015l2.137 5.734h-.992zm-.817-2.39l-.535-1.555a11.976 11.976 0 01-.305-.984c-.07.32-.173.67-.308 1.05l-.516 1.489h1.664zm5.512 2.39l-.129-.566h-.047a1.3 1.3 0 01-.547.473 1.809 1.809 0 01-.804.171c-.524 0-.914-.13-1.172-.39-.258-.26-.387-.655-.387-1.184v-2.824h.926v2.664c0 .33.068.58.203.746.136.164.348.246.637.246.385 0 .668-.114.847-.343.183-.232.274-.619.274-1.16V29.57h.922v4.32H40.6zm3.64-.664c.225 0 .449-.035.673-.105v.691a1.823 1.823 0 01-.395.11 2.562 2.562 0 01-.496.046c-.87 0-1.305-.458-1.305-1.375v-2.328h-.59v-.406l.633-.336.313-.914h.566v.961h1.23v.695h-1.23v2.313c0 .221.055.385.164.492a.617.617 0 00.438.156zm5.34.664h-.921v-2.656c0-.333-.068-.582-.203-.746-.133-.164-.346-.246-.637-.246-.386 0-.67.116-.852.348-.18.229-.27.614-.27 1.156v2.144h-.917v-6.078h.918v1.543c0 .248-.016.512-.047.793h.058c.125-.208.299-.37.52-.484.224-.115.484-.172.781-.172 1.047 0 1.57.527 1.57 1.582v2.816zm3.165.078c-.672 0-1.198-.195-1.578-.586-.378-.393-.567-.933-.567-1.62 0-.706.176-1.261.527-1.665.352-.403.835-.605 1.45-.605.57 0 1.02.173 1.351.52.331.346.496.822.496 1.43v.495h-2.879c.013.42.127.742.34.969.214.224.515.336.903.336.255 0 .492-.024.71-.07.222-.05.459-.13.712-.243v.746a2.804 2.804 0 01-.68.227 4.2 4.2 0 01-.785.066zm-.168-3.78c-.292 0-.526.092-.703.277-.175.184-.28.454-.313.808h1.961c-.005-.357-.091-.626-.258-.808-.167-.185-.396-.278-.687-.278zm6.691 3.702h-.922v-2.656c0-.333-.067-.582-.203-.746-.133-.164-.345-.246-.637-.246-.388 0-.672.115-.851.344-.18.229-.27.613-.27 1.152v2.152h-.918v-4.32h.719l.129.566h.047c.13-.205.315-.364.554-.476.24-.112.506-.168.797-.168 1.037 0 1.555.527 1.555 1.582v2.816zm2.887-.664c.224 0 .448-.035.672-.105v.691a1.823 1.823 0 01-.395.11 2.56 2.56 0 01-.496.046c-.87 0-1.305-.458-1.305-1.375v-2.328h-.59v-.406l.633-.336.313-.914h.566v.961h1.23v.695h-1.23v2.313c0 .221.055.385.164.492a.617.617 0 00.438.156zm2.457.664h-.918v-4.32h.918v4.32zm-.973-5.464c0-.165.044-.29.133-.38.091-.088.22-.132.387-.132.161 0 .286.044.375.133.09.088.136.215.136.379 0 .156-.045.28-.136.37a.507.507 0 01-.375.133c-.167 0-.296-.044-.387-.132a.51.51 0 01-.133-.371zm4.031 5.542c-.653 0-1.15-.19-1.492-.57-.338-.383-.508-.93-.508-1.644 0-.727.177-1.285.532-1.676.356-.39.87-.586 1.543-.586.455 0 .865.085 1.23.254l-.277.738c-.388-.15-.709-.226-.961-.226-.748 0-1.121.496-1.121 1.488 0 .484.092.849.277 1.094.188.242.461.363.82.363.41 0 .796-.102 1.16-.305v.801c-.163.096-.34.165-.527.207a3.13 3.13 0 01-.676.063zm4.922-.078l-.183-.601h-.032c-.208.263-.417.443-.628.539-.211.094-.482.14-.813.14-.424 0-.757-.114-.996-.343-.237-.23-.355-.554-.355-.973 0-.445.165-.781.496-1.008.33-.226.834-.35 1.511-.37l.746-.024v-.23c0-.277-.065-.483-.195-.618-.127-.138-.327-.207-.598-.207-.22 0-.433.033-.636.098a4.796 4.796 0 00-.586.23l-.297-.656c.234-.122.49-.215.77-.277.278-.066.541-.098.788-.098.55 0 .964.12 1.243.36.28.239.422.615.422 1.128v2.91h-.657zm-1.367-.625c.333 0 .6-.092.8-.277.204-.188.306-.45.306-.785v-.375l-.555.023c-.432.016-.748.089-.945.219-.196.128-.293.324-.293.59 0 .193.057.342.172.45.114.103.286.155.515.155zm4.914-.039c.224 0 .448-.035.672-.105v.691a1.823 1.823 0 01-.395.11 2.561 2.561 0 01-.496.046c-.87 0-1.304-.458-1.304-1.375v-2.328h-.59v-.406l.633-.336.312-.914h.567v.961h1.23v.695h-1.23v2.313c0 .221.054.385.164.492a.616.616 0 00.437.156zm2.457.664h-.918v-4.32h.918v4.32zm-.972-5.464c0-.165.044-.29.132-.38.091-.088.22-.132.387-.132.162 0 .287.044.375.133.091.088.137.215.137.379 0 .156-.046.28-.137.37a.507.507 0 01-.375.133c-.167 0-.296-.044-.387-.132a.51.51 0 01-.132-.371zm6.12 3.296c0 .706-.18 1.257-.542 1.653-.362.396-.866.593-1.512.593-.404 0-.76-.09-1.07-.273a1.805 1.805 0 01-.715-.785c-.167-.341-.25-.737-.25-1.188 0-.7.18-1.247.539-1.64.36-.393.866-.59 1.52-.59.624 0 1.12.202 1.484.605.364.401.547.943.547 1.625zm-3.144 0c0 .998.369 1.496 1.106 1.496.729 0 1.093-.498 1.093-1.496 0-.987-.367-1.48-1.101-1.48-.386 0-.666.128-.84.383-.172.255-.258.62-.258 1.097zm8.004 2.168h-.922v-2.656c0-.333-.068-.582-.203-.746-.133-.164-.345-.246-.637-.246-.388 0-.672.115-.851.344-.18.229-.27.613-.27 1.152v2.152h-.918v-4.32h.719l.129.566h.047c.13-.205.315-.364.554-.476.24-.112.506-.168.797-.168 1.037 0 1.555.527 1.555 1.582v2.816zm6.059 0l-.184-.601h-.031c-.209.263-.418.443-.63.539-.21.094-.48.14-.812.14-.424 0-.756-.114-.996-.343-.237-.23-.355-.554-.355-.973 0-.445.165-.781.496-1.008.33-.226.835-.35 1.512-.37l.746-.024v-.23c0-.277-.065-.483-.196-.618-.127-.138-.326-.207-.597-.207-.222 0-.434.033-.637.098a4.796 4.796 0 00-.586.23l-.297-.656a3.14 3.14 0 01.77-.277c.278-.066.541-.098.789-.098.55 0 .963.12 1.242.36.281.239.422.615.422 1.128v2.91h-.656zm-1.368-.625c.334 0 .6-.092.801-.277.203-.188.305-.45.305-.785v-.375l-.555.023c-.432.016-.747.089-.945.219-.195.128-.293.324-.293.59 0 .193.057.342.172.45.114.103.286.155.515.155zm7.106.625h-.922v-2.656c0-.333-.068-.582-.203-.746-.133-.164-.345-.246-.637-.246-.388 0-.672.115-.851.344-.18.229-.27.613-.27 1.152v2.152H96.6v-4.32h.719l.129.566h.047c.13-.205.315-.364.554-.476a1.86 1.86 0 01.797-.168c1.037 0 1.555.527 1.555 1.582v2.816zm2.734.078c-.539 0-.959-.195-1.261-.586-.303-.39-.454-.938-.454-1.644 0-.708.153-1.26.457-1.652.308-.396.732-.594 1.274-.594.568 0 1 .21 1.297.629h.047a5.4 5.4 0 01-.067-.735v-1.574h.922v6.078h-.719l-.16-.566h-.043c-.294.43-.725.644-1.293.644zm.246-.742c.378 0 .653-.105.825-.316.171-.214.26-.559.265-1.035v-.13c0-.543-.088-.93-.265-1.16-.178-.228-.455-.343-.832-.343a.845.845 0 00-.747.395c-.174.26-.261.632-.261 1.117 0 .479.084.845.254 1.097.169.25.423.375.761.375zm8.75-.886c0 .507-.183.906-.55 1.195-.368.289-.874.433-1.52.433s-1.174-.1-1.586-.3v-.883c.261.122.537.219.828.289.294.07.568.105.821.105.369 0 .641-.07.816-.21a.686.686 0 00.266-.567.709.709 0 00-.243-.543c-.161-.148-.494-.324-1-.527-.52-.211-.888-.452-1.101-.723a1.526 1.526 0 01-.32-.976c0-.477.169-.852.507-1.125.339-.274.793-.41 1.364-.41.546 0 1.091.12 1.632.359l-.296.762c-.508-.214-.961-.32-1.36-.32-.302 0-.531.066-.687.198a.64.64 0 00-.235.52.75.75 0 00.094.383.965.965 0 00.309.297c.143.093.401.217.773.37.419.175.727.338.922.489.195.151.338.322.43.512.091.19.136.414.136.672zm2.895 1.628c-.672 0-1.198-.195-1.578-.586-.378-.393-.567-.933-.567-1.62 0-.706.176-1.261.528-1.665.351-.403.834-.605 1.449-.605.57 0 1.021.173 1.351.52.331.346.497.822.497 1.43v.495h-2.879c.013.42.126.742.34.969.213.224.514.336.902.336.255 0 .492-.024.711-.07.221-.05.458-.13.711-.243v.746a2.824 2.824 0 01-.68.227 4.173 4.173 0 01-.785.066zm-.168-3.78c-.292 0-.526.092-.703.277-.175.184-.279.454-.313.808h1.961c-.005-.357-.091-.626-.258-.808-.166-.185-.395-.278-.687-.278zm4.5 3.038c.224 0 .448-.035.672-.105v.691a1.823 1.823 0 01-.395.11 2.56 2.56 0 01-.496.046c-.87 0-1.305-.458-1.305-1.375v-2.328h-.589v-.406l.632-.336.313-.914h.566v.961h1.231v.695h-1.231v2.313c0 .221.055.385.164.492a.617.617 0 00.438.156zm3.148 0c.224 0 .448-.035.672-.105v.691a1.812 1.812 0 01-.394.11 2.568 2.568 0 01-.496.046c-.87 0-1.305-.458-1.305-1.375v-2.328h-.59v-.406l.633-.336.312-.914h.567v.961h1.23v.695h-1.23v2.313c0 .221.054.385.164.492a.616.616 0 00.437.156zm2.457.664h-.918v-4.32h.918v4.32zm-.972-5.464c0-.165.044-.29.133-.38.091-.088.22-.132.386-.132.162 0 .287.044.375.133.091.088.137.215.137.379 0 .156-.046.28-.137.37-.088.09-.213.133-.375.133-.166 0-.295-.044-.386-.132a.508.508 0 01-.133-.371zm6.09 5.464h-.922v-2.656c0-.333-.068-.582-.203-.746-.133-.164-.345-.246-.637-.246-.388 0-.672.115-.852.344-.179.229-.269.613-.269 1.152v2.152h-.918v-4.32h.719l.128.566h.047a1.28 1.28 0 01.555-.476 1.86 1.86 0 01.797-.168c1.036 0 1.555.527 1.555 1.582v2.816zm4.925-4.32v.504l-.738.137a1.333 1.333 0 01.234.758c0 .445-.153.795-.46 1.05-.308.255-.731.383-1.27.383-.138 0-.263-.01-.375-.031-.198.122-.297.266-.297.43a.24.24 0 00.137.222c.094.05.264.074.512.074h.753c.477 0 .839.102 1.086.305.248.203.371.496.371.879 0 .49-.201.867-.605 1.133-.404.265-.987.398-1.75.398-.589 0-1.038-.104-1.348-.312-.31-.209-.464-.505-.464-.89a.96.96 0 01.25-.673c.169-.18.404-.305.707-.375a.706.706 0 01-.305-.25.653.653 0 01-.117-.367.63.63 0 01.136-.41 1.59 1.59 0 01.407-.332 1.215 1.215 0 01-.547-.469 1.404 1.404 0 01-.207-.765c0-.47.147-.832.441-1.09.297-.258.719-.387 1.266-.387.122 0 .25.009.383.027.135.016.237.033.304.051h1.496zm-3.394 4.992c0 .198.088.35.265.457.18.107.431.16.754.16.5 0 .873-.071 1.118-.214.244-.144.367-.334.367-.57 0-.188-.068-.322-.203-.403-.133-.078-.382-.117-.746-.117h-.696c-.263 0-.472.06-.629.183a.617.617 0 00-.23.504zm.394-3.594c0 .271.069.48.207.625.141.146.342.22.602.22.531 0 .797-.285.797-.852 0-.282-.067-.498-.199-.649-.131-.153-.33-.23-.598-.23-.266 0-.468.075-.606.226-.135.151-.203.371-.203.66zm6.707 1.692c0 .422-.153.746-.461.972-.307.224-.747.336-1.32.336-.575 0-1.038-.087-1.387-.261v-.793c.508.234.981.351 1.418.351.565 0 .848-.17.848-.511 0-.11-.031-.2-.094-.274a1.103 1.103 0 00-.308-.226 5.416 5.416 0 00-.598-.266c-.497-.193-.835-.385-1.012-.578-.174-.193-.261-.443-.261-.75a.98.98 0 01.445-.86c.299-.205.706-.308 1.219-.308.507 0 .988.103 1.441.309l-.297.69c-.466-.192-.858-.288-1.176-.288-.484 0-.726.138-.726.414 0 .135.062.25.187.344.128.093.404.222.828.386.357.138.616.265.778.38.161.114.281.247.359.398.078.148.117.327.117.535zm5.243-2.395h-1.055v3.625h-.922v-3.625h-.711v-.43l.711-.28v-.282c0-.51.12-.888.359-1.133.24-.247.606-.37 1.098-.37.323 0 .641.053.953.16l-.242.695a2.12 2.12 0 00-.648-.11c-.209 0-.361.066-.457.196-.094.127-.141.32-.141.578v.281h1.055v.695zm4.57 1.457c0 .706-.181 1.257-.543 1.653-.362.396-.866.593-1.512.593-.403 0-.76-.09-1.07-.273a1.806 1.806 0 01-.715-.785c-.167-.341-.25-.737-.25-1.188 0-.7.18-1.247.539-1.64.359-.393.866-.59 1.52-.59.625 0 1.119.202 1.484.605.365.401.547.943.547 1.625zm-3.145 0c0 .998.369 1.496 1.106 1.496.729 0 1.094-.498 1.094-1.496 0-.987-.368-1.48-1.102-1.48-.385 0-.665.128-.84.383-.172.255-.258.62-.258 1.097zm6.395-2.23c.185 0 .337.013.457.039l-.09.855a1.733 1.733 0 00-.406-.046c-.367 0-.666.12-.895.359-.226.24-.34.55-.34.934v2.257h-.918v-4.32h.719l.121.762h.047c.143-.258.33-.462.559-.613a1.34 1.34 0 01.746-.227zm4.371 1.344h.648c.435 0 .75-.081.946-.242.195-.162.293-.402.293-.72 0-.322-.106-.554-.317-.695-.211-.14-.528-.21-.953-.21h-.617v1.867zm0 .773v2.281h-.934v-5.71h1.614c.737 0 1.282.137 1.636.413.355.276.532.693.532 1.25 0 .711-.37 1.218-1.11 1.52l1.614 2.527h-1.063l-1.367-2.28h-.922zm5.973 2.36c-.672 0-1.198-.196-1.578-.587-.378-.393-.567-.933-.567-1.62 0-.706.176-1.261.527-1.665.352-.403.835-.605 1.45-.605.57 0 1.02.173 1.351.52.331.346.496.822.496 1.43v.495h-2.879c.013.42.127.742.34.969.214.224.515.336.903.336.255 0 .492-.024.711-.07.221-.05.458-.13.71-.243v.746c-.223.107-.45.183-.679.227a4.173 4.173 0 01-.785.066zm-.168-3.782c-.292 0-.526.093-.703.278-.175.184-.279.454-.313.808h1.961c-.005-.357-.091-.626-.258-.808-.167-.185-.396-.278-.687-.278zm4.632 3.781c-.653 0-1.151-.19-1.492-.57-.338-.383-.508-.93-.508-1.644 0-.727.178-1.285.532-1.676.356-.39.871-.586 1.543-.586.455 0 .866.085 1.23.254l-.277.738c-.388-.15-.709-.226-.961-.226-.748 0-1.121.496-1.121 1.488 0 .484.092.849.277 1.094.188.242.461.363.82.363.409 0 .796-.102 1.161-.305v.801a1.81 1.81 0 01-.528.207 3.13 3.13 0 01-.676.063zm3.137-.078h-.918v-4.32h.918v4.32zm-.972-5.464c0-.165.044-.29.132-.38.091-.088.22-.132.387-.132.162 0 .287.044.375.133.091.088.137.215.137.379 0 .156-.046.28-.137.37-.088.09-.213.133-.375.133-.167 0-.296-.044-.387-.132a.512.512 0 01-.132-.371zm4.48 5.542c-.547 0-.971-.196-1.273-.59h-.055c.036.365.055.587.055.665v1.77h-.918V29.57h.742c.021.08.064.273.129.578h.047c.286-.437.716-.656 1.289-.656.539 0 .958.195 1.257.586.303.39.454.939.454 1.644 0 .706-.154 1.257-.461 1.653-.305.396-.727.593-1.266.593zm-.223-3.726c-.364 0-.631.107-.8.32-.167.214-.25.555-.25 1.024v.136c0 .526.083.908.25 1.145.166.234.438.351.816.351.318 0 .562-.13.734-.39.172-.26.258-.632.258-1.113 0-.485-.086-.85-.258-1.098-.169-.25-.419-.375-.75-.375zm3.934 3.648h-.918v-4.32h.918v4.32zm-.973-5.464c0-.165.045-.29.133-.38.091-.088.22-.132.387-.132.161 0 .286.044.375.133.091.088.137.215.137.379 0 .156-.046.28-.137.37a.509.509 0 01-.375.133c-.167 0-.296-.044-.387-.132a.512.512 0 01-.133-.371zm4.176 5.542c-.672 0-1.198-.195-1.578-.586-.378-.393-.566-.933-.566-1.62 0-.706.175-1.261.527-1.665.351-.403.835-.605 1.449-.605.57 0 1.021.173 1.352.52.33.346.496.822.496 1.43v.495h-2.879c.013.42.126.742.34.969.213.224.514.336.902.336.255 0 .492-.024.711-.07.221-.05.458-.13.711-.243v.746a2.824 2.824 0 01-.68.227 4.173 4.173 0 01-.785.066zm-.168-3.78c-.292 0-.526.092-.703.277-.175.184-.279.454-.313.808h1.961c-.005-.357-.091-.626-.257-.808-.167-.185-.396-.278-.688-.278zm6.692 3.702h-.922v-2.656c0-.333-.068-.582-.203-.746-.133-.164-.346-.246-.637-.246-.388 0-.672.115-.852.344-.179.229-.269.613-.269 1.152v2.152h-.918v-4.32h.718l.129.566h.047a1.28 1.28 0 01.555-.476 1.86 1.86 0 01.797-.168c1.036 0 1.555.527 1.555 1.582v2.816zm2.886-.664c.224 0 .448-.035.672-.105v.691a1.812 1.812 0 01-.394.11 2.57 2.57 0 01-.497.046c-.869 0-1.304-.458-1.304-1.375v-2.328h-.59v-.406l.633-.336.312-.914h.567v.961h1.23v.695h-1.23v2.313c0 .221.054.385.164.492a.616.616 0 00.437.156zm6.008.664h-.918v-3.687c0-.44.01-.79.031-1.047-.06.063-.134.131-.222.207-.086.075-.378.315-.875.719l-.461-.582 1.679-1.32h.766v5.71z" fill="#2F373E"/><path d="M35.558 71.107l-.524-1.458h-2.008l-.513 1.458h-.905l1.964-5.272h.934l1.964 5.272h-.912zm-.75-2.198l-.492-1.429a10.886 10.886 0 01-.28-.905c-.065.295-.16.617-.284.966l-.474 1.368h1.53zm5.067 2.198l-.119-.52h-.043a1.192 1.192 0 01-.503.434 1.664 1.664 0 01-.74.158c-.48 0-.84-.12-1.077-.36-.237-.239-.355-.601-.355-1.087v-2.597h.85v2.45c0 .304.063.532.188.685.124.151.32.227.585.227.354 0 .614-.106.78-.316.167-.213.25-.569.25-1.067v-1.979h.848v3.972h-.664zm3.347-.61c.206 0 .411-.033.617-.097v.635a1.555 1.555 0 01-.362.1 2.361 2.361 0 01-.456.044c-.8 0-1.2-.421-1.2-1.264v-2.14h-.542V67.4l.582-.309.287-.84h.52v.883H43.8v.64h-1.131V69.9c0 .203.05.354.15.452a.567.567 0 00.403.144zm4.909.61h-.848v-2.442c0-.306-.062-.535-.187-.686-.122-.15-.317-.226-.585-.226-.354 0-.615.107-.783.32-.165.21-.248.565-.248 1.063v1.971h-.843V65.52h.843v1.419c0 .227-.014.47-.043.729h.054c.115-.192.274-.34.478-.445.206-.106.445-.158.718-.158.963 0 1.444.484 1.444 1.454v2.59zm2.908.072c-.617 0-1.1-.18-1.45-.539-.347-.361-.521-.858-.521-1.49 0-.649.162-1.159.485-1.53.323-.37.767-.556 1.332-.556.524 0 .939.159 1.243.477.304.319.456.757.456 1.315v.456h-2.647c.012.385.116.682.312.89.197.206.473.31.83.31.235 0 .453-.022.654-.066.203-.045.42-.12.653-.222v.686a2.594 2.594 0 01-.625.208c-.21.04-.451.061-.722.061zm-.154-3.476c-.268 0-.483.085-.646.255-.16.17-.256.418-.288.743h1.803c-.005-.328-.084-.576-.237-.743-.153-.17-.364-.255-.632-.255zm6.152 3.404h-.848v-2.442c0-.306-.062-.535-.187-.686-.122-.15-.317-.226-.585-.226-.357 0-.618.105-.783.316-.165.21-.248.564-.248 1.06v1.978h-.844v-3.972h.661l.119.521h.043c.12-.189.29-.335.51-.438.22-.103.464-.154.732-.154.953 0 1.43.484 1.43 1.454v2.59zm2.654-.61c.205 0 .411-.033.617-.097v.635a1.555 1.555 0 01-.362.1 2.361 2.361 0 01-.457.044c-.8 0-1.199-.421-1.199-1.264v-2.14h-.542V67.4l.582-.309.287-.84h.52v.883h1.132v.64h-1.131V69.9c0 .203.05.354.15.452a.567.567 0 00.403.144zm2.258.61h-.844v-3.972h.844v3.972zm-.894-5.024c0-.15.04-.267.122-.348a.49.49 0 01.356-.122c.148 0 .263.04.344.122.084.081.126.197.126.348a.46.46 0 01-.126.341.466.466 0 01-.344.122.49.49 0 01-.356-.122.469.469 0 01-.122-.34zm3.706 5.096c-.6 0-1.058-.175-1.372-.524-.31-.352-.467-.856-.467-1.512 0-.668.163-1.182.489-1.54.328-.36.8-.54 1.418-.54.42 0 .797.078 1.132.234l-.255.679c-.357-.14-.651-.209-.884-.209-.687 0-1.03.457-1.03 1.369 0 .445.085.78.255 1.005.172.223.423.334.754.334.376 0 .731-.093 1.066-.28v.736a1.63 1.63 0 01-.485.19c-.17.039-.377.058-.62.058zm4.525-.072l-.169-.553h-.029c-.191.242-.384.407-.578.496-.194.086-.443.129-.747.129-.39 0-.695-.105-.915-.316-.218-.21-.327-.509-.327-.894 0-.41.152-.718.456-.927.304-.208.767-.322 1.39-.34l.686-.022v-.212c0-.254-.06-.443-.18-.568-.117-.127-.3-.19-.55-.19-.203 0-.398.03-.585.09-.186.06-.366.13-.538.212l-.273-.604c.215-.112.45-.197.707-.255.256-.06.498-.09.725-.09.506 0 .886.11 1.142.331.259.22.388.566.388 1.038v2.675h-.603zm-1.257-.574c.307 0 .552-.085.736-.255.187-.173.28-.413.28-.722v-.345l-.51.022c-.397.014-.687.081-.869.2-.18.118-.269.299-.269.543 0 .177.053.315.158.413.105.096.263.144.474.144zm4.518-.036c.206 0 .412-.033.617-.097v.635a1.64 1.64 0 01-.362.1 2.36 2.36 0 01-.456.044c-.8 0-1.2-.421-1.2-1.264v-2.14h-.542V67.4l.582-.309.287-.84h.52v.883h1.132v.64h-1.131V69.9c0 .203.05.354.15.452a.567.567 0 00.403.144zm2.259.61h-.844v-3.972h.844v3.972zm-.895-5.024c0-.15.041-.267.123-.348a.49.49 0 01.355-.122c.148 0 .263.04.345.122.084.081.125.197.125.348a.46.46 0 01-.125.341.466.466 0 01-.345.122.49.49 0 01-.355-.122.469.469 0 01-.123-.34zm5.628 3.031c0 .649-.167 1.155-.5 1.52-.332.363-.796.545-1.39.545a1.91 1.91 0 01-.983-.251 1.66 1.66 0 01-.657-.722 2.459 2.459 0 01-.23-1.092c0-.644.165-1.147.495-1.508.33-.362.796-.542 1.397-.542.575 0 1.03.185 1.365.556.335.369.503.867.503 1.494zm-2.891 0c0 .917.339 1.376 1.016 1.376.67 0 1.006-.459 1.006-1.376 0-.907-.338-1.36-1.013-1.36-.354 0-.612.116-.772.351-.158.235-.237.571-.237 1.01zm7.358 1.993h-.847v-2.442c0-.306-.063-.535-.187-.686-.122-.15-.317-.226-.586-.226-.356 0-.617.105-.782.316-.166.21-.248.564-.248 1.06v1.978h-.844v-3.972h.66l.12.521h.042c.12-.189.29-.335.51-.438a1.71 1.71 0 01.733-.154c.953 0 1.429.484 1.429 1.454v2.59zm4.988 0h-.858v-4.514h-1.544v-.736h3.946v.736h-1.544v4.514zm1.66-3.972h.919l.808 2.252c.122.32.203.623.244.905h.028c.022-.132.061-.29.119-.478.057-.189.361-1.082.912-2.679h.912l-1.698 4.5c-.31.826-.824 1.239-1.544 1.239a2.43 2.43 0 01-.546-.061v-.668c.126.029.271.043.434.043.407 0 .693-.236.858-.707l.148-.374-1.595-3.972zm6.56 4.044c-.503 0-.893-.18-1.17-.542h-.05c.033.335.05.538.05.61v1.627H95.2v-5.739h.682c.019.075.058.252.118.532h.043c.264-.402.659-.603 1.186-.603.495 0 .88.18 1.156.538.278.36.416.863.416 1.512s-.14 1.155-.423 1.52c-.28.363-.668.545-1.164.545zm-.204-3.426c-.336 0-.581.098-.737.294-.153.197-.23.51-.23.941v.126c0 .484.077.834.23 1.052.154.216.404.324.75.324.293 0 .518-.12.676-.36.158-.239.237-.58.237-1.023 0-.445-.079-.782-.237-1.01-.156-.229-.385-.344-.69-.344zm4.506 3.426c-.617 0-1.101-.18-1.45-.539-.348-.361-.521-.858-.521-1.49 0-.649.161-1.159.485-1.53.323-.37.767-.556 1.332-.556.524 0 .938.159 1.242.477.305.319.457.757.457 1.315v.456h-2.647c.012.385.116.682.312.89.197.206.473.31.83.31.234 0 .452-.022.653-.066a3.51 3.51 0 00.654-.222v.686a2.592 2.592 0 01-.625.208c-.21.04-.451.061-.722.061zm-.154-3.476c-.268 0-.484.085-.646.255-.161.17-.257.418-.288.743h1.803c-.005-.328-.084-.576-.237-.743-.153-.17-.364-.255-.632-.255z" fill="#38424B"/><path d="M31.608 79.31c0-1.16.94-2.102 2.101-2.102h216.436c1.161 0 2.102.941 2.102 2.102v12.608c0 1.16-.941 2.101-2.102 2.101H33.709a2.1 2.1 0 01-2.101-2.101V79.31z" fill="#fff"/><path d="M242.321 84.717a.526.526 0 000 .743l1.576 1.576a.525.525 0 00.743 0l1.576-1.576a.526.526 0 00-.743-.743l-1.204 1.205-1.205-1.205a.525.525 0 00-.743 0z" fill="#546470"/><path d="M53.486 88.411h-1.053l-2.582-4.183h-.028l.017.233c.034.445.05.852.05 1.22v2.73h-.779v-5.25h1.042l2.575 4.162h.021a24.21 24.21 0 01-.028-.6 21.031 21.031 0 01-.022-.811V83.16h.787v5.25zm4.819-1.993c0 .649-.167 1.155-.5 1.52-.332.363-.795.545-1.39.545a1.91 1.91 0 01-.983-.251 1.66 1.66 0 01-.657-.722 2.458 2.458 0 01-.23-1.092c0-.644.165-1.147.495-1.508.33-.362.797-.542 1.397-.542.575 0 1.03.185 1.365.556.335.369.503.867.503 1.494zm-2.891 0c0 .917.339 1.375 1.016 1.375.67 0 1.006-.458 1.006-1.375 0-.907-.338-1.361-1.013-1.361-.354 0-.612.117-.772.352-.158.235-.237.57-.237 1.01zm9.121 1.993l-.524-1.458h-2.007l-.514 1.458h-.905l1.965-5.272h.933l1.965 5.272h-.913zm-.75-2.198l-.492-1.429a10.685 10.685 0 01-.28-.905c-.065.295-.16.617-.284.966l-.474 1.368h1.53zm5.067 2.198l-.118-.52h-.044a1.19 1.19 0 01-.502.434 1.663 1.663 0 01-.74.158c-.481 0-.84-.12-1.077-.36-.237-.239-.356-.601-.356-1.087v-2.597h.851v2.45c0 .303.062.532.187.685.124.151.32.227.585.227.355 0 .614-.106.78-.316.167-.213.25-.569.25-1.067V84.44h.848v3.972h-.664zm3.347-.61c.206 0 .412-.033.618-.097v.635a1.579 1.579 0 01-.363.1 2.361 2.361 0 01-.456.044c-.8 0-1.2-.421-1.2-1.264v-2.14h-.542v-.374l.582-.309.287-.84h.52v.883h1.132v.64h-1.131v2.126c0 .203.05.354.15.452a.567.567 0 00.403.144zm4.909.61h-.848V85.97c0-.306-.062-.535-.186-.686-.122-.15-.317-.226-.586-.226-.354 0-.615.107-.782.32-.166.21-.248.565-.248 1.063v1.971h-.844v-5.588h.844v1.419c0 .227-.015.47-.043.729h.053c.115-.192.275-.34.478-.446a1.56 1.56 0 01.718-.157c.963 0 1.444.484 1.444 1.454v2.59zm2.909.072c-.618 0-1.102-.18-1.451-.539-.347-.361-.52-.858-.52-1.49 0-.649.16-1.159.484-1.53.323-.37.767-.556 1.332-.556.525 0 .939.159 1.243.477.304.319.456.757.456 1.314v.457h-2.647c.012.385.116.682.313.89.196.206.473.309.83.309.234 0 .452-.022.653-.065.203-.045.421-.12.653-.222v.686a2.587 2.587 0 01-.624.208 3.9 3.9 0 01-.722.061zm-.155-3.476c-.268 0-.483.085-.646.255-.16.17-.256.418-.287.743h1.802c-.004-.328-.083-.576-.237-.743-.153-.17-.364-.255-.632-.255zm6.152 3.404h-.847V85.97c0-.306-.063-.535-.187-.686-.122-.15-.318-.226-.586-.226-.356 0-.617.105-.782.316-.166.21-.248.564-.248 1.06v1.978h-.844V84.44h.66l.12.521h.042c.12-.19.29-.335.51-.438a1.71 1.71 0 01.733-.154c.953 0 1.429.484 1.429 1.454v2.59zm2.654-.61c.206 0 .412-.033.617-.097v.635a1.555 1.555 0 01-.362.1 2.361 2.361 0 01-.456.044c-.8 0-1.2-.421-1.2-1.264v-2.14h-.542v-.374l.582-.309.287-.84h.52v.883h1.132v.64h-1.131v2.126c0 .203.05.354.15.452a.567.567 0 00.403.144zm2.259.61h-.844V84.44h.844v3.972zm-.895-5.024c0-.15.041-.267.123-.348a.49.49 0 01.355-.122c.148 0 .263.04.345.122.084.081.126.197.126.348a.461.461 0 01-.126.341.466.466 0 01-.345.122.49.49 0 01-.356-.122.469.469 0 01-.122-.34zm3.707 5.096c-.601 0-1.059-.175-1.372-.524-.312-.352-.467-.856-.467-1.512 0-.668.163-1.182.488-1.54.328-.36.801-.54 1.419-.54.419 0 .796.078 1.13.234l-.254.679c-.357-.14-.651-.209-.884-.209-.687 0-1.03.457-1.03 1.369 0 .445.085.78.255 1.005.172.223.424.334.754.334.376 0 .731-.093 1.066-.28v.736c-.15.089-.312.152-.484.19-.17.039-.377.058-.621.058zm4.524-.072l-.169-.553h-.028c-.192.242-.385.407-.578.496-.194.086-.443.129-.747.129-.39 0-.696-.105-.916-.316-.218-.21-.327-.509-.327-.894 0-.41.152-.718.456-.927.304-.208.768-.322 1.39-.34l.686-.022v-.212c0-.254-.06-.443-.18-.568-.117-.127-.3-.19-.55-.19-.203 0-.398.03-.584.09a4.43 4.43 0 00-.54.212l-.272-.604a2.92 2.92 0 01.707-.255c.257-.06.498-.09.726-.09.505 0 .886.11 1.142.33.258.221.388.567.388 1.039v2.675h-.604zm-1.257-.574c.307 0 .552-.085.737-.255.186-.173.28-.413.28-.722v-.345l-.51.022c-.398.014-.687.081-.87.2-.179.118-.269.299-.269.543 0 .177.053.315.158.413.106.096.264.144.474.144zm4.518-.036c.206 0 .412-.033.618-.097v.635a1.579 1.579 0 01-.363.1 2.36 2.36 0 01-.456.044c-.8 0-1.2-.421-1.2-1.264v-2.14h-.542v-.374l.582-.309.287-.84h.521v.883h1.131v.64h-1.131v2.126c0 .203.05.354.151.452a.567.567 0 00.402.144zm2.259.61h-.844V84.44h.844v3.972zm-.894-5.024c0-.15.04-.267.122-.348a.489.489 0 01.355-.122c.149 0 .264.04.345.122.084.081.126.197.126.348a.46.46 0 01-.126.341c-.081.082-.196.122-.345.122a.489.489 0 01-.355-.122.466.466 0 01-.122-.34zm5.627 3.031c0 .649-.166 1.155-.499 1.52-.333.363-.796.545-1.39.545a1.91 1.91 0 01-.984-.251 1.657 1.657 0 01-.657-.722 2.462 2.462 0 01-.23-1.092c0-.644.165-1.147.496-1.508.33-.362.796-.542 1.397-.542.574 0 1.029.185 1.364.556.335.369.503.867.503 1.494zm-2.891 0c0 .917.339 1.375 1.016 1.375.671 0 1.006-.458 1.006-1.375 0-.907-.338-1.361-1.013-1.361-.354 0-.611.117-.772.352-.158.235-.237.57-.237 1.01zm7.358 1.993h-.847V85.97c0-.306-.062-.535-.187-.686-.122-.15-.317-.226-.585-.226-.357 0-.618.105-.783.316-.165.21-.248.564-.248 1.06v1.978h-.844V84.44h.661l.118.521h.044a1.17 1.17 0 01.509-.438c.221-.103.465-.154.733-.154.953 0 1.429.484 1.429 1.454v2.59z" fill="#38424B"/><path fill-rule="evenodd" clip-rule="evenodd" d="M40.013 89.816a4.203 4.203 0 110-8.405 4.203 4.203 0 010 8.405zm2.57-2.376a3.152 3.152 0 00-4.395-4.396l4.394 4.396zm-.743.743a3.152 3.152 0 01-4.396-4.396l4.396 4.396z" fill="#667988"/><path d="M33.71 77.734h216.435v-1.05H33.709v1.05zm218.01 1.576v12.608h1.051V79.31h-1.051zm-1.576 14.184H33.709v1.05h216.436v-1.05zM32.133 91.918V79.31h-1.05v12.608h1.05zm1.576 1.576c-.87 0-1.576-.706-1.576-1.576h-1.05a2.627 2.627 0 002.626 2.626v-1.05zm218.012-1.576c0 .87-.705 1.576-1.576 1.576v1.05a2.627 2.627 0 002.627-2.626h-1.051zm-1.576-14.184c.871 0 1.576.705 1.576 1.576h1.051a2.627 2.627 0 00-2.627-2.627v1.05zm-216.436-1.05a2.627 2.627 0 00-2.626 2.626h1.05c0-.87.706-1.576 1.576-1.576v-1.05z" fill="#81919D"/><path d="M31.608 102.775a.35.35 0 01.35-.351h219.938a.35.35 0 110 .701H31.958a.35.35 0 01-.35-.35z" fill="#E3E6E9"/><path d="M36.57 117.855c0 .866-.24 1.529-.721 1.989-.481.457-1.174.686-2.08.686h-1.468v-5.25h1.623c.836 0 1.486.225 1.95.675.465.45.697 1.083.697 1.9zm-.904.028c0-1.257-.588-1.885-1.763-1.885h-.744v3.81h.61c1.265 0 1.897-.641 1.897-1.925zm4.431 2.647l-.169-.553H39.9c-.192.242-.384.407-.578.496-.194.086-.443.129-.747.129-.39 0-.696-.105-.916-.316-.218-.211-.327-.509-.327-.894 0-.41.152-.719.456-.927.304-.208.768-.322 1.39-.341l.686-.022v-.211c0-.254-.06-.443-.18-.568-.117-.127-.3-.19-.55-.19-.203 0-.398.03-.584.09a4.34 4.34 0 00-.54.211l-.272-.603a2.92 2.92 0 01.707-.255c.257-.06.498-.09.726-.09.505 0 .886.111 1.142.331.258.22.388.566.388 1.038v2.675h-.604zm-1.257-.575c.307 0 .552-.085.737-.255.186-.172.28-.413.28-.721v-.345l-.51.021c-.398.015-.687.082-.87.202-.179.117-.269.298-.269.542 0 .177.053.315.158.413.106.096.264.143.474.143zm2.435-3.397h.92l.808 2.252c.122.321.203.622.244.905h.029c.021-.132.06-.291.118-.478.057-.189.361-1.082.912-2.679h.912l-1.698 4.5c-.31.826-.824 1.239-1.545 1.239a2.41 2.41 0 01-.545-.061v-.668c.127.029.271.043.434.043.407 0 .693-.236.858-.707l.148-.374-1.595-3.972zm7.215 2.841c0 .388-.142.686-.424.894-.283.206-.687.309-1.214.309-.529 0-.954-.08-1.275-.241v-.729c.467.216.902.323 1.304.323.52 0 .78-.156.78-.47a.371.371 0 00-.087-.251 1.026 1.026 0 00-.284-.209 5.053 5.053 0 00-.55-.244c-.456-.177-.766-.354-.93-.531-.16-.177-.24-.407-.24-.69 0-.34.137-.603.41-.79.275-.189.648-.284 1.12-.284.467 0 .909.095 1.325.284l-.273.636c-.428-.177-.789-.266-1.08-.266-.446 0-.669.127-.669.381 0 .124.058.229.173.316.117.086.37.204.761.355.328.127.566.243.715.349.148.105.258.227.33.366.072.136.108.3.108.492zm7.031-4.119v3.397c0 .388-.084.728-.251 1.02a1.66 1.66 0 01-.722.671c-.314.156-.69.234-1.128.234-.65 0-1.157-.173-1.519-.517-.361-.345-.542-.819-.542-1.422v-3.383h.862v3.322c0 .433.1.753.302.958.2.206.51.309.926.309.81 0 1.214-.425 1.214-1.275v-3.314h.858zm4.748 5.25h-.848v-2.442c0-.306-.062-.535-.187-.686-.122-.151-.317-.226-.585-.226-.357 0-.618.105-.783.316-.165.211-.248.564-.248 1.059v1.979h-.843v-3.972h.66l.119.521h.043c.12-.189.29-.335.51-.438.22-.103.464-.155.732-.155.953 0 1.43.485 1.43 1.455v2.589zm2.654-.61c.205 0 .411-.033.617-.097v.635a2.417 2.417 0 01-.819.144c-.8 0-1.199-.422-1.199-1.264v-2.141h-.542v-.373l.582-.309.287-.84h.52v.883h1.132v.639H62.37v2.126c0 .204.05.355.15.453a.566.566 0 00.402.144zm2.258.61h-.844v-3.972h.844v3.972zm-.894-5.024c0-.151.04-.267.122-.348.084-.082.203-.122.356-.122.148 0 .263.04.344.122.084.081.126.197.126.348a.46.46 0 01-.126.341c-.08.082-.196.122-.344.122-.153 0-.272-.04-.356-.122a.468.468 0 01-.122-.341zm2.948 5.024h-.843v-5.588h.844v5.588zm6.18 0h-2.97v-5.25h2.97v.725h-2.11v1.429h1.978v.719h-1.979v1.648h2.112v.729zm1.933-2.029l-1.332-1.943h.962l.905 1.39.912-1.39h.955l-1.336 1.943 1.404 2.029h-.955l-.98-1.487-.977 1.487h-.955l1.397-2.029zm5.182 2.101c-.503 0-.893-.181-1.17-.542h-.051c.033.335.05.538.05.61v1.627h-.844v-5.739h.683c.019.074.058.252.118.532h.043c.264-.402.659-.604 1.185-.604.496 0 .881.18 1.157.539.277.359.416.863.416 1.512s-.141 1.155-.424 1.519c-.28.364-.668.546-1.163.546zm-.205-3.426c-.335 0-.58.098-.736.294-.153.197-.23.51-.23.941v.126c0 .484.077.834.23 1.052.153.216.403.323.75.323a.76.76 0 00.676-.359c.158-.239.237-.58.237-1.023 0-.446-.08-.782-.237-1.009-.156-.23-.386-.345-.69-.345zm3.616 3.354h-.844v-3.972h.844v3.972zm-.894-5.024c0-.151.04-.267.122-.348.084-.082.203-.122.356-.122.148 0 .263.04.345.122.083.081.125.197.125.348a.46.46 0 01-.125.341c-.082.082-.197.122-.345.122-.153 0-.272-.04-.356-.122a.468.468 0 01-.122-.341zm4.12.98c.17 0 .31.012.42.036l-.083.787a1.58 1.58 0 00-.374-.043c-.337 0-.611.11-.822.33-.208.22-.313.506-.313.858v2.076h-.843v-3.972h.66l.112.701h.043c.132-.238.303-.425.513-.564.213-.139.442-.209.686-.209zm3.644 4.044l-.169-.553h-.028c-.192.242-.385.407-.579.496-.193.086-.442.129-.746.129-.39 0-.696-.105-.916-.316-.218-.211-.327-.509-.327-.894 0-.41.152-.719.456-.927.304-.208.767-.322 1.39-.341l.686-.022v-.211c0-.254-.06-.443-.18-.568-.117-.127-.3-.19-.55-.19-.203 0-.398.03-.585.09-.186.059-.366.13-.538.211l-.273-.603a2.93 2.93 0 01.707-.255c.256-.06.498-.09.726-.09.505 0 .885.111 1.142.331.258.22.388.566.388 1.038v2.675h-.604zm-1.257-.575c.307 0 .552-.085.736-.255.187-.172.28-.413.28-.721v-.345l-.51.021c-.397.015-.686.082-.868.202-.18.117-.27.298-.27.542 0 .177.053.315.158.413.106.096.264.143.474.143zm4.518-.035c.206 0 .412-.033.618-.097v.635a2.416 2.416 0 01-.819.144c-.8 0-1.2-.422-1.2-1.264v-2.141h-.542v-.373l.582-.309.287-.84h.52v.883h1.132v.639h-1.13v2.126c0 .204.05.355.15.453a.566.566 0 00.403.144zm2.259.61h-.844v-3.972h.844v3.972zm-.894-5.024c0-.151.04-.267.122-.348.084-.082.202-.122.355-.122.149 0 .264.04.345.122.084.081.126.197.126.348a.46.46 0 01-.126.341c-.081.082-.196.122-.345.122-.153 0-.272-.04-.355-.122a.468.468 0 01-.122-.341zm5.627 3.031c0 .649-.167 1.155-.499 1.519-.333.364-.796.546-1.39.546a1.9 1.9 0 01-.984-.252 1.658 1.658 0 01-.657-.721 2.462 2.462 0 01-.23-1.092c0-.644.165-1.147.496-1.508.33-.362.796-.543 1.397-.543.574 0 1.029.186 1.364.557.335.369.503.867.503 1.494zm-2.891 0c0 .917.339 1.375 1.016 1.375.67 0 1.006-.458 1.006-1.375 0-.907-.338-1.361-1.013-1.361-.354 0-.612.117-.772.352-.158.234-.237.571-.237 1.009zm7.358 1.993h-.847v-2.442c0-.306-.063-.535-.187-.686-.122-.151-.317-.226-.585-.226-.357 0-.618.105-.783.316-.165.211-.248.564-.248 1.059v1.979h-.844v-3.972h.661l.118.521h.043c.12-.189.29-.335.51-.438.221-.103.465-.155.733-.155.953 0 1.429.485 1.429 1.455v2.589z" fill="#38424B"/><path d="M31.608 128.733c0-1.161.94-2.102 2.101-2.102h216.436c1.161 0 2.102.941 2.102 2.102v12.608c0 1.16-.941 2.101-2.102 2.101H33.709a2.101 2.101 0 01-2.101-2.101v-12.608z" fill="#fff"/><path d="M39.423 133.819c0 .335-.094.609-.284.822-.186.214-.452.356-.797.428v.029c.422.052.734.186.938.402.203.215.305.498.305.847 0 .501-.174.886-.52 1.157-.348.268-.841.402-1.48.402-.278 0-.533-.022-.765-.065a2.588 2.588 0 01-.672-.219v-.567a3.384 3.384 0 001.458.344c.907 0 1.361-.355 1.361-1.066 0-.637-.5-.955-1.5-.955h-.518v-.514h.524c.41 0 .734-.09.973-.269.24-.182.36-.434.36-.754 0-.257-.089-.458-.266-.604-.175-.146-.413-.219-.715-.219-.23 0-.446.031-.65.094a2.917 2.917 0 00-.697.344l-.301-.402a2.47 2.47 0 01.743-.398c.283-.099.58-.148.89-.148.51 0 .907.118 1.19.352.282.233.423.552.423.959zm4.435 1.383c0 .907-.143 1.585-.43 2.032-.286.448-.722.672-1.311.672-.565 0-.995-.229-1.29-.686-.294-.46-.441-1.133-.441-2.018 0-.915.142-1.594.427-2.036.285-.443.72-.665 1.304-.665.57 0 1.002.231 1.296.693.297.462.445 1.131.445 2.008zm-2.869 0c0 .763.09 1.32.27 1.67.179.347.465.52.858.52.397 0 .684-.176.861-.528.18-.354.27-.908.27-1.662 0-.754-.09-1.306-.27-1.656-.177-.352-.464-.528-.861-.528-.393 0-.68.174-.859.521-.18.345-.269.899-.269 1.663z" fill="#38424B"/><path d="M33.71 127.157h216.435v-1.051H33.709v1.051zm218.011 1.576v12.608h1.051v-12.608h-1.051zm-1.576 14.184H33.709v1.05h216.436v-1.05zm-218.012-1.576v-12.608h-1.05v12.608h1.05zm1.576 1.576c-.87 0-1.576-.706-1.576-1.576h-1.05a2.627 2.627 0 002.626 2.626v-1.05zm218.012-1.576c0 .87-.705 1.576-1.576 1.576v1.05a2.627 2.627 0 002.627-2.626h-1.051zm-1.576-14.184c.871 0 1.576.705 1.576 1.576h1.051a2.627 2.627 0 00-2.627-2.627v1.051zm-216.436-1.051a2.627 2.627 0 00-2.626 2.627h1.05c0-.871.706-1.576 1.576-1.576v-1.051z" fill="#81919D"/><path d="M31.608 152.197a.35.35 0 01.35-.35h219.938a.35.35 0 110 .701H31.958a.35.35 0 01-.35-.351z" fill="#E3E6E9"/><path d="M35.328 168.527c0 .467-.169.834-.506 1.099-.338.266-.803.399-1.397.399s-1.08-.092-1.458-.277v-.811c.24.112.493.201.761.266.27.064.522.097.755.097.34 0 .59-.065.75-.194a.632.632 0 00.244-.521.652.652 0 00-.222-.499c-.149-.137-.455-.298-.92-.485-.479-.194-.816-.415-1.013-.664a1.407 1.407 0 01-.294-.898c0-.438.156-.783.467-1.034.311-.252.729-.378 1.253-.378.503 0 1.003.111 1.501.331l-.273.7c-.466-.196-.883-.294-1.25-.294-.277 0-.488.061-.631.183a.59.59 0 00-.216.477c0 .137.029.254.086.352a.884.884 0 00.284.273c.132.086.369.2.711.341.386.161.668.31.848.449.18.139.31.296.395.471.083.175.125.38.125.617zm2.661 1.498c-.617 0-1.1-.18-1.45-.539-.348-.361-.521-.858-.521-1.49 0-.649.161-1.159.485-1.53.323-.371.767-.556 1.332-.556.524 0 .938.159 1.242.477.305.319.456.757.456 1.314v.457h-2.646c.012.385.116.682.312.89.197.206.473.309.83.309.234 0 .452-.022.653-.065.204-.045.422-.119.654-.222v.686a2.611 2.611 0 01-.625.208 3.8 3.8 0 01-.722.061zm-.154-3.476c-.268 0-.484.085-.647.255-.16.17-.256.417-.287.743h1.803c-.005-.328-.084-.576-.237-.743-.153-.17-.364-.255-.632-.255zm6.151 3.404h-.847v-2.442c0-.306-.062-.535-.187-.686-.122-.151-.317-.226-.585-.226-.357 0-.618.105-.783.316-.165.211-.248.564-.248 1.059v1.979h-.844v-3.972h.661l.119.521h.043c.12-.189.29-.335.51-.438.22-.103.464-.154.732-.154.953 0 1.43.484 1.43 1.454v2.589zm2.514.072c-.495 0-.882-.18-1.16-.539-.277-.359-.416-.863-.416-1.512 0-.651.14-1.157.42-1.519.282-.364.673-.545 1.17-.545.523 0 .92.192 1.193.578h.043a5.06 5.06 0 01-.061-.675v-1.448h.847v5.588h-.66l-.148-.521h-.039c-.27.395-.667.593-1.189.593zm.227-.682c.347 0 .6-.097.757-.291.158-.197.24-.514.244-.952v-.118c0-.501-.08-.856-.244-1.067-.163-.211-.418-.316-.765-.316a.775.775 0 00-.686.363c-.16.239-.24.581-.24 1.027 0 .44.078.777.233 1.009.156.23.39.345.7.345zm5.875-2.198h.596c.4 0 .69-.074.869-.223.18-.148.27-.368.27-.661 0-.296-.098-.509-.292-.639-.194-.129-.486-.194-.876-.194h-.567v1.717zm0 .711v2.097h-.859v-5.25h1.483c.678 0 1.18.127 1.505.381.326.253.489.636.489 1.149 0 .653-.34 1.119-1.02 1.397l1.483 2.323h-.977l-1.257-2.097h-.847zm5.49 2.169c-.617 0-1.1-.18-1.45-.539-.348-.361-.521-.858-.521-1.49 0-.649.161-1.159.485-1.53.323-.371.767-.556 1.332-.556.524 0 .938.159 1.243.477.304.319.456.757.456 1.314v.457H56.99c.012.385.116.682.312.89.197.206.473.309.83.309.235 0 .453-.022.654-.065.203-.045.42-.119.653-.222v.686a2.61 2.61 0 01-.625.208c-.21.041-.451.061-.721.061zm-.154-3.476c-.268 0-.484.085-.646.255-.16.17-.257.417-.288.743h1.803c-.005-.328-.084-.576-.237-.743-.153-.17-.364-.255-.632-.255zm6.004 3.404h-.847v-2.449c0-.304-.058-.53-.172-.679-.115-.151-.295-.226-.54-.226-.325 0-.564.107-.717.32-.151.21-.227.562-.227 1.055v1.979h-.843v-3.972h.66l.119.521h.043c.11-.189.27-.335.477-.438a1.56 1.56 0 01.694-.154c.61 0 1.015.208 1.213.624h.058a1.21 1.21 0 01.495-.459c.213-.11.458-.165.733-.165.474 0 .819.119 1.034.359.218.239.327.604.327 1.095v2.589h-.844v-2.449c0-.304-.059-.53-.176-.679-.115-.151-.294-.226-.538-.226-.329 0-.57.103-.722.309-.151.203-.227.517-.227.941v2.104zm4.529 0h-.844v-3.972h.844v3.972zm-.894-5.024c0-.151.04-.267.122-.348.084-.082.202-.122.355-.122.149 0 .264.04.345.122.084.081.126.197.126.348a.459.459 0 01-.126.341c-.081.082-.196.122-.345.122-.153 0-.272-.04-.355-.122a.467.467 0 01-.122-.341zm5.598 5.024h-.847v-2.442c0-.306-.063-.535-.187-.686-.122-.151-.317-.226-.585-.226-.357 0-.618.105-.783.316-.165.211-.248.564-.248 1.059v1.979h-.844v-3.972h.66l.12.521h.042c.12-.189.29-.335.51-.438a1.71 1.71 0 01.733-.154c.953 0 1.43.484 1.43 1.454v2.589zm2.514.072c-.496 0-.882-.18-1.16-.539-.278-.359-.416-.863-.416-1.512 0-.651.14-1.157.42-1.519.282-.364.672-.545 1.17-.545.522 0 .92.192 1.193.578h.043a5.063 5.063 0 01-.061-.675v-1.448h.847v5.588h-.66l-.148-.521h-.04c-.27.395-.666.593-1.188.593zm.226-.682c.347 0 .6-.097.758-.291.158-.197.24-.514.244-.952v-.118c0-.501-.081-.856-.244-1.067-.163-.211-.418-.316-.765-.316a.775.775 0 00-.686.363c-.16.239-.24.581-.24 1.027 0 .44.077.777.233 1.009.156.23.389.345.7.345zm4.751.682c-.617 0-1.101-.18-1.45-.539-.348-.361-.521-.858-.521-1.49 0-.649.161-1.159.485-1.53.323-.371.767-.556 1.332-.556.524 0 .938.159 1.242.477.304.319.456.757.456 1.314v.457h-2.646c.012.385.116.682.312.89.197.206.473.309.83.309.234 0 .452-.022.653-.065.204-.045.422-.119.654-.222v.686a2.61 2.61 0 01-.625.208 3.8 3.8 0 01-.722.061zm-.154-3.476c-.268 0-.484.085-.647.255-.16.17-.256.417-.287.743h1.803c-.005-.328-.084-.576-.237-.743-.153-.17-.364-.255-.632-.255zm4.672-.639c.17 0 .31.011.42.035l-.082.787a1.58 1.58 0 00-.374-.043c-.338 0-.612.11-.822.33-.209.22-.313.507-.313.858v2.076h-.844v-3.972h.661l.111.701h.043c.132-.237.303-.425.514-.564.213-.139.442-.208.686-.208zm3.914 4.043h-.844v-3.972h.844v3.972zm-.894-5.024c0-.151.04-.267.122-.348.084-.082.203-.122.356-.122.148 0 .263.04.344.122.084.081.126.197.126.348a.459.459 0 01-.126.341c-.081.082-.196.122-.344.122-.154 0-.272-.04-.356-.122a.467.467 0 01-.122-.341zm5.599 5.024h-.848v-2.442c0-.306-.062-.535-.187-.686-.122-.151-.317-.226-.585-.226-.357 0-.618.105-.783.316-.165.211-.248.564-.248 1.059v1.979h-.844v-3.972h.661l.119.521h.043c.12-.189.29-.335.51-.438.22-.103.464-.154.732-.154.953 0 1.43.484 1.43 1.454v2.589zm7.042 0h-.988l-1.314-2.147-1.325 2.147h-.92l1.742-2.722-1.63-2.528h.955l1.214 1.986 1.214-1.986h.926l-1.641 2.542 1.767 2.708zm6.888-2.675c0 .866-.241 1.53-.722 1.989-.481.457-1.175.686-2.079.686h-1.469v-5.25h1.623c.835 0 1.485.225 1.95.675.464.45.697 1.083.697 1.9zm-.905.028c0-1.256-.588-1.885-1.764-1.885h-.743v3.81h.611c1.264 0 1.896-.641 1.896-1.925zm4.431 2.647l-.169-.553h-.028c-.192.242-.385.407-.579.496-.194.086-.442.129-.747.129-.39 0-.695-.105-.915-.316-.218-.211-.327-.509-.327-.894 0-.41.152-.718.456-.927.304-.208.767-.322 1.39-.341l.686-.021v-.212c0-.254-.06-.443-.18-.568-.117-.127-.3-.19-.549-.19-.204 0-.399.03-.586.09-.186.06-.366.13-.538.212l-.273-.604a2.92 2.92 0 01.707-.255c.256-.06.498-.089.726-.089.505 0 .885.11 1.142.33.258.22.387.566.387 1.038v2.675h-.603zm-1.257-.574c.307 0 .552-.085.736-.255.187-.173.28-.413.28-.722v-.345l-.509.022c-.398.014-.688.081-.87.201-.179.117-.269.298-.269.542 0 .177.053.315.158.413.106.096.264.144.474.144zm2.435-3.398h.919l.808 2.252c.122.321.204.622.245.905h.028c.022-.132.061-.291.119-.478.057-.189.361-1.082.912-2.679h.912l-1.699 4.5c-.308.826-.823 1.239-1.544 1.239-.186 0-.368-.02-.546-.061v-.668c.127.029.272.043.435.043.407 0 .693-.236.858-.707l.147-.374-1.594-3.972zm7.215 2.841c0 .388-.142.686-.424.894-.283.206-.687.309-1.214.309-.529 0-.954-.08-1.275-.241v-.729c.467.216.902.324 1.304.324.519 0 .779-.157.779-.471 0-.1-.029-.184-.086-.251a1.03 1.03 0 00-.284-.209 5.118 5.118 0 00-.549-.244c-.458-.177-.768-.354-.93-.531-.161-.177-.241-.407-.241-.69 0-.34.136-.603.409-.79.276-.189.649-.283 1.121-.283.467 0 .908.094 1.325.283l-.273.636c-.429-.177-.789-.266-1.081-.266-.445 0-.668.127-.668.381 0 .124.058.23.172.316.118.086.372.204.762.355.328.127.566.243.714.349.149.105.259.227.331.366.072.136.108.3.108.492z" fill="#38424B"/><path fill-rule="evenodd" clip-rule="evenodd" d="M125.861 170.605a3.152 3.152 0 100-6.303 3.152 3.152 0 000 6.303zm-.241-2.459a.311.311 0 010-.458c.108-.103.22-.191.351-.282.045-.031.153-.102.224-.148l.064-.043c.247-.167.311-.266.311-.543 0-.407-.291-.673-.709-.673-.42 0-.709.263-.709.673a.332.332 0 01-.342.323.332.332 0 01-.341-.323c0-.774.601-1.32 1.392-1.32.789 0 1.392.549 1.392 1.32 0 .508-.184.791-.597 1.07l-.084.056-.199.132c-.104.072-.19.139-.271.216a.353.353 0 01-.482 0zm.241 1.408a.393.393 0 11-.001-.787.393.393 0 01.001.787z" fill="#81919D"/><path d="M31.608 178.156c0-1.161.94-2.102 2.101-2.102h216.436c1.161 0 2.102.941 2.102 2.102v12.608c0 1.16-.941 2.101-2.102 2.101H33.709a2.101 2.101 0 01-2.101-2.101v-12.608z" fill="#fff"/><path d="M39.65 184.625c0 .907-.144 1.585-.431 2.032-.285.448-.722.672-1.311.672-.565 0-.995-.229-1.29-.686-.294-.46-.441-1.132-.441-2.018 0-.915.142-1.593.427-2.036.285-.443.72-.665 1.304-.665.57 0 1.002.231 1.296.693.297.462.446 1.132.446 2.008zm-2.87 0c0 .763.09 1.32.27 1.67.179.347.465.52.858.52.397 0 .684-.176.862-.528.18-.354.269-.908.269-1.662 0-.754-.09-1.306-.27-1.656-.176-.352-.464-.528-.861-.528-.393 0-.679.174-.858.521-.18.345-.27.899-.27 1.663z" fill="#38424B"/><path d="M33.71 176.58h216.435v-1.051H33.709v1.051zm218.011 1.576v12.608h1.051v-12.608h-1.051zm-1.576 14.184H33.709v1.05h216.436v-1.05zm-218.012-1.576v-12.608h-1.05v12.608h1.05zm1.576 1.576c-.87 0-1.576-.706-1.576-1.576h-1.05a2.627 2.627 0 002.626 2.626v-1.05zm218.012-1.576c0 .87-.705 1.576-1.576 1.576v1.05a2.627 2.627 0 002.627-2.626h-1.051zm-1.576-14.184c.871 0 1.576.705 1.576 1.576h1.051a2.627 2.627 0 00-2.627-2.627v1.051zm-216.436-1.051a2.627 2.627 0 00-2.626 2.627h1.05c0-.871.706-1.576 1.576-1.576v-1.051z" fill="#81919D"/><path d="M35.328 208.845c0 .466-.169.833-.506 1.098-.338.266-.803.399-1.397.399s-1.08-.092-1.458-.276v-.812c.24.112.493.201.761.266.27.064.522.097.755.097.34 0 .59-.065.75-.194a.632.632 0 00.244-.521.652.652 0 00-.222-.499c-.149-.137-.455-.298-.92-.485-.479-.194-.816-.415-1.013-.664a1.407 1.407 0 01-.294-.898c0-.438.156-.783.467-1.034.311-.252.729-.377 1.253-.377.503 0 1.003.11 1.501.33l-.273.7c-.466-.196-.883-.294-1.25-.294-.277 0-.488.061-.631.183a.591.591 0 00-.216.478c0 .136.029.253.086.352a.893.893 0 00.284.272c.132.087.369.2.711.342.386.16.668.31.848.448.18.139.31.296.395.471.083.175.125.381.125.618zm2.661 1.497c-.617 0-1.1-.179-1.45-.539-.348-.361-.521-.858-.521-1.49 0-.649.161-1.159.485-1.53.323-.371.767-.556 1.332-.556.524 0 .938.159 1.242.477.305.319.456.757.456 1.315v.456h-2.646c.012.385.116.682.312.89.197.206.473.309.83.309.234 0 .452-.021.653-.065.204-.045.422-.119.654-.222v.686a2.611 2.611 0 01-.625.208 3.8 3.8 0 01-.722.061zm-.154-3.476c-.268 0-.484.085-.647.255-.16.17-.256.418-.287.743h1.803c-.005-.328-.084-.576-.237-.743-.153-.17-.364-.255-.632-.255zm6.151 3.404h-.847v-2.442c0-.306-.062-.535-.187-.686-.122-.15-.317-.226-.585-.226-.357 0-.618.105-.783.316-.165.211-.248.564-.248 1.06v1.978h-.844v-3.972h.661l.119.521h.043c.12-.189.29-.335.51-.438.22-.103.464-.154.732-.154.953 0 1.43.484 1.43 1.454v2.589zm2.514.072c-.495 0-.882-.179-1.16-.539-.277-.359-.416-.863-.416-1.511 0-.652.14-1.158.42-1.519.282-.364.673-.546 1.17-.546.523 0 .92.192 1.193.578h.043a5.06 5.06 0 01-.061-.675v-1.448h.847v5.588h-.66l-.148-.52h-.039c-.27.395-.667.592-1.189.592zm.227-.682c.347 0 .6-.097.757-.291.158-.196.24-.514.244-.952v-.118c0-.501-.08-.856-.244-1.067-.163-.211-.418-.316-.765-.316a.775.775 0 00-.686.363c-.16.239-.24.582-.24 1.027 0 .44.078.777.233 1.009.156.23.39.345.7.345zm5.875-2.198h.596c.4 0 .69-.074.869-.223.18-.148.27-.368.27-.66 0-.297-.098-.51-.292-.64-.194-.129-.486-.194-.876-.194h-.567v1.717zm0 .711v2.097h-.859v-5.25h1.483c.678 0 1.18.127 1.505.381.326.253.489.637.489 1.149 0 .653-.34 1.119-1.02 1.397l1.483 2.323h-.977l-1.257-2.097h-.847zm5.49 2.169c-.617 0-1.1-.179-1.45-.539-.348-.361-.521-.858-.521-1.49 0-.649.161-1.159.485-1.53.323-.371.767-.556 1.332-.556.524 0 .938.159 1.243.477.304.319.456.757.456 1.315v.456H56.99c.012.385.116.682.312.89.197.206.473.309.83.309.235 0 .453-.021.654-.065.203-.045.42-.119.653-.222v.686a2.61 2.61 0 01-.625.208c-.21.041-.451.061-.721.061zm-.154-3.476c-.268 0-.484.085-.646.255-.16.17-.257.418-.288.743h1.803c-.005-.328-.084-.576-.237-.743-.153-.17-.364-.255-.632-.255zm6.004 3.404h-.847v-2.449c0-.304-.058-.53-.172-.679-.115-.15-.295-.226-.54-.226-.325 0-.564.107-.717.32-.151.21-.227.562-.227 1.056v1.978h-.843v-3.972h.66l.119.521h.043c.11-.189.27-.335.477-.438a1.56 1.56 0 01.694-.154c.61 0 1.015.208 1.213.625h.058c.117-.197.282-.35.495-.46.213-.11.458-.165.733-.165.474 0 .819.119 1.034.359.218.239.327.604.327 1.095v2.589h-.844v-2.449c0-.304-.059-.53-.176-.679-.115-.15-.294-.226-.538-.226-.329 0-.57.103-.722.309-.151.203-.227.517-.227.941v2.104zm4.529 0h-.844v-3.972h.844v3.972zm-.894-5.024c0-.151.04-.267.122-.348a.49.49 0 01.355-.122c.149 0 .264.041.345.122.084.081.126.197.126.348a.459.459 0 01-.126.341.464.464 0 01-.345.123.487.487 0 01-.355-.123.467.467 0 01-.122-.341zm5.598 5.024h-.847v-2.442c0-.306-.063-.535-.187-.686-.122-.15-.317-.226-.585-.226-.357 0-.618.105-.783.316-.165.211-.248.564-.248 1.06v1.978h-.844v-3.972h.66l.12.521h.042c.12-.189.29-.335.51-.438a1.71 1.71 0 01.733-.154c.953 0 1.43.484 1.43 1.454v2.589zm2.514.072c-.496 0-.882-.179-1.16-.539-.278-.359-.416-.863-.416-1.511 0-.652.14-1.158.42-1.519.282-.364.672-.546 1.17-.546.522 0 .92.192 1.193.578h.043a5.063 5.063 0 01-.061-.675v-1.448h.847v5.588h-.66l-.148-.52h-.04c-.27.395-.666.592-1.188.592zm.226-.682c.347 0 .6-.097.758-.291.158-.196.24-.514.244-.952v-.118c0-.501-.081-.856-.244-1.067-.163-.211-.418-.316-.765-.316a.775.775 0 00-.686.363c-.16.239-.24.582-.24 1.027 0 .44.077.777.233 1.009.156.23.389.345.7.345zm4.751.682c-.617 0-1.101-.179-1.45-.539-.348-.361-.521-.858-.521-1.49 0-.649.161-1.159.485-1.53.323-.371.767-.556 1.332-.556.524 0 .938.159 1.242.477.304.319.456.757.456 1.315v.456h-2.646c.012.385.116.682.312.89.197.206.473.309.83.309.234 0 .452-.021.653-.065.204-.045.422-.119.654-.222v.686a2.61 2.61 0 01-.625.208 3.8 3.8 0 01-.722.061zm-.154-3.476c-.268 0-.484.085-.647.255-.16.17-.256.418-.287.743h1.803c-.005-.328-.084-.576-.237-.743-.153-.17-.364-.255-.632-.255zm4.672-.639c.17 0 .31.012.42.036l-.082.786a1.58 1.58 0 00-.374-.043c-.338 0-.612.11-.822.33-.209.221-.313.507-.313.859v2.075h-.844v-3.972h.661l.111.701h.043c.132-.237.303-.425.514-.564.213-.139.442-.208.686-.208zm6.13 4.043h-2.97v-5.25h2.97v.725h-2.112v1.43h1.98v.718h-1.98v1.648h2.112v.729zm1.954 0l-1.509-3.972h.89l.809 2.31c.139.387.222.701.251.94h.029c.022-.172.105-.486.251-.94l.808-2.31h.898l-1.515 3.972h-.912zm4.765.072c-.618 0-1.101-.179-1.45-.539-.348-.361-.522-.858-.522-1.49 0-.649.162-1.159.485-1.53.323-.371.768-.556 1.333-.556.524 0 .938.159 1.242.477.304.319.456.757.456 1.315v.456H96.93c.012.385.117.682.313.89.196.206.473.309.83.309.234 0 .452-.021.653-.065.204-.045.421-.119.654-.222v.686a2.608 2.608 0 01-.625.208 3.8 3.8 0 01-.722.061zm-.154-3.476c-.269 0-.484.085-.647.255-.16.17-.256.418-.287.743h1.803c-.005-.328-.084-.576-.237-.743-.154-.17-.364-.255-.632-.255zm4.672-.639c.17 0 .31.012.42.036l-.083.786a1.58 1.58 0 00-.373-.043c-.338 0-.612.11-.823.33-.208.221-.312.507-.312.859v2.075h-.844v-3.972h.661l.111.701h.043c.132-.237.303-.425.514-.564a1.23 1.23 0 01.686-.208zm.556.071h.92l.808 2.252c.122.321.203.623.244.905h.028c.022-.132.062-.291.119-.478.057-.189.362-1.082.912-2.679h.912l-1.698 4.5c-.309.826-.824 1.239-1.544 1.239-.187 0-.369-.02-.546-.061v-.668c.127.029.271.043.434.043.407 0 .693-.236.858-.707l.148-.374-1.595-3.972zm10.415 3.972h-.988l-1.314-2.147-1.326 2.147h-.919l1.742-2.722-1.631-2.528h.956l1.213 1.986 1.214-1.986h.927l-1.641 2.543 1.767 2.707zm6.887-2.675c0 .867-.24 1.53-.722 1.989-.481.458-1.174.686-2.079.686h-1.469v-5.25h1.624c.835 0 1.485.225 1.95.675.464.45.696 1.083.696 1.9zm-.905.029c0-1.257-.587-1.886-1.763-1.886h-.743v3.81h.61c1.264 0 1.896-.641 1.896-1.924zm4.432 2.646l-.169-.553h-.029c-.191.242-.384.407-.578.496-.194.086-.443.129-.747.129-.39 0-.695-.105-.916-.316-.217-.211-.326-.509-.326-.894 0-.41.152-.718.456-.927.304-.208.767-.322 1.389-.341l.686-.021v-.212c0-.254-.06-.443-.179-.568-.118-.126-.301-.19-.55-.19-.203 0-.398.03-.585.09-.187.06-.366.13-.539.212l-.273-.604c.216-.112.452-.197.708-.255.256-.059.498-.089.725-.089.505 0 .886.11 1.142.33.259.22.388.566.388 1.038v2.675h-.603zm-1.257-.574c.306 0 .552-.085.736-.255.187-.173.28-.413.28-.722v-.345l-.51.022c-.397.014-.687.081-.869.201-.179.117-.269.298-.269.542 0 .177.053.315.158.413.105.096.263.144.474.144zm2.435-3.398h.919l.808 2.252c.122.321.203.623.244.905h.029c.021-.132.061-.291.118-.478.058-.189.362-1.082.913-2.679h.912l-1.699 4.5c-.309.826-.823 1.239-1.544 1.239-.187 0-.369-.02-.546-.061v-.668c.127.029.272.043.435.043.407 0 .693-.236.858-.707l.147-.374-1.594-3.972zm7.214 2.841c0 .388-.141.686-.424.894-.282.206-.687.309-1.213.309-.529 0-.954-.08-1.275-.241v-.729c.467.216.901.324 1.303.324.52 0 .78-.157.78-.471a.37.37 0 00-.087-.251 1.003 1.003 0 00-.283-.208 4.847 4.847 0 00-.55-.245c-.457-.177-.767-.354-.93-.531-.16-.177-.24-.407-.24-.69 0-.34.136-.603.409-.79.275-.189.649-.283 1.12-.283.467 0 .909.094 1.326.283l-.273.636c-.429-.177-.789-.266-1.081-.266-.446 0-.668.127-.668.381 0 .124.057.23.172.316.117.086.371.205.761.355.328.127.567.243.715.349.149.105.259.227.33.366.072.137.108.301.108.492z" fill="#38424B"/><path fill-rule="evenodd" clip-rule="evenodd" d="M138.861 210.922a3.152 3.152 0 100-6.303 3.152 3.152 0 000 6.303zm-.241-2.459a.311.311 0 010-.458c.108-.102.22-.191.351-.281.045-.032.153-.103.224-.149l.064-.043c.247-.166.311-.266.311-.543 0-.407-.291-.673-.709-.673-.42 0-.709.263-.709.673a.333.333 0 01-.342.324.333.333 0 01-.341-.324c0-.774.601-1.32 1.392-1.32.789 0 1.392.549 1.392 1.32 0 .508-.184.791-.597 1.07l-.084.056-.199.132c-.104.072-.19.14-.271.216a.353.353 0 01-.482 0zm.241 1.408a.393.393 0 11-.001-.787.393.393 0 01.001.787z" fill="#81919D"/><path d="M31.608 218.473a2.1 2.1 0 012.101-2.101h216.436c1.161 0 2.102.94 2.102 2.101v12.608c0 1.16-.941 2.101-2.102 2.101H33.709a2.101 2.101 0 01-2.101-2.101v-12.608z" fill="#fff"/><path d="M39.65 224.942c0 .907-.144 1.585-.431 2.033-.285.447-.722.671-1.311.671-.565 0-.995-.229-1.29-.686-.294-.46-.441-1.132-.441-2.018 0-.915.142-1.593.427-2.036.285-.443.72-.665 1.304-.665.57 0 1.002.231 1.296.693.297.463.446 1.132.446 2.008zm-2.87 0c0 .764.09 1.32.27 1.67.179.347.465.521.858.521.397 0 .684-.176.862-.528.18-.355.269-.909.269-1.663s-.09-1.306-.27-1.656c-.176-.352-.464-.527-.861-.527-.393 0-.679.173-.858.52-.18.345-.27.899-.27 1.663z" fill="#38424B"/><path d="M33.71 216.897h216.435v-1.051H33.709v1.051zm218.011 1.576v12.608h1.051v-12.608h-1.051zm-1.576 14.184H33.709v1.05h216.436v-1.05zm-218.012-1.576v-12.608h-1.05v12.608h1.05zm1.576 1.576c-.87 0-1.576-.706-1.576-1.576h-1.05a2.627 2.627 0 002.626 2.626v-1.05zm218.012-1.576c0 .87-.705 1.576-1.576 1.576v1.05a2.627 2.627 0 002.627-2.626h-1.051zm-1.576-14.184c.871 0 1.576.706 1.576 1.576h1.051a2.627 2.627 0 00-2.627-2.627v1.051zm-216.436-1.051a2.627 2.627 0 00-2.626 2.627h1.05c0-.87.706-1.576 1.576-1.576v-1.051z" fill="#81919D"/></g><g filter="url(#filter0_d_2582_55816)"><g clip-path="url(#clip2_2582_55816)"><rect x="31.608" y="96.336" width="220.639" height="75.648" rx="2.101" fill="#fff"/><path fill="#fff" d="M31.608 100.539h220.639v16.811H31.607z"/><path d="M244.068 106.264a.526.526 0 00-.781-.703l-4.377 4.863-2.236-2.013a.526.526 0 00-.703.781l2.627 2.364a.525.525 0 00.742-.039l4.728-5.253z" fill="#0777CF"/><path d="M57.688 111.336h-1.052l-2.582-4.183h-.029l.018.233c.034.445.05.852.05 1.221v2.729h-.779v-5.25h1.042l2.574 4.162h.022a24 24 0 01-.029-.599 20.922 20.922 0 01-.021-.812v-2.751h.786v5.25zm4.82-1.993c0 .649-.167 1.155-.5 1.519-.333.364-.796.546-1.39.546a1.91 1.91 0 01-.983-.251 1.66 1.66 0 01-.658-.722 2.459 2.459 0 01-.23-1.092c0-.644.166-1.146.496-1.508.33-.361.796-.542 1.397-.542.575 0 1.03.185 1.365.556.335.369.502.867.502 1.494zm-2.891 0c0 .917.338 1.376 1.016 1.376.67 0 1.005-.459 1.005-1.376 0-.907-.337-1.361-1.012-1.361-.355 0-.612.118-.772.352-.158.235-.237.571-.237 1.009zm9.121 1.993l-.524-1.458h-2.008l-.513 1.458h-.905l1.964-5.271h.934l1.964 5.271h-.912zm-.75-2.197l-.492-1.43a10.923 10.923 0 01-.28-.905c-.065.295-.16.617-.284.966l-.474 1.369h1.53zm5.067 2.197l-.119-.52h-.043a1.194 1.194 0 01-.503.434 1.654 1.654 0 01-.74.158c-.48 0-.84-.119-1.077-.359-.237-.239-.355-.602-.355-1.088v-2.596h.85v2.449c0 .304.063.532.187.686.125.151.32.226.586.226.354 0 .614-.105.78-.316.167-.213.25-.569.25-1.067v-1.978h.848v3.971h-.664zm3.346-.61c.206 0 .412-.032.618-.097v.636c-.093.04-.214.074-.363.1a2.337 2.337 0 01-.456.043c-.8 0-1.199-.421-1.199-1.264v-2.14h-.542v-.374l.581-.308.288-.841h.52v.884h1.132v.639h-1.132v2.126c0 .203.05.354.151.452a.566.566 0 00.403.144zm4.91.61h-.848v-2.442c0-.306-.062-.535-.187-.685-.122-.151-.317-.227-.585-.227-.354 0-.615.107-.783.32-.165.211-.248.565-.248 1.063v1.971h-.844v-5.587h.844v1.418c0 .228-.014.471-.043.729h.054c.115-.191.274-.34.478-.445.206-.106.445-.158.718-.158.962 0 1.444.485 1.444 1.454v2.589zm2.908.072c-.617 0-1.1-.179-1.45-.538-.348-.362-.521-.859-.521-1.491 0-.649.161-1.158.485-1.53.323-.371.767-.556 1.332-.556.524 0 .939.159 1.243.477.304.319.456.757.456 1.315v.456h-2.647c.012.385.116.682.312.89.197.206.473.309.83.309.234 0 .452-.021.653-.064.204-.046.422-.12.654-.223v.686a2.61 2.61 0 01-.625.208 3.8 3.8 0 01-.722.061zm-.154-3.476c-.268 0-.484.085-.646.255-.16.17-.257.418-.288.743h1.803c-.005-.328-.084-.575-.237-.743-.153-.17-.364-.255-.632-.255zm6.152 3.404h-.848v-2.442c0-.306-.062-.535-.187-.685-.122-.151-.317-.227-.585-.227-.357 0-.618.106-.783.316-.165.211-.248.564-.248 1.06v1.978h-.844v-3.971h.661l.119.52h.043c.12-.189.29-.335.51-.438.22-.103.464-.154.732-.154.953 0 1.43.485 1.43 1.454v2.589zm2.653-.61c.206 0 .412-.032.618-.097v.636c-.093.04-.214.074-.363.1a2.337 2.337 0 01-.456.043c-.8 0-1.2-.421-1.2-1.264v-2.14h-.541v-.374l.581-.308.288-.841h.52v.884h1.132v.639h-1.132v2.126c0 .203.05.354.151.452a.566.566 0 00.402.144zm2.26.61h-.845v-3.971h.844v3.971zm-.895-5.024c0-.15.04-.267.122-.348a.49.49 0 01.356-.122c.148 0 .263.041.344.122.084.081.126.198.126.348a.463.463 0 01-.126.342.468.468 0 01-.344.122.49.49 0 01-.356-.122.47.47 0 01-.122-.342zm3.706 5.096c-.6 0-1.058-.175-1.372-.524-.31-.352-.466-.856-.466-1.512 0-.668.162-1.181.488-1.541.328-.359.8-.538 1.418-.538.42 0 .796.078 1.132.233l-.255.679c-.357-.139-.652-.208-.884-.208-.687 0-1.03.456-1.03 1.368 0 .445.085.78.255 1.005.172.223.423.334.754.334.376 0 .731-.093 1.066-.28v.736c-.15.089-.312.152-.485.191a2.89 2.89 0 01-.62.057zm4.525-.072l-.169-.553h-.029c-.191.242-.384.407-.578.496-.194.086-.443.129-.747.129-.39 0-.695-.105-.915-.316-.218-.21-.327-.509-.327-.894 0-.409.152-.718.456-.926.304-.209.767-.322 1.39-.342l.686-.021v-.212c0-.254-.06-.443-.18-.567-.117-.127-.301-.191-.549-.191-.204 0-.399.03-.586.09-.187.06-.366.13-.539.212l-.272-.603a2.84 2.84 0 01.707-.255c.256-.06.498-.09.725-.09.506 0 .886.11 1.142.33.259.22.388.566.388 1.038v2.675h-.603zm-1.257-.574c.306 0 .552-.085.736-.255.187-.172.28-.413.28-.722v-.345l-.51.022c-.397.014-.687.081-.869.201-.179.117-.269.298-.269.542 0 .177.053.315.158.413.105.096.263.144.474.144zm4.518-.036c.206 0 .411-.032.617-.097v.636a1.66 1.66 0 01-.362.1 2.336 2.336 0 01-.456.043c-.8 0-1.2-.421-1.2-1.264v-2.14h-.542v-.374l.582-.308.287-.841h.521v.884h1.131v.639h-1.131v2.126c0 .203.05.354.15.452a.567.567 0 00.403.144zm2.258.61h-.843v-3.971h.843v3.971zm-.894-5.024c0-.15.041-.267.122-.348a.493.493 0 01.356-.122.47.47 0 01.345.122c.083.081.125.198.125.348a.466.466 0 01-.125.342.47.47 0 01-.345.122.493.493 0 01-.356-.122.472.472 0 01-.122-.342zm5.628 3.031c0 .649-.167 1.155-.5 1.519-.332.364-.796.546-1.389.546a1.91 1.91 0 01-.984-.251 1.658 1.658 0 01-.657-.722 2.448 2.448 0 01-.23-1.092c0-.644.165-1.146.495-1.508.331-.361.796-.542 1.397-.542.575 0 1.03.185 1.365.556.335.369.503.867.503 1.494zm-2.891 0c0 .917.338 1.376 1.016 1.376.67 0 1.006-.459 1.006-1.376 0-.907-.338-1.361-1.013-1.361-.354 0-.612.118-.772.352-.158.235-.237.571-.237 1.009zm7.358 1.993h-.848v-2.442c0-.306-.062-.535-.186-.685-.122-.151-.318-.227-.586-.227-.356 0-.617.106-.783.316-.165.211-.247.564-.247 1.06v1.978h-.844v-3.971h.661l.118.52h.043c.12-.189.29-.335.51-.438a1.71 1.71 0 01.733-.154c.953 0 1.429.485 1.429 1.454v2.589z" fill="#076DBD"/><path fill-rule="evenodd" clip-rule="evenodd" d="M44.216 112.742a4.203 4.203 0 110-8.406 4.203 4.203 0 010 8.406zm2.57-2.377a3.152 3.152 0 00-4.396-4.395l4.395 4.395zm-.744.743a3.152 3.152 0 01-4.396-4.395l4.396 4.395z" fill="#0777CF"/><path fill="#fff" d="M31.608 117.35h220.639v16.811H31.607z"/><path d="M56.672 124.427c0 .531-.182.94-.546 1.228-.361.285-.88.427-1.555.427h-.618v2.065h-.61v-5.25h1.36c1.313 0 1.969.51 1.969 1.53zm-2.719 1.131h.55c.54 0 .932-.088 1.174-.262.242-.175.363-.455.363-.841 0-.347-.114-.605-.341-.775-.228-.17-.582-.255-1.063-.255h-.683v2.133zm6.152 2.589l-.118-.56h-.03c-.196.246-.392.414-.588.503a1.802 1.802 0 01-.73.129c-.39 0-.696-.101-.919-.302-.22-.201-.33-.487-.33-.858 0-.795.636-1.212 1.907-1.25l.668-.021v-.245c0-.308-.067-.536-.201-.682-.132-.148-.344-.223-.636-.223-.328 0-.699.101-1.113.302l-.183-.456a2.832 2.832 0 011.332-.338c.47 0 .816.105 1.042.313.227.208.34.542.34 1.002v2.686h-.441zm-1.347-.42c.371 0 .662-.102.873-.305.213-.204.32-.489.32-.855v-.356l-.596.025c-.475.017-.817.091-1.028.223-.208.129-.312.332-.312.607 0 .216.065.38.194.492.132.113.315.169.55.169zm5.56-.654c0 .367-.137.649-.41.848-.273.198-.656.298-1.15.298-.521 0-.928-.083-1.22-.248v-.553c.189.096.391.171.607.226.218.055.427.083.628.083.311 0 .55-.049.718-.147a.498.498 0 00.252-.456.487.487 0 00-.201-.392c-.132-.11-.39-.239-.776-.388-.366-.136-.627-.255-.783-.355a1.102 1.102 0 01-.345-.349.913.913 0 01-.11-.463.88.88 0 01.39-.758c.261-.186.62-.28 1.074-.28.424 0 .838.086 1.243.259l-.212.485c-.395-.163-.753-.245-1.074-.245-.282 0-.495.045-.639.133a.412.412 0 00-.216.367.45.45 0 00.08.269.823.823 0 00.262.212c.12.067.35.164.69.291.466.17.78.341.944.513a.903.903 0 01.247.65zm3.511 0c0 .367-.136.649-.409.848-.273.198-.656.298-1.149.298-.522 0-.929-.083-1.221-.248v-.553c.19.096.391.171.607.226.218.055.427.083.628.083.312 0 .551-.049.719-.147a.498.498 0 00.25-.456.487.487 0 00-.2-.392c-.132-.11-.39-.239-.776-.388-.366-.136-.627-.255-.783-.355a1.103 1.103 0 01-.345-.349.913.913 0 01-.11-.463.88.88 0 01.39-.758c.262-.186.62-.28 1.074-.28.424 0 .838.086 1.243.259l-.212.485c-.395-.163-.753-.245-1.074-.245-.282 0-.495.045-.639.133a.412.412 0 00-.215.367.45.45 0 00.079.269.823.823 0 00.262.212c.12.067.35.164.69.291.466.17.78.341.944.513a.903.903 0 01.248.65zm4.188 1.074l-.722-2.309c-.046-.141-.13-.462-.255-.963h-.029c-.096.419-.18.743-.251.97l-.744 2.302h-.689l-1.074-3.936h.625c.254.989.447 1.742.578 2.259.134.517.211.865.23 1.045h.029a9.588 9.588 0 01.28-1.045l.722-2.259h.646l.704 2.259c.134.412.225.758.273 1.038h.029c.01-.086.034-.219.075-.399.043-.179.293-1.145.75-2.898h.618l-1.088 3.936h-.707zm5.907-1.972c0 .642-.161 1.144-.485 1.505-.323.359-.77.539-1.34.539-.351 0-.663-.083-.936-.248a1.633 1.633 0 01-.632-.711 2.477 2.477 0 01-.223-1.085c0-.641.16-1.14.481-1.497.32-.359.766-.539 1.336-.539.55 0 .988.183 1.31.55.326.366.49.862.49 1.486zm-2.998 0c0 .503.1.886.301 1.15.201.263.497.395.887.395s.686-.131.887-.392c.204-.263.305-.647.305-1.153 0-.5-.101-.879-.305-1.138-.2-.261-.499-.391-.894-.391-.39 0-.685.128-.883.384-.2.256-.298.638-.298 1.145zm5.842-2.036c.175 0 .332.015.47.043l-.082.553a2.019 2.019 0 00-.43-.053c-.32 0-.592.129-.82.387-.225.259-.337.581-.337.966v2.112h-.596v-3.936h.492l.068.729h.029a1.72 1.72 0 01.528-.592c.206-.139.432-.209.678-.209zm3.886 3.48h-.032c-.276.4-.688.6-1.236.6-.514 0-.915-.176-1.203-.528-.285-.352-.427-.852-.427-1.501 0-.649.144-1.153.43-1.512.288-.359.688-.539 1.2-.539.534 0 .944.194 1.228.582h.047l-.025-.284-.014-.276v-1.602h.596v5.588h-.485l-.08-.528zm-1.192.101c.407 0 .701-.11.883-.331.184-.222.277-.58.277-1.074v-.125c0-.558-.094-.955-.28-1.192-.185-.24-.48-.36-.888-.36-.349 0-.617.137-.804.41-.184.27-.276.653-.276 1.149 0 .503.092.882.276 1.138.184.257.455.385.812.385z" fill="#38424B"/><path fill-rule="evenodd" clip-rule="evenodd" d="M46.843 123.774a2.63 2.63 0 00-2.627-2.627 2.63 2.63 0 00-2.627 2.627c-.58 0-1.05.471-1.05 1.05v3.678c0 .58.47 1.05 1.05 1.05h5.254c.58 0 1.05-.47 1.05-1.05v-3.678c0-.579-.47-1.05-1.05-1.05zm-2.627-1.576c.869 0 1.576.707 1.576 1.576H42.64c0-.869.707-1.576 1.576-1.576zm-2.627 6.304h5.252l.002-3.678h-5.254v3.678z" fill="#546470"/><path fill="#fff" d="M31.608 134.16h220.639v16.811H31.607z"/><path d="M54.959 144.958h-.61v-4.708h-1.663v-.543h3.936v.543h-1.663v4.708zm4.03.071c-.583 0-1.042-.177-1.38-.531-.335-.354-.503-.846-.503-1.476 0-.635.156-1.138.467-1.512.314-.373.734-.56 1.26-.56.494 0 .884.163 1.171.488.288.323.431.751.431 1.282v.377h-2.71c.011.462.127.813.347 1.053.223.239.535.359.938.359.424 0 .842-.089 1.257-.266v.531a3.038 3.038 0 01-.6.194 3.219 3.219 0 01-.679.061zm-.162-3.58c-.316 0-.569.103-.758.309-.187.206-.297.491-.33.855h2.057c0-.376-.084-.664-.251-.862-.168-.201-.407-.302-.718-.302zm3.576 1.494l-1.368-1.921h.679l1.038 1.508 1.034-1.508h.671l-1.368 1.921 1.44 2.015h-.675l-1.102-1.595-1.114 1.595h-.675l1.44-2.015zm4.18 1.594c.106 0 .207-.007.306-.021.098-.017.176-.034.233-.05v.456c-.065.031-.16.056-.287.075a1.948 1.948 0 01-.338.032c-.761 0-1.142-.401-1.142-1.203v-2.341h-.564v-.287l.564-.248.252-.841h.344v.913h1.142v.463h-1.142v2.316c0 .237.057.419.17.546.112.127.266.19.462.19zm5.653.421l-1.781-4.655h-.03c.034.369.051.807.051 1.315v3.34h-.564v-5.251h.92l1.662 4.331h.03l1.676-4.331h.912v5.251h-.61v-3.383c0-.388.017-.81.05-1.264h-.029l-1.795 4.647h-.492zm5.893.071c-.582 0-1.042-.177-1.38-.531-.334-.354-.502-.846-.502-1.476 0-.635.156-1.138.467-1.512.314-.373.734-.56 1.26-.56.494 0 .884.163 1.171.488.287.323.431.751.431 1.282v.377h-2.711c.012.462.128.813.348 1.053.223.239.535.359.937.359.424 0 .843-.089 1.257-.266v.531c-.21.091-.41.156-.6.194a3.219 3.219 0 01-.678.061zm-.162-3.58c-.316 0-.568.103-.757.309-.187.206-.297.491-.33.855h2.057c0-.376-.084-.664-.251-.862-.168-.201-.408-.302-.719-.302zm5.168 2.435c0 .366-.137.649-.41.847-.272.199-.655.298-1.149.298-.522 0-.929-.082-1.22-.247v-.553c.189.095.39.171.606.226.218.055.428.082.629.082.31 0 .55-.049.718-.147a.496.496 0 00.251-.456.485.485 0 00-.2-.391c-.132-.111-.391-.24-.776-.388-.367-.137-.628-.255-.783-.356a1.11 1.11 0 01-.345-.348.915.915 0 01-.111-.463c0-.321.13-.574.391-.758.261-.187.619-.28 1.074-.28.424 0 .838.086 1.242.258l-.212.485c-.395-.163-.752-.244-1.073-.244-.283 0-.496.044-.64.133a.41.41 0 00-.215.366.45.45 0 00.079.269.81.81 0 00.262.212c.12.067.35.164.69.291.466.17.781.341.944.514a.901.901 0 01.248.65zm3.512 0c0 .366-.136.649-.41.847-.272.199-.655.298-1.148.298-.522 0-.93-.082-1.221-.247v-.553c.189.095.39.171.606.226.218.055.428.082.629.082.311 0 .55-.049.718-.147a.496.496 0 00.251-.456.485.485 0 00-.2-.391c-.132-.111-.39-.24-.776-.388-.367-.137-.628-.255-.783-.356a1.11 1.11 0 01-.345-.348.915.915 0 01-.111-.463c0-.321.13-.574.391-.758.261-.187.619-.28 1.074-.28.424 0 .838.086 1.242.258l-.211.485c-.395-.163-.753-.244-1.074-.244-.283 0-.496.044-.64.133a.41.41 0 00-.215.366c0 .105.026.195.08.269a.81.81 0 00.261.212c.12.067.35.164.69.291.467.17.781.341.944.514a.901.901 0 01.248.65zm3.394 1.074l-.119-.561h-.029c-.196.247-.392.414-.589.503a1.802 1.802 0 01-.729.129c-.39 0-.696-.1-.919-.301-.22-.201-.33-.488-.33-.859 0-.794.635-1.211 1.907-1.249l.668-.022v-.244c0-.309-.067-.536-.201-.682-.132-.149-.344-.223-.636-.223-.328 0-.7.101-1.113.302l-.184-.456c.194-.106.406-.188.636-.248.232-.06.465-.09.697-.09.469 0 .816.104 1.041.312.228.209.341.543.341 1.002v2.687h-.441zm-1.347-.421c.371 0 .662-.101.873-.305.213-.203.32-.488.32-.855v-.355l-.597.025c-.474.017-.816.091-1.027.223-.208.129-.312.331-.312.607 0 .215.064.379.194.492.131.112.314.168.549.168zm6.241-3.515v.377l-.729.086a1.266 1.266 0 01.259.786c0 .386-.132.693-.395.923-.263.23-.625.345-1.085.345-.117 0-.227-.01-.33-.029-.254.134-.38.303-.38.507a.26.26 0 00.132.24c.089.051.24.076.456.076h.697c.426 0 .753.089.98.269.23.18.345.441.345.783 0 .436-.175.767-.524.995-.35.229-.86.344-1.53.344-.515 0-.912-.095-1.192-.287a.928.928 0 01-.417-.812c0-.239.077-.446.23-.621.153-.175.369-.293.646-.355a.639.639 0 01-.255-.212.568.568 0 01-.1-.334c0-.144.038-.27.115-.377.076-.108.197-.212.362-.313a1.068 1.068 0 01-.499-.427 1.265 1.265 0 01-.19-.69c0-.43.13-.762.388-.994.258-.235.625-.352 1.099-.352.206 0 .391.024.556.072h1.361zm-3.138 4.596c0 .213.09.375.269.485.18.11.437.165.772.165.5 0 .87-.075 1.11-.226.242-.148.363-.351.363-.607 0-.213-.066-.361-.198-.445-.132-.082-.38-.122-.743-.122h-.715c-.27 0-.481.064-.632.194-.15.129-.226.314-.226.556zm.323-3.336c0 .275.078.484.233.625.156.141.373.212.65.212.582 0 .873-.283.873-.848 0-.591-.294-.887-.883-.887-.28 0-.496.076-.647.227-.15.15-.226.374-.226.671zm5.286 2.747c-.582 0-1.041-.177-1.379-.531-.335-.354-.503-.846-.503-1.476 0-.635.156-1.138.467-1.512.314-.373.734-.56 1.26-.56.494 0 .884.163 1.171.488.288.323.431.751.431 1.282v.377h-2.711c.012.462.128.813.348 1.053.223.239.535.359.938.359a3.18 3.18 0 001.257-.266v.531a3.038 3.038 0 01-.6.194 3.219 3.219 0 01-.679.061zm-.162-3.58c-.316 0-.568.103-.757.309-.187.206-.297.491-.33.855h2.057c0-.376-.084-.664-.251-.862-.168-.201-.407-.302-.719-.302zm4.202 1.494c0-.635.092-1.228.277-1.781a4.439 4.439 0 01.804-1.455h.582c-.345.462-.605.97-.78 1.523a5.713 5.713 0 00-.258 1.706 5.42 5.42 0 001.031 3.185h-.575a4.22 4.22 0 01-.804-1.426 5.398 5.398 0 01-.277-1.752zm5.566.618c0 .462-.167.822-.502 1.081-.336.258-.791.387-1.365.387-.623 0-1.101-.08-1.437-.24v-.589c.216.091.451.163.704.215.254.053.505.079.754.079.407 0 .714-.076.92-.23a.764.764 0 00.309-.646.8.8 0 00-.112-.445.985.985 0 00-.366-.323c-.17-.099-.43-.21-.779-.334-.489-.175-.838-.382-1.049-.622-.208-.239-.312-.552-.312-.937 0-.405.152-.727.456-.966.304-.239.706-.359 1.206-.359.522 0 1.002.096 1.44.287l-.19.532a3.253 3.253 0 00-1.264-.273c-.323 0-.576.069-.758.208a.687.687 0 00-.273.578c0 .182.034.332.101.449a.967.967 0 00.337.32c.161.095.405.202.733.319.551.197.929.407 1.135.632.208.225.312.517.312.877zm3.397 1.397l-1.781-4.655h-.028c.033.369.05.807.05 1.315v3.34h-.564v-5.251h.919l1.663 4.331h.029l1.677-4.331h.912v5.251h-.611v-3.383c0-.388.017-.81.051-1.264h-.029l-1.796 4.647h-.492zm7.283-1.397c0 .462-.167.822-.502 1.081-.336.258-.791.387-1.365.387-.623 0-1.101-.08-1.437-.24v-.589c.216.091.451.163.704.215.254.053.505.079.754.079.407 0 .714-.076.92-.23a.764.764 0 00.309-.646.8.8 0 00-.112-.445.985.985 0 00-.366-.323c-.17-.099-.43-.21-.779-.334-.489-.175-.838-.382-1.049-.622-.208-.239-.312-.552-.312-.937 0-.405.152-.727.456-.966.304-.239.706-.359 1.206-.359.522 0 1.002.096 1.44.287l-.19.532a3.253 3.253 0 00-1.264-.273c-.323 0-.576.069-.758.208a.687.687 0 00-.273.578c0 .182.034.332.101.449a.967.967 0 00.337.32c.161.095.405.202.733.319.551.197.929.407 1.135.632.208.225.312.517.312.877zm2.234-.618c0 .63-.093 1.216-.28 1.76a4.172 4.172 0 01-.801 1.418h-.575c.333-.45.588-.949.765-1.497a5.459 5.459 0 00.266-1.688c0-.584-.087-1.153-.262-1.706a5.02 5.02 0 00-.776-1.523h.582c.352.419.62.906.804 1.462.185.553.277 1.144.277 1.774z" fill="#38424B"/><path fill-rule="evenodd" clip-rule="evenodd" d="M42.332 144.787l-1.422 1.422a.525.525 0 01-.897-.371v-4.728a2.627 2.627 0 012.627-2.627h3.152a2.627 2.627 0 012.627 2.627v1.05a2.627 2.627 0 01-2.627 2.627h-3.46zm-1.268-.218l.68-.679a.523.523 0 01.37-.154h3.678c.87 0 1.576-.705 1.576-1.576v-1.051c0-.87-.706-1.575-1.576-1.575H42.64c-.87 0-1.576.705-1.576 1.575v3.46zm1.576-2.409a.525.525 0 100-1.05.525.525 0 000 1.05zm2.101-.525a.525.525 0 11-1.05 0 .525.525 0 011.05 0zm1.05.525a.525.525 0 10.001-1.05.525.525 0 000 1.05z" fill="#546470"/><path fill="#fff" d="M31.608 150.971h220.639v16.811H31.607z"/><path d="M56.672 158.048c0 .531-.182.941-.546 1.228-.361.285-.88.427-1.555.427h-.618v2.065h-.61v-5.25h1.36c1.313 0 1.969.51 1.969 1.53zm-2.719 1.131h.55c.54 0 .932-.088 1.174-.262.242-.175.363-.455.363-.841 0-.347-.114-.605-.341-.775-.228-.17-.582-.255-1.063-.255h-.683v2.133zm6.425 2.589v-2.546c0-.321-.073-.56-.22-.718-.145-.158-.374-.237-.685-.237-.414 0-.717.112-.909.337-.189.225-.283.594-.283 1.106v2.058h-.596v-5.588h.596v1.692c0 .203-.01.372-.029.506h.036c.117-.189.284-.338.5-.445a1.62 1.62 0 01.742-.165c.482 0 .842.114 1.081.344.242.228.363.59.363 1.088v2.568h-.596zm5.221-1.971c0 .641-.161 1.143-.484 1.504-.324.359-.77.539-1.34.539-.352 0-.664-.083-.937-.248a1.633 1.633 0 01-.632-.711 2.477 2.477 0 01-.223-1.084c0-.642.16-1.141.481-1.498.321-.359.767-.539 1.336-.539.55 0 .988.184 1.311.55.326.366.488.862.488 1.487zm-2.998 0c0 .502.1.885.302 1.149.2.263.496.395.886.395s.686-.131.888-.392c.203-.263.305-.647.305-1.152 0-.501-.102-.88-.305-1.139-.202-.261-.5-.391-.895-.391-.39 0-.684.128-.883.384-.199.256-.298.638-.298 1.146zm6.74 1.971v-2.546c0-.321-.073-.56-.219-.718-.146-.158-.374-.237-.686-.237-.411 0-.713.111-.905.334-.191.222-.287.59-.287 1.102v2.065h-.596v-3.936h.485l.097.539h.028a1.21 1.21 0 01.514-.449 1.65 1.65 0 01.736-.162c.474 0 .831.115 1.07.345.24.228.36.593.36 1.095v2.568h-.597zm3.487.072c-.581 0-1.041-.177-1.379-.532-.335-.354-.502-.846-.502-1.476 0-.634.155-1.138.466-1.511.314-.374.734-.561 1.26-.561.494 0 .884.163 1.172.489.287.323.43.75.43 1.282v.377h-2.71c.011.462.127.813.348 1.052.222.239.535.359.937.359.424 0 .843-.088 1.257-.266v.532c-.21.091-.41.156-.6.194a3.219 3.219 0 01-.679.061zm-.161-3.58c-.316 0-.569.102-.758.308-.187.206-.297.491-.33.855h2.057c0-.376-.083-.663-.251-.862-.168-.201-.407-.301-.718-.301zm6.877-1.272c-.577 0-1.033.193-1.368.578-.333.384-.5.909-.5 1.577 0 .687.16 1.219.482 1.594.323.374.782.561 1.379.561a4.69 4.69 0 001.253-.198v.535c-.364.137-.813.205-1.347.205-.773 0-1.37-.235-1.792-.704-.419-.469-.628-1.136-.628-2 0-.541.1-1.015.302-1.422a2.19 2.19 0 01.876-.941c.383-.22.833-.331 1.35-.331.55 0 1.032.101 1.444.302l-.259.524a2.793 2.793 0 00-1.192-.28zm4.722 4.78l-.118-.56h-.03c-.195.246-.392.414-.588.503a1.802 1.802 0 01-.73.129c-.39 0-.696-.101-.918-.302-.22-.201-.33-.487-.33-.858 0-.795.635-1.211 1.906-1.25l.668-.021v-.245c0-.308-.067-.536-.201-.682-.132-.148-.344-.222-.636-.222-.328 0-.699.1-1.113.301l-.183-.456a2.832 2.832 0 011.332-.337c.47 0 .817.104 1.042.312.227.208.34.542.34 1.002v2.686h-.44zm-1.347-.42c.371 0 .662-.102.873-.305.213-.204.32-.489.32-.855v-.356l-.596.026c-.475.016-.817.091-1.028.222-.208.13-.312.332-.312.607 0 .216.065.38.194.492.132.113.315.169.55.169zm3.617.42h-.596v-5.588h.596v5.588zm1.86 0H87.8v-5.588h.596v5.588z" fill="#38424B"/><path d="M43.744 159.268l.16.284c.258.45.673 1.112 1.054.966l.051-.025.43-.252a.98.98 0 011.313.305l.04.064.247.436a.51.51 0 01-.133.656l-.048.033-.858.504c-.858.504-2.468-.319-3.45-2.048-.98-1.729-.875-3.559-.017-4.063l.858-.504a.49.49 0 01.676.184l.248.437a1.018 1.018 0 01-.362 1.377l-.43.252c-.378.222-.03.94.22 1.394z" fill="#546470"/></g></g><path fill="silver" d="M19.427 47.283h245v.5h-245z"/></g><rect x="19.25" y="12.533" width="245.355" height="317.5" rx="7.75" stroke="#B9C2C8" stroke-width=".5"/><path d="M240.689 116.805l-1.751 1.051v-2.101l-1.401-1.401 2.101-.35 1.051-1.752 1.051 1.752 2.101.35-1.401 1.401v2.101l-1.751-1.051zm0 17.161l-1.751.701v-2.102l-1.401-1.4 2.101-.351 1.051-1.751 1.051 1.751 2.101.351-1.401 1.4v2.102l-1.751-.701zm0 16.811l-1.751.7v-2.101l-1.401-1.401 2.101-.35 1.051-1.751 1.051 1.751 2.101.35-1.401 1.401v2.101l-1.751-.7z" fill="#FF9000"/><defs><clipPath id="clip0_2582_55816"><rect x="19" y="12.283" width="245.855" height="318" rx="8" fill="#fff"/></clipPath><clipPath id="clip1_2582_55816"><path fill="#fff" transform="translate(19 12.283)" d="M0 0h245.855v259.863H0z"/></clipPath><clipPath id="clip2_2582_55816"><rect x="31.608" y="96.336" width="220.639" height="75.648" rx="2.101" fill="#fff"/></clipPath><filter id="filter0_d_2582_55816" x="27.405" y="93.184" width="229.044" height="84.053" filterUnits="userSpaceOnUse" color-interpolation-filters="sRGB"><feFlood flood-opacity="0" result="BackgroundImageFix"/><feColorMatrix in="SourceAlpha" values="0 0 0 0 0 0 0 0 0 0 0 0 0 0 0 0 0 0 127 0" result="hardAlpha"/><feOffset dy="1.051"/><feGaussianBlur stdDeviation="2.101"/><feColorMatrix values="0 0 0 0 0.184314 0 0 0 0 0.215686 0 0 0 0 0.243137 0 0 0 0.2 0"/><feBlend in2="BackgroundImageFix" result="effect1_dropShadow_2582_55816"/><feBlend in="SourceGraphic" in2="effect1_dropShadow_2582_55816" result="shape"/></filter></defs></svg>